<?xml version="1.0" encoding="UTF-8" standalone="no"?>
<!-- Created with Inkscape (http://www.inkscape.org/) -->

<svg
   width="57mm"
   height="40mm"
   viewBox="0 0 57 40"
   version="1.1"
   id="svg559"
   inkscape:version="1.1 (c68e22c387, 2021-05-23)"
   sodipodi:docname="cloudy-night.svg"
   xmlns:inkscape="http://www.inkscape.org/namespaces/inkscape"
   xmlns:sodipodi="http://sodipodi.sourceforge.net/DTD/sodipodi-0.dtd"
   xmlns="http://www.w3.org/2000/svg"
   xmlns:svg="http://www.w3.org/2000/svg">
  <sodipodi:namedview
     id="namedview561"
     pagecolor="#505050"
     bordercolor="#ffffff"
     borderopacity="1"
     inkscape:pageshadow="0"
     inkscape:pageopacity="0"
     inkscape:pagecheckerboard="1"
     inkscape:document-units="mm"
     showgrid="false"
     inkscape:zoom="0.77771465"
     inkscape:cx="251.37755"
     inkscape:cy="560.61693"
     inkscape:window-width="1718"
     inkscape:window-height="1368"
     inkscape:window-x="-7"
     inkscape:window-y="0"
     inkscape:window-maximized="0"
     inkscape:current-layer="layer1"
     units="mm" />
  <defs
     id="defs556" />
  <g
     inkscape:label="Layer 1"
     inkscape:groupmode="layer"
     id="layer1">
    <path
       id="path146"
       style="fill:#ffffff;fill-opacity:1;fill-rule:nonzero;stroke:none;stroke-width:0.0352778"
       d="m 14.705308,21.376172 c -1.697214,0.02822 -3.293533,0.70485 -4.495447,1.906411 -1.2297835,1.230136 -1.9074695,2.866673 -1.9074695,4.607278 0,3.592337 2.9224115,6.515101 6.5147475,6.515101 h 31.531633 c 3.592336,0 6.514747,-2.922764 6.514747,-6.515101 0,-1.704269 -0.652992,-3.315758 -1.840794,-4.537781 -1.183923,-1.219552 -2.769659,-1.920522 -4.465815,-1.973791 -0.363361,-0.01129 -0.706966,-0.17145 -0.948972,-0.443795 -0.241653,-0.271992 -0.361597,-0.631825 -0.330553,-0.994481 0.01023,-0.116769 0.01517,-0.233186 0.01517,-0.345369 0,-2.19322 -1.78435,-3.978275 -3.97757,-3.978275 -0.825853,0 -1.617486,0.250825 -2.289528,0.724958 -0.363008,0.255764 -0.829733,0.313267 -1.243542,0.1524 -0.414161,-0.160161 -0.720019,-0.516819 -0.815622,-0.950383 -0.449792,-2.038703 -1.595261,-3.891139 -3.2258,-5.216878 -1.652411,-1.3440836 -3.738739,-2.0845643 -5.873398,-2.0845643 -5.138914,0 -9.319331,4.1800643 -9.319331,9.3189783 0,0.996245 -0.381705,1.938867 -1.074914,2.6543 -0.690739,0.712964 -1.616428,1.124656 -2.606675,1.158522 -0.03104,0.0011 -0.07585,0.0025 -0.160867,0.0025 z m 31.643464,15.68062 H 14.817139 c -5.0545995,0 -9.1665775,-4.112683 -9.1665775,-9.166931 0,-2.448983 0.952852,-4.751211 2.684286,-6.482645 1.6947435,-1.694039 3.9461715,-2.646891 6.3397695,-2.682522 0.0067,-3.53e-4 0.01305,-3.53e-4 0.01975,-3.53e-4 0.0074,0 0.04445,0 0.06914,0 0.0056,-7.05e-4 0.01094,-0.0011 0.01658,-0.0014 0.626181,-0.02434 1.115836,-0.533753 1.115836,-1.16205 0,-3.197578 1.245306,-6.20395 3.506965,-8.4645504 2.2606,-2.260953 5.266619,-3.5066114 8.464197,-3.5066114 2.742495,0 5.422548,0.9517945 7.546623,2.6786419 1.652058,1.3440834 2.91712,3.1104419 3.660422,5.0838809 0.712612,-0.255411 1.467556,-0.38735 2.240845,-0.38735 3.405011,0 6.219825,2.580922 6.589184,5.889272 1.903589,0.324203 3.653367,1.241073 5.021792,2.65042 1.669344,1.720145 2.589742,3.987448 2.589742,6.385278 0,5.054248 -4.112331,9.166931 -9.166931,9.166931" />
    <path
       id="path148"
       style="fill:#b89157;fill-opacity:1;fill-rule:nonzero;stroke:none;stroke-width:0.0352778"
       d="m 0.27810797,13.878233 c 0.08255,0.09207 0.1654528,0.185208 0.2518833,0.274461 0.1598084,0.166158 0.3263195,0.326672 0.49918063,0.476603 1.2855223,1.129241 2.9418146,1.84538 4.7653226,1.954036 0.156986,0.01305 0.316794,0.01588 0.476956,0.01588 4.3938465,0 7.9565495,-3.562703 7.9565495,-7.9572562 0,-3.5651725 -2.344561,-6.5817754 -5.5781225,-7.5956588 0.172862,0.1989666 0.336198,0.4028722 0.486481,0.6184194 l 0.0035,0.00317 c 0.08608,0.1174751 0.169333,0.243064 0.246239,0.3672417 0.7799905,1.2283723 1.2315465,2.683228 1.2315465,4.2474447 0,4.3945532 -3.5662305,7.9569032 -7.9607833,7.9569032 -0.1601611,0 -0.3227917,-0.0067 -0.4804834,-0.01587 -0.6579026,-0.0388 -1.29466653,-0.156628 -1.89826933,-0.345364" />
  </g>
</svg>
