<?xml version="1.0" encoding="UTF-8" standalone="no"?>
<!-- Created with Inkscape (http://www.inkscape.org/) -->

<svg
   width="57mm"
   height="40mm"
   viewBox="0 0 57 40"
   version="1.1"
   id="svg559"
   inkscape:version="1.1 (c68e22c387, 2021-05-23)"
   sodipodi:docname="cloudy.svg"
   xmlns:inkscape="http://www.inkscape.org/namespaces/inkscape"
   xmlns:sodipodi="http://sodipodi.sourceforge.net/DTD/sodipodi-0.dtd"
   xmlns="http://www.w3.org/2000/svg"
   xmlns:svg="http://www.w3.org/2000/svg">
  <sodipodi:namedview
     id="namedview561"
     pagecolor="#505050"
     bordercolor="#ffffff"
     borderopacity="1"
     inkscape:pageshadow="0"
     inkscape:pageopacity="0"
     inkscape:pagecheckerboard="1"
     inkscape:document-units="mm"
     showgrid="false"
     inkscape:zoom="0.77771465"
     inkscape:cx="23.787645"
     inkscape:cy="560.61693"
     inkscape:window-width="1718"
     inkscape:window-height="1368"
     inkscape:window-x="-7"
     inkscape:window-y="0"
     inkscape:window-maximized="0"
     inkscape:current-layer="layer1"
     units="mm" />
  <defs
     id="defs556" />
  <g
     inkscape:label="Layer 1"
     inkscape:groupmode="layer"
     id="layer1">
    <path
       id="path120"
       style="fill:#ffffff;fill-opacity:1;fill-rule:nonzero;stroke:none;stroke-width:0.0352778"
       d="m 45.227258,35.195108 h -31.53195 c -3.592266,0 -6.5146773,-2.923117 -6.5146773,-6.515101 0,-1.141236 0.2906183,-2.237317 0.8377061,-3.202869 0.2874434,-0.507648 0.6453365,-0.98037 1.0696223,-1.404409 1.2023369,-1.202267 2.7983749,-1.878894 4.4960119,-1.906764 0.0853,0 0.129646,-0.0014 0.160267,-0.0021 0.990529,-0.03387 1.91643,-0.445558 2.607098,-1.158522 0.693279,-0.715433 1.07502,-1.658408 1.07502,-2.6543 0,-2.213681 0.775829,-4.248856 2.069395,-5.849409 1.709173,-2.114903 4.324244,-3.469922 7.249478,-3.469922 2.135011,0 4.221339,0.740833 5.87375,2.084917 1.630186,1.325386 2.775303,3.178175 3.2258,5.216525 0.0949,0.433917 0.401109,0.790928 0.81527,0.950736 0.414161,0.160867 0.880533,0.103011 1.243541,-0.1524 0.672042,-0.474133 1.463676,-0.725311 2.289528,-0.725311 2.193573,0 3.97757,1.785408 3.97757,3.978275 0,0.112536 -0.0049,0.2286 -0.01517,0.345722 -0.03069,0.362656 0.0889,0.722489 0.330905,0.994481 0.242006,0.272345 0.584906,0.432506 0.949325,0.443795 1.69545,0.05327 3.281187,0.753533 4.465814,1.973791 1.186745,1.222023 1.840089,2.833864 1.840089,4.537781 0,3.591984 -2.922411,6.515101 -6.514394,6.515101 z m 6.576483,-12.900026 c -1.367719,-1.4097 -3.118203,-2.326923 -5.021439,-2.650773 -0.369358,-3.309055 -3.183467,-5.889978 -6.589184,-5.889978 -0.772583,0 -1.528233,0.132292 -2.240139,0.387703 -0.743655,-1.973439 -2.008716,-3.739445 -3.660775,-5.083175 -2.124428,-1.7272 -4.804481,-2.678995 -7.546975,-2.678995 -3.197578,0 -6.203422,1.245659 -8.464657,3.505906 -0.09797,0.09807 -0.194416,0.197908 -0.288537,0.29845 -2.077967,2.223911 -3.217721,5.108222 -3.217721,8.166806 0,0.628297 -0.489338,1.137356 -1.115801,1.162403 -0.0054,0 -0.01104,0 -0.0164,0.0011 -0.02494,3.53e-4 -0.06216,3.53e-4 -0.06904,0 -0.007,0 -0.01365,3.53e-4 -0.02039,3.53e-4 -2.393667,0.03563 -4.6450952,0.988131 -6.3398044,2.682522 -0.6392687,0.639234 -1.1724218,1.356784 -1.5902518,2.130426 -0.714375,1.3208 -1.0940345,2.807052 -1.0940345,4.352219 0,5.053895 4.1121897,9.166931 9.1667197,9.166931 h 31.53195 c 5.054247,0 9.166931,-4.113036 9.166931,-9.166931 0,-2.39783 -0.920045,-4.665486 -2.590448,-6.384925" />
    <path
       id="path122"
       style="fill:#e1b373;fill-opacity:1;fill-rule:nonzero;stroke:none;stroke-width:0.0352778"
       d="m 17.992035,10.18422 c -2.077967,2.223911 -3.217721,5.108222 -3.217721,8.166806 0,0.628297 -0.489338,1.137356 -1.115801,1.162403 -0.0054,0 -0.01104,0 -0.0164,0.0011 -0.02494,3.53e-4 -0.06216,3.53e-4 -0.06904,0 -0.007,0 -0.01365,3.53e-4 -0.02039,3.53e-4 -2.393667,0.03563 -4.6450952,0.988131 -6.3398044,2.682522 C 6.5736099,22.836638 6.0404568,23.554188 5.6226268,24.32783 3.0767,22.628852 1.3996296,19.730076 1.3996296,16.440776 c 0,-5.233811 4.2420119,-9.475964 9.4745534,-9.475964 2.836157,0 5.380955,1.246011 7.117856,3.21945" />
  </g>
</svg>
