<?xml version="1.0" encoding="UTF-8" standalone="no"?>
<!-- Created with Inkscape (http://www.inkscape.org/) -->

<svg
   width="57mm"
   height="40mm"
   viewBox="0 0 57 40"
   version="1.1"
   id="svg559"
   inkscape:version="1.1 (c68e22c387, 2021-05-23)"
   sodipodi:docname="night-rain.svg"
   xmlns:inkscape="http://www.inkscape.org/namespaces/inkscape"
   xmlns:sodipodi="http://sodipodi.sourceforge.net/DTD/sodipodi-0.dtd"
   xmlns="http://www.w3.org/2000/svg"
   xmlns:svg="http://www.w3.org/2000/svg">
  <sodipodi:namedview
     id="namedview561"
     pagecolor="#505050"
     bordercolor="#ffffff"
     borderopacity="1"
     inkscape:pageshadow="0"
     inkscape:pageopacity="0"
     inkscape:pagecheckerboard="1"
     inkscape:document-units="mm"
     showgrid="false"
     inkscape:zoom="0.77771465"
     inkscape:cx="251.37755"
     inkscape:cy="560.61693"
     inkscape:window-width="1718"
     inkscape:window-height="1368"
     inkscape:window-x="-7"
     inkscape:window-y="0"
     inkscape:window-maximized="0"
     inkscape:current-layer="layer1"
     units="mm" />
  <defs
     id="defs556" />
  <g
     inkscape:label="Layer 1"
     inkscape:groupmode="layer"
     id="layer1">
    <path
       id="path192"
       style="fill:#b89157;fill-opacity:1;fill-rule:nonzero;stroke:none;stroke-width:0.0352778"
       d="m 0.24375696,13.369641 c 0.08255,0.09278 0.1665111,0.184855 0.2525891,0.274461 0.159808,0.166864 0.325967,0.326319 0.499181,0.476956 1.28481604,1.128536 2.94146104,1.845028 4.76532204,1.954036 0.156281,0.01235 0.316089,0.01623 0.476603,0.01623 4.3938459,0 7.9569019,-3.563409 7.9569019,-7.9579626 0,-3.56482 -2.344914,-6.581423 -5.5784739,-7.59495295 0.1732142,0.19826096 0.3358442,0.40216596 0.4864802,0.61806595 l 0.0032,0.0028 c 0.08608,0.11818 0.169687,0.243064 0.246238,0.367594 0.7806977,1.2280201 1.2315477,2.6832281 1.2315477,4.247445 0,4.3945536 -3.5655249,7.9561986 -7.9604299,7.9561986 -0.159809,0 -0.322792,-0.006 -0.480131,-0.01552 -0.658283,-0.0388 -1.29504704,-0.156986 -1.89900314,-0.345369" />
    <path
       id="path194"
       style="fill:#ffffff;fill-opacity:1;fill-rule:nonzero;stroke:none;stroke-width:0.0352778"
       d="m 52.960658,17.591107 c -1.36842,-1.408994 -3.11856,-2.325864 -5.02285,-2.650067 -0.3683,-3.308703 -3.18276,-5.8899784 -6.58813,-5.8899784 -0.77293,0 -1.52823,0.131939 -2.24049,0.388056 -0.74436,-1.973792 -2.00836,-3.740503 -3.66113,-5.083528 -2.12336,-1.727553 -4.80377,-2.678995 -7.54627,-2.678995 -3.19757,0 -6.20359,1.244953 -8.4649,3.505906 -2.2606,2.261306 -3.506257,5.2673254 -3.506257,8.4649034 0,0.62865 -0.489655,1.137709 -1.116189,1.162403 -0.0049,0 -0.01094,0 -0.01623,3.53e-4 -0.02469,7.05e-4 -0.06209,7.05e-4 -0.06879,3.53e-4 -0.0071,0 -0.01341,3.52e-4 -0.02046,3.52e-4 -2.393245,0.03598 -4.64432,0.988836 -6.3401226,2.683228 -1.730375,1.731081 -2.683581,4.033309 -2.683581,6.482292 0,5.054601 4.111978,9.166543 9.1662256,9.166543 h 3.781424 v -2.65176 h -3.781424 c -3.591631,0 -6.5140416,-2.922834 -6.5140416,-6.514783 0,-1.740605 0.67698,-3.376789 1.9071166,-4.607278 1.201914,-1.201561 2.79788,-1.878542 4.495094,-1.906058 0.08502,-7.06e-4 0.130175,-0.0018 0.160867,-0.0028 0.990953,-0.03387 1.916288,-0.445559 2.607028,-1.15817 0.69321,-0.715433 1.07491,-1.658408 1.07491,-2.654653 0,-5.1385614 4.18042,-9.3189784 9.31933,-9.3189784 2.13466,0 4.22099,0.74048 5.8734,2.084211 1.63054,1.325739 2.77601,3.178881 3.2258,5.2172314 0.0952,0.433564 0.40146,0.790575 0.81563,0.951089 0.4138,0.160161 0.88053,0.102658 1.24354,-0.152753 0.67169,-0.474133 1.46332,-0.724958 2.28952,-0.724958 2.19322,0 3.97793,1.78435 3.97793,3.977569 0,0.112536 -0.006,0.2286 -0.0155,0.346075 -0.0307,0.362656 0.0882,0.722137 0.33091,0.994128 0.24165,0.272345 0.58491,0.432506 0.94862,0.444147 1.6958,0.05292 3.28189,0.753887 4.46617,1.973792 1.18674,1.22167 1.84044,2.833159 1.84044,4.537428 0,3.591949 -2.92206,6.514783 -6.5151,6.514783 h -3.78072 v 2.65176 h 3.78072 c 5.05495,0 9.16693,-4.111942 9.16693,-9.166543 0,-2.39783 -0.91969,-4.665133 -2.58939,-6.385278" />
    <path
       id="path196"
       style="fill:#5c93a4;fill-opacity:1;fill-rule:nonzero;stroke:none;stroke-width:0.0352778"
       d="m 23.050388,39.605924 c -0.46778,0 -0.84666,-0.379378 -0.84666,-0.846808 V 27.527094 c 0,-0.467078 0.37888,-0.846314 0.84666,-0.846314 0.46708,0 0.84597,0.379236 0.84597,0.846314 v 11.232022 c 0,0.46743 -0.37889,0.846808 -0.84597,0.846808" />
    <path
       id="path198"
       style="fill:#5c93a4;fill-opacity:1;fill-rule:nonzero;stroke:none;stroke-width:0.0352778"
       d="m 25.980208,39.605924 c -0.46743,0 -0.84631,-0.379378 -0.84631,-0.846808 V 27.527094 c 0,-0.467078 0.37888,-0.846314 0.84631,-0.846314 0.46743,0 0.84702,0.379236 0.84702,0.846314 v 11.232022 c 0,0.46743 -0.37959,0.846808 -0.84702,0.846808" />
    <path
       id="path200"
       style="fill:#5c93a4;fill-opacity:1;fill-rule:nonzero;stroke:none;stroke-width:0.0352778"
       d="m 28.910738,39.605924 c -0.46814,0 -0.84667,-0.379378 -0.84667,-0.846808 V 27.527094 c 0,-0.467078 0.37853,-0.846314 0.84667,-0.846314 0.46708,0 0.84631,0.379236 0.84631,0.846314 v 11.232022 c 0,0.46743 -0.37923,0.846808 -0.84631,0.846808" />
    <path
       id="path202"
       style="fill:#5c93a4;fill-opacity:1;fill-rule:nonzero;stroke:none;stroke-width:0.0352778"
       d="m 31.840208,39.605924 c -0.46743,0 -0.84667,-0.379378 -0.84667,-0.846808 V 27.527094 c 0,-0.467078 0.37924,-0.846314 0.84667,-0.846314 0.46813,0 0.84666,0.379236 0.84666,0.846314 v 11.232022 c 0,0.46743 -0.37853,0.846808 -0.84666,0.846808" />
    <path
       id="path204"
       style="fill:#5c93a4;fill-opacity:1;fill-rule:nonzero;stroke:none;stroke-width:0.0352778"
       d="m 34.770378,39.605924 c -0.46743,0 -0.84632,-0.379378 -0.84632,-0.846808 V 27.527094 c 0,-0.467078 0.37889,-0.846314 0.84632,-0.846314 0.46778,0 0.84667,0.379236 0.84667,0.846314 v 11.232022 c 0,0.46743 -0.37889,0.846808 -0.84667,0.846808" />
    <path
       id="path206"
       style="fill:#5c93a4;fill-opacity:1;fill-rule:nonzero;stroke:none;stroke-width:0.0352778"
       d="m 37.700548,39.605924 c -0.46708,0 -0.84631,-0.379378 -0.84631,-0.846808 V 27.527094 c 0,-0.467078 0.37923,-0.846314 0.84631,-0.846314 0.46778,0 0.84667,0.379236 0.84667,0.846314 v 11.232022 c 0,0.46743 -0.37889,0.846808 -0.84667,0.846808" />
  </g>
</svg>
