<?xml version="1.0" encoding="UTF-8" standalone="no"?>
<!-- Created with Inkscape (http://www.inkscape.org/) -->

<svg
   width="57mm"
   height="40mm"
   viewBox="0 0 57 40"
   version="1.1"
   id="svg559"
   inkscape:version="1.1 (c68e22c387, 2021-05-23)"
   sodipodi:docname="pellets.svg"
   xmlns:inkscape="http://www.inkscape.org/namespaces/inkscape"
   xmlns:sodipodi="http://sodipodi.sourceforge.net/DTD/sodipodi-0.dtd"
   xmlns="http://www.w3.org/2000/svg"
   xmlns:svg="http://www.w3.org/2000/svg">
  <sodipodi:namedview
     id="namedview561"
     pagecolor="#505050"
     bordercolor="#ffffff"
     borderopacity="1"
     inkscape:pageshadow="0"
     inkscape:pageopacity="0"
     inkscape:pagecheckerboard="1"
     inkscape:document-units="mm"
     showgrid="false"
     inkscape:zoom="6.2217172"
     inkscape:cx="110.17859"
     inkscape:cy="88.882214"
     inkscape:window-width="1718"
     inkscape:window-height="1368"
     inkscape:window-x="1441"
     inkscape:window-y="45"
     inkscape:window-maximized="0"
     inkscape:current-layer="layer1"
     units="mm" />
  <defs
     id="defs556" />
  <g
     inkscape:label="Layer 1"
     inkscape:groupmode="layer"
     id="layer1">
    <path
       id="path156"
       style="fill:#ffffff;fill-opacity:1;fill-rule:nonzero;stroke:none;stroke-width:0.0352778"
       d="m 51.260444,19.832883 c -1.368426,-1.410053 -3.118556,-2.327275 -5.022145,-2.651831 -0.369359,-3.309761 -3.183114,-5.890331 -6.588831,-5.890331 -0.772936,0 -1.528234,0.131939 -2.240845,0.38735 C 36.664968,9.7046324 35.400612,7.9382741 33.748201,6.5945435 31.624126,4.8673433 28.944073,3.9155488 26.201578,3.9155488 c -3.197578,0 -6.203351,1.2453057 -8.464692,3.5062586 -2.261235,2.261306 -3.506434,5.2669726 -3.506434,8.4649026 0,0.629003 -0.489868,1.138767 -1.115801,1.163109 -0.0054,3.52e-4 -0.01115,7.05e-4 -0.01651,7.05e-4 -0.02494,3.53e-4 -0.06188,3.53e-4 -0.06893,3.53e-4 -0.0066,0 -0.01323,0 -0.01997,0 -2.393633,0.03634 -4.6453785,0.989189 -6.3400877,2.684286 -1.7309396,1.732492 -2.6842863,4.035778 -2.6842863,6.486173 0,5.056717 4.1123661,9.169401 9.167002,9.169401 H 16.9328 v -2.651831 h -3.780931 c -3.5924072,0 -6.5146774,-2.924175 -6.5146774,-6.51757 0,-1.742017 0.6770159,-3.378906 1.9067993,-4.609748 1.2023373,-1.202266 2.7987981,-1.879952 4.4958351,-1.907822 0.08516,0 0.130246,-0.0011 0.160973,-0.0021 0.989824,-0.03387 1.915866,-0.445558 2.606428,-1.158875 0.69342,-0.716139 1.075267,-1.659466 1.075267,-2.656064 0,-5.138208 4.180558,-9.3189777 9.319084,-9.3189777 2.135011,0 4.220986,0.7401279 5.87375,2.0842113 1.630187,1.3257388 2.775656,3.1788804 3.225095,5.2172304 0.0956,0.433564 0.402167,0.790222 0.815975,0.951089 0.413809,0.159808 0.880534,0.102658 1.243542,-0.153106 0.671689,-0.474486 1.463322,-0.724605 2.289528,-0.724605 2.193572,0 3.977922,1.784703 3.977922,3.979333 0,0.112184 -0.0049,0.228248 -0.01517,0.34537 -0.0314,0.362655 0.08819,0.722842 0.3302,0.995186 0.242358,0.271992 0.585611,0.432506 0.949325,0.444147 1.695803,0.05292 3.281892,0.754239 4.466167,1.974145 1.186744,1.223081 1.840089,2.835275 1.840089,4.540603 0,3.593395 -2.922059,6.51757 -6.514748,6.51757 h -3.781072 v 2.651831 h 3.781072 c 5.054601,0 9.166931,-4.112684 9.166931,-9.169401 0,-2.399595 -0.919691,-4.668309 -2.589741,-6.388453" />
    <circle
       style="fill:#5c93a4;stroke-width:0.264583;fill-opacity:1"
       id="path3057"
       cx="21.964561"
       cy="29.6192"
       r="2.3601804" />
    <circle
       style="fill:#5c93a4;fill-opacity:1;stroke-width:0.264583"
       id="path3057-3"
       cx="28.662371"
       cy="35.211338"
       r="2.3601804" />
    <circle
       style="fill:#5c93a4;fill-opacity:1;stroke-width:0.264583"
       id="path3057-9"
       cx="36.104382"
       cy="30.150774"
       r="2.3601804" />
  </g>
</svg>
