<?xml version="1.0" encoding="UTF-8" standalone="no"?>
<!-- Created with Inkscape (http://www.inkscape.org/) -->

<svg
   width="57mm"
   height="40mm"
   viewBox="0 0 57 40"
   version="1.1"
   id="svg559"
   inkscape:version="1.1 (c68e22c387, 2021-05-23)"
   sodipodi:docname="rain.svg"
   xmlns:inkscape="http://www.inkscape.org/namespaces/inkscape"
   xmlns:sodipodi="http://sodipodi.sourceforge.net/DTD/sodipodi-0.dtd"
   xmlns="http://www.w3.org/2000/svg"
   xmlns:svg="http://www.w3.org/2000/svg">
  <sodipodi:namedview
     id="namedview561"
     pagecolor="#505050"
     bordercolor="#ffffff"
     borderopacity="1"
     inkscape:pageshadow="0"
     inkscape:pageopacity="0"
     inkscape:pagecheckerboard="1"
     inkscape:document-units="mm"
     showgrid="false"
     inkscape:zoom="0.77771465"
     inkscape:cx="251.37755"
     inkscape:cy="560.61693"
     inkscape:window-width="1718"
     inkscape:window-height="1368"
     inkscape:window-x="-7"
     inkscape:window-y="0"
     inkscape:window-maximized="0"
     inkscape:current-layer="layer1"
     units="mm" />
  <defs
     id="defs556" />
  <g
     inkscape:label="Layer 1"
     inkscape:groupmode="layer"
     id="layer1">
    <path
       id="path132"
       style="fill:#ffffff;fill-opacity:1;fill-rule:nonzero;stroke:none;stroke-width:0.0352778"
       d="m 51.259649,17.679527 c -1.368072,-1.408642 -3.11785,-2.325864 -5.021792,-2.650067 -0.369005,-3.309056 -3.182761,-5.8896257 -6.588831,-5.8896257 -0.772936,0 -1.527881,0.1315861 -2.240139,0.3880556 C 36.664879,7.5537453 35.40017,5.7870341 33.748465,4.444009 31.62439,2.7164561 28.944337,1.7653672 26.201489,1.7653672 c -3.197578,0 -6.203597,1.2446001 -8.46455,3.505553 -2.261306,2.2613057 -3.506259,5.2673258 -3.506259,8.4645508 0,0.629003 -0.489655,1.138061 -1.116189,1.163108 -0.0056,0 -0.01094,0 -0.01623,3.53e-4 -0.0254,7.06e-4 -0.06209,3.53e-4 -0.06914,3.53e-4 -0.0067,0 -0.01376,0 -0.01976,3.53e-4 -2.394303,0.03634 -4.6453776,0.988836 -6.3404746,2.682875 -1.7307279,1.731081 -2.6835808,4.033309 -2.6835808,6.482645 0,5.0546 4.1119778,9.166578 9.1662254,9.166578 h 3.781425 v -2.652183 h -3.781423 c -3.5923366,0 -6.5143946,-2.922412 -6.5143946,-6.514395 0,-1.740959 0.676981,-3.377495 1.906764,-4.607278 1.202619,-1.201914 2.7985856,-1.878542 4.4957996,-1.906764 0.08537,0 0.130528,-7.06e-4 0.160867,-0.0018 0.990247,-0.03493 1.915583,-0.445911 2.606322,-1.158875 0.693209,-0.715434 1.07562,-1.658409 1.07562,-2.655006 0,-5.1378561 4.180064,-9.3186259 9.318978,-9.3186259 2.134659,0 4.220987,0.7404806 5.873751,2.0842113 1.630186,1.3260917 2.775655,3.1788807 3.225447,5.2175836 0.0956,0.433564 0.401461,0.790223 0.815975,0.950737 0.413456,0.160161 0.880181,0.102658 1.243189,-0.153106 0.671689,-0.474133 1.463322,-0.724253 2.289175,-0.724253 2.193573,0 3.978275,1.783997 3.978275,3.97757 0,0.112183 -0.0049,0.228247 -0.01517,0.345369 -0.03104,0.363361 0.08855,0.722489 0.330553,0.994481 0.242005,0.271992 0.584905,0.432858 0.949325,0.444147 1.69545,0.05327 3.281186,0.753886 4.465461,1.973792 1.187097,1.222022 1.840795,2.833511 1.840795,4.537781 0,3.591983 -2.923117,6.514395 -6.515101,6.514395 H 40.902093 V 33.2317 h 3.781072 c 5.054248,0 9.166579,-4.111978 9.166579,-9.166578 0,-2.397831 -0.919339,-4.665487 -2.590095,-6.385631" />
    <path
       id="path134"
       style="fill:#5c93a4;fill-opacity:1;fill-rule:nonzero;stroke:none;stroke-width:0.0352778"
       d="m 21.349383,39.739781 c -0.467077,0 -0.845961,-0.378883 -0.845961,-0.846314 v -11.23174 c 0,-0.46743 0.378884,-0.847019 0.845961,-0.847019 0.468136,0 0.84702,0.379589 0.84702,0.847019 v 11.23174 c 0,0.467431 -0.378884,0.846314 -0.84702,0.846314" />
    <path
       id="path136"
       style="fill:#5c93a4;fill-opacity:1;fill-rule:nonzero;stroke:none;stroke-width:0.0352778"
       d="m 24.280261,39.739781 c -0.467783,0 -0.846666,-0.378883 -0.846666,-0.846314 v -11.23174 c 0,-0.46743 0.378883,-0.847019 0.846666,-0.847019 0.467078,0 0.845961,0.379589 0.845961,0.847019 v 11.23174 c 0,0.467431 -0.378883,0.846314 -0.845961,0.846314" />
    <path
       id="path138"
       style="fill:#5c93a4;fill-opacity:1;fill-rule:nonzero;stroke:none;stroke-width:0.0352778"
       d="m 27.210081,39.739781 c -0.467431,0 -0.846667,-0.378883 -0.846667,-0.846314 v -11.23174 c 0,-0.46743 0.379236,-0.847019 0.846667,-0.847019 0.467783,0 0.846667,0.379589 0.846667,0.847019 v 11.23174 c 0,0.467431 -0.378884,0.846314 -0.846667,0.846314" />
    <path
       id="path140"
       style="fill:#5c93a4;fill-opacity:1;fill-rule:nonzero;stroke:none;stroke-width:0.0352778"
       d="m 30.140253,39.739781 c -0.467783,0 -0.846666,-0.378883 -0.846666,-0.846314 v -11.23174 c 0,-0.46743 0.378883,-0.847019 0.846666,-0.847019 0.467431,0 0.846667,0.379589 0.846667,0.847019 v 11.23174 c 0,0.467431 -0.379236,0.846314 -0.846667,0.846314" />
    <path
       id="path142"
       style="fill:#5c93a4;fill-opacity:1;fill-rule:nonzero;stroke:none;stroke-width:0.0352778"
       d="m 33.070426,39.739781 c -0.467431,0 -0.846667,-0.378883 -0.846667,-0.846314 v -11.23174 c 0,-0.46743 0.379236,-0.847019 0.846667,-0.847019 0.467783,0 0.846666,0.379589 0.846666,0.847019 v 11.23174 c 0,0.467431 -0.378883,0.846314 -0.846666,0.846314" />
    <path
       id="path144"
       style="fill:#5c93a4;fill-opacity:1;fill-rule:nonzero;stroke:none;stroke-width:0.0352778"
       d="m 36.000245,39.739781 c -0.46743,0 -0.846314,-0.378883 -0.846314,-0.846314 v -11.23174 c 0,-0.46743 0.378884,-0.847019 0.846314,-0.847019 0.467784,0 0.846667,0.379589 0.846667,0.847019 v 11.23174 c 0,0.467431 -0.378883,0.846314 -0.846667,0.846314" />
  </g>
</svg>
