<?xml version="1.0" encoding="UTF-8" standalone="no"?>
<!-- Created with Inkscape (http://www.inkscape.org/) -->

<svg
   width="57mm"
   height="40mm"
   viewBox="0 0 57 40"
   version="1.1"
   id="svg559"
   inkscape:version="1.1 (c68e22c387, 2021-05-23)"
   sodipodi:docname="sun-rain.svg"
   xmlns:inkscape="http://www.inkscape.org/namespaces/inkscape"
   xmlns:sodipodi="http://sodipodi.sourceforge.net/DTD/sodipodi-0.dtd"
   xmlns="http://www.w3.org/2000/svg"
   xmlns:svg="http://www.w3.org/2000/svg">
  <sodipodi:namedview
     id="namedview561"
     pagecolor="#505050"
     bordercolor="#ffffff"
     borderopacity="1"
     inkscape:pageshadow="0"
     inkscape:pageopacity="0"
     inkscape:pagecheckerboard="1"
     inkscape:document-units="mm"
     showgrid="false"
     inkscape:zoom="0.77771465"
     inkscape:cx="251.37755"
     inkscape:cy="560.61693"
     inkscape:window-width="1718"
     inkscape:window-height="1368"
     inkscape:window-x="-7"
     inkscape:window-y="0"
     inkscape:window-maximized="0"
     inkscape:current-layer="layer1"
     units="mm" />
  <defs
     id="defs556" />
  <g
     inkscape:label="Layer 1"
     inkscape:groupmode="layer"
     id="layer1">
    <path
       id="path166"
       style="fill:#e1b373;fill-opacity:1;fill-rule:nonzero;stroke:none;stroke-width:0.0352778"
       d="m 18.333055,5.9491349 c -2.078214,2.224264 -3.218039,5.1078691 -3.218039,8.1664531 0,0.62865 -0.489656,1.137356 -1.116189,1.162403 -0.0056,0 -0.01094,0 -0.01623,3.53e-4 -0.02469,7.05e-4 -0.06209,7.05e-4 -0.06879,0 -0.0071,0 -0.01341,7.05e-4 -0.02046,7.05e-4 -2.393245,0.03634 -4.645378,0.988836 -6.3397697,2.683934 -0.6392334,0.639939 -1.1726334,1.357489 -1.5903223,2.132189 -2.5459974,-1.700037 -4.2234559,-4.600223 -4.2234559,-7.890229 0,-5.2331053 4.2421531,-9.4749055 9.4749059,-9.4749055 2.835981,0 5.38092,1.2446 7.118351,3.2190974" />
    <path
       id="path168"
       style="fill:#ffffff;fill-opacity:1;fill-rule:nonzero;stroke:none;stroke-width:0.0352778"
       d="m 52.14469,17.700163 c -1.368425,-1.4097 -3.118203,-2.327628 -5.022145,-2.651831 -0.369005,-3.309055 -3.183114,-5.8896247 -6.588831,-5.8896247 -0.772583,0 -1.52788,0.1322917 -2.240139,0.3880556 C 37.549214,7.5726183 36.285211,5.8066127 34.632447,4.4625292 32.509078,2.7356819 29.828672,1.7838874 27.086178,1.7838874 c -3.197931,0 -6.203598,1.2453056 -8.464903,3.5059058 -2.261306,2.2613057 -3.506259,5.2673248 -3.506259,8.4649028 0,0.62865 -0.489656,1.138061 -1.116189,1.162756 -0.0056,3.53e-4 -0.01094,3.53e-4 -0.01623,3.53e-4 -0.02469,3.52e-4 -0.06209,3.52e-4 -0.06879,3.52e-4 -0.0071,0 -0.01341,0 -0.02046,0 -2.393245,0.03669 -4.6450252,0.989542 -6.3397697,2.684287 -1.7310807,1.731786 -2.6839335,4.036131 -2.6839335,6.485467 0,5.057422 4.111978,9.171164 9.1662252,9.171164 h 3.781426 v -2.652536 h -3.781425 c -3.591631,0 -6.5140423,-2.923822 -6.5140423,-6.518628 0,-1.741311 0.6769806,-3.378906 1.906764,-4.608689 1.2022663,-1.20262 2.7985863,-1.879953 4.4954473,-1.908175 0.08502,0 0.130175,-0.0011 0.160867,-0.0018 0.990953,-0.03457 1.915936,-0.445559 2.606322,-1.159934 0.693914,-0.715433 1.07562,-1.658408 1.07562,-2.654653 0,-5.1382082 4.180064,-9.3186251 9.319331,-9.3186251 2.134658,0 4.220986,0.7401278 5.873044,2.0842112 1.630892,1.325739 2.776362,3.1788808 3.226153,5.2168779 0.09525,0.433917 0.401109,0.790928 0.815623,0.951089 0.413808,0.160514 0.88018,0.103011 1.243894,-0.153106 0.671336,-0.474133 1.46297,-0.724605 2.288822,-0.724605 2.193573,0 3.977923,1.78435 3.977923,3.978628 0,0.11183 -0.0049,0.228247 -0.01517,0.345017 -0.03069,0.363361 0.08819,0.722841 0.330906,0.994833 0.2413,0.272344 0.584906,0.433211 0.94862,0.4445 1.695802,0.05327 3.281891,0.754239 4.466167,1.97485 1.187097,1.222728 1.840441,2.834922 1.840441,4.539545 0,3.594806 -2.922764,6.518628 -6.5151,6.518628 h -3.780367 v 2.652536 h 3.780367 c 5.0546,0 9.166931,-4.113742 9.166931,-9.171164 0,-2.398536 -0.919692,-4.667603 -2.589742,-6.387748" />
    <path
       id="path170"
       style="fill:#5c93a4;fill-opacity:1;fill-rule:nonzero;stroke:none;stroke-width:0.0352778"
       d="m 22.234424,39.721259 c -0.46743,0 -0.846666,-0.379236 -0.846666,-0.846314 V 27.640736 c 0,-0.467783 0.379236,-0.847019 0.846666,-0.847019 0.467431,0 0.846314,0.379236 0.846314,0.847019 v 11.234209 c 0,0.467078 -0.378883,0.846314 -0.846314,0.846314" />
    <path
       id="path172"
       style="fill:#5c93a4;fill-opacity:1;fill-rule:nonzero;stroke:none;stroke-width:0.0352778"
       d="m 25.164597,39.721259 c -0.467784,0 -0.846314,-0.379236 -0.846314,-0.846314 V 27.640736 c 0,-0.467783 0.37853,-0.847019 0.846314,-0.847019 0.467783,0 0.846667,0.379236 0.846667,0.847019 v 11.234209 c 0,0.467078 -0.378884,0.846314 -0.846667,0.846314" />
    <path
       id="path174"
       style="fill:#5c93a4;fill-opacity:1;fill-rule:nonzero;stroke:none;stroke-width:0.0352778"
       d="m 28.095122,39.721259 c -0.468136,0 -0.847372,-0.379236 -0.847372,-0.846314 V 27.640736 c 0,-0.467783 0.379236,-0.847019 0.847372,-0.847019 0.467078,0 0.845961,0.379236 0.845961,0.847019 v 11.234209 c 0,0.467078 -0.378883,0.846314 -0.845961,0.846314" />
    <path
       id="path176"
       style="fill:#5c93a4;fill-opacity:1;fill-rule:nonzero;stroke:none;stroke-width:0.0352778"
       d="m 31.024589,39.721259 c -0.467078,0 -0.846667,-0.379236 -0.846667,-0.846314 V 27.640736 c 0,-0.467783 0.379589,-0.847019 0.846667,-0.847019 0.468136,0 0.846314,0.379236 0.846314,0.847019 v 11.234209 c 0,0.467078 -0.378178,0.846314 -0.846314,0.846314" />
    <path
       id="path178"
       style="fill:#5c93a4;fill-opacity:1;fill-rule:nonzero;stroke:none;stroke-width:0.0352778"
       d="m 33.954408,39.721259 c -0.467077,0 -0.845961,-0.379236 -0.845961,-0.846314 V 27.640736 c 0,-0.467783 0.378884,-0.847019 0.845961,-0.847019 0.468489,0 0.84702,0.379236 0.84702,0.847019 v 11.234209 c 0,0.467078 -0.378531,0.846314 -0.84702,0.846314" />
    <path
       id="path180"
       style="fill:#5c93a4;fill-opacity:1;fill-rule:nonzero;stroke:none;stroke-width:0.0352778"
       d="m 36.884934,39.721259 c -0.467078,0 -0.845961,-0.379236 -0.845961,-0.846314 V 27.640736 c 0,-0.467783 0.378883,-0.847019 0.845961,-0.847019 0.46743,0 0.846314,0.379236 0.846314,0.847019 v 11.234209 c 0,0.467078 -0.378884,0.846314 -0.846314,0.846314" />
  </g>
</svg>
