<?xml version="1.0" encoding="UTF-8" standalone="no"?>
<!-- Created with Inkscape (http://www.inkscape.org/) -->

<svg
   width="57mm"
   height="40mm"
   viewBox="0 0 57 40"
   version="1.1"
   id="svg559"
   inkscape:version="1.1 (c68e22c387, 2021-05-23)"
   sodipodi:docname="thunder-snow.svg"
   xmlns:inkscape="http://www.inkscape.org/namespaces/inkscape"
   xmlns:sodipodi="http://sodipodi.sourceforge.net/DTD/sodipodi-0.dtd"
   xmlns="http://www.w3.org/2000/svg"
   xmlns:svg="http://www.w3.org/2000/svg">
  <sodipodi:namedview
     id="namedview561"
     pagecolor="#505050"
     bordercolor="#ffffff"
     borderopacity="1"
     inkscape:pageshadow="0"
     inkscape:pageopacity="0"
     inkscape:pagecheckerboard="1"
     inkscape:document-units="mm"
     showgrid="false"
     inkscape:zoom="0.77771465"
     inkscape:cx="23.787645"
     inkscape:cy="560.61693"
     inkscape:window-width="1718"
     inkscape:window-height="1368"
     inkscape:window-x="-7"
     inkscape:window-y="0"
     inkscape:window-maximized="0"
     inkscape:current-layer="layer1"
     units="mm" />
  <defs
     id="defs556" />
  <g
     inkscape:label="Layer 1"
     inkscape:groupmode="layer"
     id="layer1">
    <path
       id="path98"
       style="fill:#ffffff;fill-opacity:1;fill-rule:nonzero;stroke:none;stroke-width:0.0352778"
       d="m 50.239561,19.741868 c -1.368426,-1.409347 -3.118203,-2.326216 -5.021792,-2.650419 -0.369006,-3.308703 -3.183467,-5.889626 -6.588831,-5.889626 -0.772937,0 -1.528234,0.132292 -2.240492,0.387703 C 35.644437,9.6157336 34.380082,7.8497284 32.728023,6.505645 30.603948,4.7787977 27.923542,3.8270032 25.181048,3.8270032 c -3.197578,0 -6.203598,1.2456584 -8.464551,3.5059058 -2.261306,2.2613056 -3.506611,5.267326 -3.506611,8.464904 0,0.62865 -0.489303,1.138061 -1.115836,1.162755 -0.0053,0 -0.01094,3.53e-4 -0.01623,3.53e-4 -0.02505,3.53e-4 -0.06209,3.53e-4 -0.06914,3.53e-4 -0.0067,0 -0.01376,0 -0.02011,0 -2.3935977,0.03634 -4.6450256,0.989189 -6.3401229,2.683228 -1.7307279,1.731433 -2.6839335,4.033661 -2.6839335,6.482292 0,5.0546 4.111978,9.166931 9.1665784,9.166931 h 3.781425 v -2.651831 h -3.781426 c -3.592336,0 -6.5143945,-2.922411 -6.5143945,-6.5151 0,-1.740253 0.6769806,-3.376789 1.906764,-4.606925 1.2026195,-1.201914 2.7982335,-1.878895 4.4954475,-1.906764 0.08502,0 0.130528,-0.0011 0.160867,-0.0021 0.9906,-0.03387 1.916289,-0.445558 2.606675,-1.158522 0.693208,-0.715434 1.075267,-1.658056 1.075267,-2.654653 0,-5.138562 4.180417,-9.3186263 9.319331,-9.3186263 2.134658,0 4.220633,0.7401278 5.87375,2.0842112 1.630186,1.3257387 2.775656,3.1785281 3.225448,5.2168781 0.0956,0.433917 0.401461,0.790575 0.815975,0.950737 0.413455,0.160866 0.880533,0.103363 1.243189,-0.1524 0.671689,-0.474134 1.463322,-0.724959 2.289528,-0.724959 2.193572,0 3.977922,1.784703 3.977922,3.978275 0,0.111831 -0.0056,0.228248 -0.01552,0.34537 -0.03104,0.362303 0.0889,0.722136 0.330905,0.994128 0.241653,0.272344 0.584906,0.432505 0.948973,0.4445 1.695803,0.05292 3.281539,0.753533 4.465814,1.973439 1.187097,1.222022 1.840442,2.833158 1.840442,4.537428 0,3.592689 -2.922412,6.5151 -6.515101,6.5151 h -3.780719 v 2.651831 h 3.780719 c 5.054953,0 9.166931,-4.112331 9.166931,-9.166931 0,-2.397478 -0.919691,-4.665134 -2.589741,-6.384926" />
    <path
       id="path100"
       style="fill:#b89157;fill-opacity:1;fill-rule:nonzero;stroke:none;stroke-width:0.0352778"
       d="m 24.897062,30.017933 c 0,-0.0099 0,-0.02011 7.05e-4,-0.03034 7.06e-4,-0.006 7.06e-4,-0.01129 0.0021,-0.01623 0,-0.0053 0,-0.01094 3.53e-4,-0.01588 0.0011,-0.0074 0.0021,-0.01305 0.0032,-0.01975 0,-0.0042 0,-0.0081 0.0014,-0.01235 3.53e-4,-0.0067 0.0025,-0.01376 0.0032,-0.02081 7.05e-4,-0.0035 0.0018,-0.0067 0.0021,-0.01058 3.53e-4,-0.0067 0.0028,-0.01341 0.0046,-0.02117 3.52e-4,-0.0035 0.0011,-0.0064 0.0018,-0.0099 0.0018,-0.0064 0.0042,-0.01341 0.006,-0.01976 3.52e-4,-0.0039 0.0014,-0.0078 0.0032,-0.01164 0.0018,-0.006 0.0032,-0.01235 0.0056,-0.01799 0.0018,-0.0046 0.0025,-0.0088 0.0042,-0.0127 0.0021,-0.0056 0.0035,-0.01129 0.0067,-0.01658 0.0011,-0.0046 0.0032,-0.0095 0.0053,-0.01376 0.0014,-0.0046 0.0039,-0.0099 0.0049,-0.01482 0.0028,-0.0046 0.0053,-0.01023 0.0078,-0.01517 0.0021,-0.0042 0.0039,-0.0081 0.006,-0.01199 0.0032,-0.0056 0.0064,-0.01164 0.0088,-0.01729 0.0025,-0.0032 0.0035,-0.0071 0.0056,-0.0099 0.0032,-0.0064 0.0078,-0.01235 0.01058,-0.01835 0.0021,-0.0028 0.0039,-0.0053 0.0056,-0.0095 0.0042,-0.0053 0.0074,-0.01094 0.01094,-0.01764 0.0025,-0.0028 0.0042,-0.0056 0.0064,-0.0085 0.0042,-0.0063 0.0081,-0.01164 0.01199,-0.01729 0.0028,-0.0032 0.0056,-0.0067 0.0088,-0.0099 0.0035,-0.0049 0.0071,-0.0099 0.01129,-0.01517 0.0035,-0.0046 0.0074,-0.0081 0.01058,-0.01305 0.0039,-0.0039 0.0071,-0.0074 0.0099,-0.01129 0.0078,-0.0078 0.01517,-0.01623 0.02328,-0.02364 v 0 c 0.0067,-0.0074 0.01446,-0.01517 0.02364,-0.02222 0.0032,-0.0028 0.0081,-0.0071 0.01129,-0.01023 0.0046,-0.0035 0.0088,-0.0071 0.01235,-0.01058 0.0049,-0.0046 0.01094,-0.0088 0.01552,-0.01199 0.0039,-0.0025 0.0067,-0.0053 0.0095,-0.0078 0.006,-0.0046 0.01199,-0.0088 0.01764,-0.0127 0.0028,-0.0021 0.0056,-0.0039 0.0081,-0.0053 0.0067,-0.0046 0.0127,-0.0092 0.0194,-0.01199 0.0018,-0.0028 0.0053,-0.0035 0.0085,-0.0053 0.006,-0.0042 0.01199,-0.0074 0.01764,-0.01094 0.0035,-0.0018 0.0067,-0.0028 0.01023,-0.0053 0.0056,-0.0032 0.01199,-0.006 0.01764,-0.0092 0.0039,-0.0018 0.0078,-0.0039 0.01129,-0.0053 0.0056,-0.0032 0.01094,-0.0053 0.01623,-0.0074 0.0046,-0.0025 0.0085,-0.0039 0.01376,-0.006 0.0046,-0.0018 0.0099,-0.0039 0.01482,-0.006 0.0056,-0.0018 0.01058,-0.0039 0.01552,-0.006 0.0049,-0.0014 0.0088,-0.0025 0.01341,-0.0039 0.0049,-0.0028 0.01094,-0.0046 0.01764,-0.006 0.0042,-0.0011 0.0081,-0.0025 0.01199,-0.0042 0.006,-0.0011 0.01235,-0.0032 0.01834,-0.0049 0.0046,-3.53e-4 0.0092,-0.0011 0.01199,-0.0021 0.0074,-0.0014 0.01376,-0.0028 0.01976,-0.0046 0.0039,-0.0011 0.0085,-0.0011 0.0127,-0.0021 0.0064,-0.0011 0.01235,-0.0021 0.0194,-0.0032 0.0039,-7.05e-4 0.0085,-0.0011 0.01341,-0.0014 0.0056,-0.0011 0.01199,-0.0021 0.01834,-0.0025 0.0064,-3.53e-4 0.0127,-0.0018 0.01905,-0.0018 0.0042,0 0.0081,0 0.01164,-7.06e-4 0.01164,-7.05e-4 0.02328,-7.05e-4 0.03422,-7.05e-4 h 3.59022 c 0.362303,0 0.657225,0.293864 0.657225,0.656166 0,0.363361 -0.294922,0.657578 -0.657225,0.657578 h -2.00549 l 3.564467,3.564467 v 0 c 0.0085,0.0074 0.01588,0.01482 0.02223,0.02364 0.0046,0.0035 0.0067,0.0074 0.01023,0.01129 0.0028,0.0042 0.0074,0.0088 0.01129,0.01235 0.0039,0.0053 0.0081,0.01023 0.01199,0.01552 0.0018,0.0035 0.0049,0.0067 0.0074,0.0099 0.0046,0.0063 0.0088,0.01129 0.01235,0.01729 0.0014,0.0032 0.0042,0.0056 0.0056,0.0088 0.0042,0.0056 0.0085,0.01199 0.01164,0.01834 0.0025,0.0025 0.0042,0.0056 0.0067,0.0092 0.0028,0.0053 0.0056,0.01129 0.0088,0.01658 0.0028,0.0042 0.0049,0.0078 0.006,0.01129 0.0035,0.0056 0.0067,0.01094 0.0092,0.01693 0.0018,0.0042 0.0039,0.0081 0.006,0.01235 0.0025,0.0046 0.0046,0.01023 0.0074,0.01552 0.0018,0.0042 0.0042,0.0092 0.0056,0.01446 0.0021,0.0042 0.0042,0.0095 0.0056,0.01376 0.0018,0.0053 0.0042,0.01094 0.0064,0.01658 7.05e-4,0.0035 0.0028,0.0078 0.0035,0.01199 0.0025,0.0067 0.0042,0.0127 0.0071,0.01834 3.53e-4,0.0042 0.0011,0.0078 0.0032,0.01164 0.0018,0.006 0.0028,0.01305 0.0049,0.02046 3.53e-4,0.0028 0.0021,0.0063 0.0025,0.0099 0.0018,0.0067 0.0028,0.01341 0.0042,0.02046 7.05e-4,0.0039 0.0014,0.0074 0.0021,0.01023 0.0011,0.0078 0.0032,0.01446 0.0035,0.02152 3.53e-4,0.0039 7.06e-4,0.0085 0.0021,0.01164 7.05e-4,0.0071 0.0014,0.0134 0.0018,0.02011 0,0.0053 0.0011,0.01129 0.0011,0.01623 0.0011,0.0053 0.0011,0.0099 0.0011,0.01587 7.06e-4,0.0099 7.06e-4,0.02011 7.06e-4,0.02999 0,7.06e-4 0,0.0021 0,0.0025 v 0.0014 c 0,0.01058 0,0.02117 -7.06e-4,0.03104 0,0.0049 0,0.01058 -0.0011,0.01552 0,0.0056 -0.0011,0.01094 -0.0011,0.01588 -3.53e-4,0.0067 -0.0011,0.01411 -0.0018,0.01976 -0.0014,0.0046 -0.0018,0.0081 -0.0021,0.01199 -3.53e-4,0.0074 -0.0025,0.01376 -0.0035,0.02117 -7.05e-4,0.0035 -0.0014,0.0071 -0.0021,0.01058 -0.0014,0.0067 -0.0025,0.01376 -0.0042,0.02081 -3.52e-4,0.0028 -0.0021,0.0067 -0.0025,0.01023 -0.0021,0.0063 -0.0032,0.01305 -0.0049,0.02011 -0.0021,0.0039 -0.0028,0.0078 -0.0032,0.01094 -0.0028,0.0063 -0.0046,0.0127 -0.0071,0.01799 -7.06e-4,0.0042 -0.0028,0.0088 -0.0035,0.01305 -0.0021,0.0053 -0.0046,0.01129 -0.0064,0.01658 -0.0014,0.0049 -0.0035,0.0095 -0.0056,0.01376 -0.0014,0.0049 -0.0039,0.0095 -0.0056,0.01446 -0.0028,0.0053 -0.0049,0.01094 -0.0074,0.01552 -0.0021,0.0039 -0.0042,0.0085 -0.006,0.01199 -0.0025,0.0056 -0.0056,0.01129 -0.0092,0.01693 -0.0011,0.0032 -0.0032,0.0074 -0.006,0.01023 -0.0032,0.006 -0.006,0.01235 -0.0088,0.01834 -0.0025,0.0025 -0.0042,0.006 -0.0067,0.0092 -0.0032,0.0064 -0.0074,0.01129 -0.01164,0.01799 -0.0014,0.0025 -0.0042,0.0056 -0.0056,0.0085 -0.0035,0.006 -0.0078,0.01164 -0.01235,0.01729 -0.0025,0.0032 -0.0056,0.0067 -0.0074,0.0099 -0.0039,0.0049 -0.0081,0.01023 -0.01199,0.01482 -0.0039,0.0046 -0.0085,0.0085 -0.01129,0.01305 -0.0035,0.0042 -0.0056,0.0078 -0.01023,0.01164 -0.0064,0.0081 -0.01376,0.01623 -0.02223,0.02328 v 0 c -0.0078,0.0078 -0.01517,0.01588 -0.02328,0.02293 -0.0032,0.0032 -0.0078,0.0067 -0.01199,0.0099 -0.0039,0.0039 -0.0081,0.0074 -0.01164,0.01058 -0.0064,0.0042 -0.01094,0.0085 -0.01552,0.01235 -0.0032,0.0028 -0.0067,0.0049 -0.0095,0.0074 -0.0067,0.0046 -0.0127,0.0078 -0.01799,0.01235 -0.0035,0.0025 -0.006,0.0042 -0.0088,0.006 -0.006,0.0039 -0.01235,0.0081 -0.01799,0.01235 -0.0028,0.0014 -0.0056,0.0032 -0.0095,0.0049 -0.0056,0.0039 -0.01129,0.0074 -0.01764,0.01094 -0.0035,0.0014 -0.0067,0.0028 -0.01058,0.0049 -0.0049,0.0032 -0.01094,0.006 -0.01693,0.0092 -0.0032,0.0018 -0.0078,0.0039 -0.01094,0.0053 -0.0056,0.0025 -0.01094,0.0046 -0.01729,0.0078 -0.0032,0.0021 -0.0085,0.0039 -0.0127,0.0056 -0.0049,0.0025 -0.0099,0.0039 -0.01482,0.006 -0.0053,0.0018 -0.01023,0.0042 -0.01588,0.006 -0.0042,0.0014 -0.0081,0.0028 -0.01305,0.0042 -0.0049,0.0021 -0.01235,0.0042 -0.01764,0.006 -0.0042,0.0011 -0.0081,0.0021 -0.01129,0.0035 -0.0071,0.0014 -0.01376,0.0028 -0.02046,0.0049 -0.0032,0.0011 -0.0067,0.0021 -0.01023,0.0028 -0.0074,0.0011 -0.01411,0.0025 -0.02081,0.0042 -0.0035,7.05e-4 -0.0074,0.0014 -0.01094,0.0025 -0.0067,7.06e-4 -0.01305,0.0014 -0.02117,0.0028 -0.0039,3.53e-4 -0.0081,7.06e-4 -0.01235,0.0014 -0.0067,0.0011 -0.01235,0.0018 -0.01799,0.0021 -0.0064,0.0011 -0.01235,0.0011 -0.01764,0.0021 -0.0049,0 -0.0099,7.05e-4 -0.01482,7.05e-4 -0.01094,3.53e-4 -0.02258,0.0011 -0.03281,0.0011 h -1.304219 l 0.999419,1.494014 c 0.238125,0.377825 0.445912,0.717902 0.375356,0.809625 -0.05539,0.0695 -0.481542,-0.179917 -0.634647,-0.315384 l -2.791178,-2.181225 v 0 c -0.0067,-0.0071 -0.01446,-0.01517 -0.02187,-0.02328 -0.0032,-0.0039 -0.0056,-0.0074 -0.01023,-0.01164 -0.0028,-0.0046 -0.0074,-0.0085 -0.01058,-0.01305 -0.0042,-0.0046 -0.0081,-0.0099 -0.01235,-0.01482 -0.0025,-0.0032 -0.0042,-0.0067 -0.0071,-0.0099 -0.0046,-0.0056 -0.0085,-0.01129 -0.01235,-0.01729 -0.0021,-0.0028 -0.0042,-0.006 -0.006,-0.0085 -0.0042,-0.0067 -0.0078,-0.01164 -0.01199,-0.01799 -0.0025,-0.0032 -0.0046,-0.0067 -0.0053,-0.0092 -0.0032,-0.006 -0.0071,-0.01235 -0.01023,-0.01834 -0.0021,-0.0028 -0.0046,-0.0071 -0.0056,-0.01023 -0.0035,-0.0056 -0.0067,-0.01129 -0.0088,-0.01693 -0.0021,-0.0035 -0.0046,-0.0081 -0.006,-0.01199 -0.0025,-0.0046 -0.0053,-0.01023 -0.0074,-0.01552 -0.0018,-0.0049 -0.0039,-0.0095 -0.006,-0.01446 -0.0021,-0.0042 -0.0035,-0.0088 -0.006,-0.01411 -0.0021,-0.0049 -0.0039,-0.01094 -0.0053,-0.01623 -0.0021,-0.0042 -0.0039,-0.0088 -0.0049,-0.01305 -0.0018,-0.0053 -0.0039,-0.01164 -0.0056,-0.01799 -0.0011,-0.0032 -0.0025,-0.0071 -0.0035,-0.01094 -0.0011,-0.0071 -0.0035,-0.01376 -0.0046,-0.02011 -0.0014,-0.0035 -0.0014,-0.0074 -0.0021,-0.01023 -0.0021,-0.0071 -0.0042,-0.01411 -0.0053,-0.02081 -0.0011,-0.0035 -0.0018,-0.0071 -0.0018,-0.01058 -0.0021,-0.0074 -0.0025,-0.01376 -0.0032,-0.02117 -0.0011,-0.0039 -0.0021,-0.0074 -0.0021,-0.01199 -7.05e-4,-0.0056 -0.0018,-0.01305 -0.0018,-0.01976 -0.0011,-0.0049 -0.0011,-0.01023 -0.0021,-0.01588 0,-0.0049 -7.06e-4,-0.01058 -7.06e-4,-0.01552 -3.53e-4,-0.0099 -3.53e-4,-0.02046 -3.53e-4,-0.03104 v -0.0014 c 0,-3.52e-4 0,-0.0018 0,-0.0025 0,-0.0099 0,-0.02011 3.53e-4,-0.02999 0,-0.006 7.06e-4,-0.01058 7.06e-4,-0.01587 0.0011,-0.0049 0.0011,-0.01094 0.0021,-0.01623 0,-0.0067 0.0011,-0.01305 0.0018,-0.02011 0,-0.0032 0.0011,-0.0078 0.0021,-0.01164 7.05e-4,-0.0071 0.0011,-0.01376 0.0032,-0.02152 0,-0.0028 7.05e-4,-0.0063 0.0018,-0.01023 0.0011,-0.0071 0.0032,-0.01376 0.0053,-0.02046 7.06e-4,-0.0035 7.06e-4,-0.0071 0.0021,-0.0099 0.0011,-0.0074 0.0035,-0.01446 0.0046,-0.02046 0.0011,-0.0039 0.0025,-0.0074 0.0035,-0.01164 0.0018,-0.0056 0.0039,-0.01164 0.0056,-0.01834 0.0011,-0.0042 0.0028,-0.0085 0.0049,-0.01199 0.0014,-0.0056 0.0032,-0.01129 0.0053,-0.01658 0.0025,-0.0042 0.0039,-0.0095 0.006,-0.01376 0.0021,-0.0053 0.0042,-0.01023 0.006,-0.01446 0.0021,-0.0053 0.0049,-0.01094 0.0074,-0.01552 0.0014,-0.0042 0.0039,-0.0081 0.006,-0.01235 0.0021,-0.006 0.0053,-0.01129 0.0088,-0.01693 0.0011,-0.0035 0.0035,-0.0071 0.0056,-0.01129 0.0032,-0.0053 0.0071,-0.01129 0.01023,-0.01658 7.06e-4,-0.0035 0.0028,-0.0067 0.0053,-0.0092 0.0042,-0.0063 0.0078,-0.0127 0.01199,-0.01834 0.0018,-0.0032 0.0039,-0.0056 0.006,-0.0088 0.0039,-0.006 0.0078,-0.01094 0.01235,-0.01729 0.0028,-0.0032 0.0046,-0.0064 0.0071,-0.0099 0.0042,-0.0053 0.0081,-0.01023 0.01235,-0.01552 0.0032,-0.0035 0.0078,-0.0081 0.01058,-0.01235 0.0046,-0.0039 0.0071,-0.0078 0.01023,-0.01129 0.0074,-0.0088 0.01517,-0.01623 0.02187,-0.02364 v 0 c 0.0085,-0.0085 0.01729,-0.01552 0.02399,-0.02258 0.0039,-0.0032 0.0071,-0.0071 0.01164,-0.01023 0.0046,-0.0032 0.0081,-0.0078 0.01235,-0.01058 0.0056,-0.0046 0.01094,-0.0081 0.01587,-0.01235 0.0039,-0.0028 0.0074,-0.0053 0.01023,-0.0074 0.0053,-0.0039 0.01129,-0.0085 0.01693,-0.0127 0.0025,-0.0018 0.0056,-0.0035 0.0088,-0.0053 0.006,-0.0042 0.01235,-0.0085 0.01799,-0.01235 0.0028,-0.0014 0.0056,-0.0032 0.0088,-0.0053 0.006,-0.0039 0.01164,-0.0074 0.01835,-0.01023 0.0039,-0.0018 0.006,-0.0035 0.0099,-0.0056 0.0056,-0.0028 0.01129,-0.0056 0.01729,-0.0092 0.0039,-0.0011 0.0074,-0.0035 0.01164,-0.0053 0.0056,-0.0028 0.01058,-0.0056 0.01623,-0.0078 0.0053,-0.0014 0.0088,-0.0035 0.01376,-0.0053 0.0049,-0.0025 0.0099,-0.0039 0.01552,-0.0067 0.0042,-0.0014 0.0099,-0.0032 0.01482,-0.0049 0.0035,-0.0021 0.0088,-0.0032 0.01341,-0.0046 0.0056,-0.0021 0.01129,-0.0042 0.01693,-0.0063 0.0035,-7.06e-4 0.0078,-0.0018 0.01199,-0.0028 0.0063,-0.0018 0.01305,-0.0039 0.01905,-0.0053 0.0042,-0.0014 0.0074,-0.0018 0.01199,-0.0028 0.006,-0.0014 0.01305,-0.0035 0.01975,-0.0042 0.0039,-0.0011 0.0085,-0.0018 0.01199,-0.0025 0.0067,-3.53e-4 0.01305,-0.0018 0.01975,-0.0025 0.0042,-0.0014 0.0088,-0.0018 0.01411,-0.0028 0.0053,0 0.01094,-0.0014 0.01764,-0.0021 0.0056,0 0.01341,-7.06e-4 0.01905,-0.0021 0.0046,0 0.0085,0 0.01235,0 0.01129,-3.53e-4 0.02187,-7.06e-4 0.03351,-7.06e-4 h 1.303132 l -3.563409,-3.563494 v 0 c -0.0081,-0.0081 -0.01552,-0.01588 -0.02328,-0.02434 -0.0028,-0.0032 -0.006,-0.0074 -0.0099,-0.01094 -0.0032,-0.0049 -0.0071,-0.0092 -0.01058,-0.01305 -0.0042,-0.0049 -0.0078,-0.0099 -0.01129,-0.01517 -0.0032,-0.0039 -0.006,-0.0067 -0.0088,-0.0099 -0.0039,-0.0056 -0.0078,-0.01129 -0.01199,-0.01729 -0.0021,-0.0028 -0.0039,-0.006 -0.0064,-0.0092 -0.0035,-0.0056 -0.0067,-0.01129 -0.01094,-0.01799 -0.0018,-0.0025 -0.0035,-0.0056 -0.0056,-0.0092 -0.0028,-0.0053 -0.0074,-0.01129 -0.01058,-0.01729 -0.0021,-0.0035 -0.0032,-0.0067 -0.0056,-0.01058 -0.0025,-0.0053 -0.0056,-0.01094 -0.0088,-0.01729 -0.0021,-0.0035 -0.0039,-0.0067 -0.006,-0.01199 -0.0025,-0.0042 -0.0049,-0.0099 -0.0078,-0.01517 -0.0011,-0.0049 -0.0035,-0.0099 -0.0049,-0.01411 -0.0021,-0.0053 -0.0042,-0.0099 -0.0053,-0.01376 -0.0032,-0.006 -0.0046,-0.01199 -0.0067,-0.01693 -0.0018,-0.0035 -0.0025,-0.0081 -0.0042,-0.0127 -0.0025,-0.0053 -0.0039,-0.01235 -0.0056,-0.01799 -0.0018,-0.0039 -0.0028,-0.0078 -0.0032,-0.01129 -0.0018,-0.0063 -0.0042,-0.01305 -0.006,-0.02011 -7.05e-4,-0.0032 -0.0014,-0.0063 -0.0018,-0.01058 -0.0018,-0.0067 -0.0042,-0.01341 -0.0046,-0.02046 -3.52e-4,-0.0035 -0.0014,-0.0074 -0.0021,-0.01058 -7.06e-4,-0.0067 -0.0028,-0.01446 -0.0032,-0.02117 -0.0014,-0.0039 -0.0014,-0.0081 -0.0014,-0.01129 -0.0011,-0.0074 -0.0021,-0.01376 -0.0032,-0.02046 -3.53e-4,-0.0049 -3.53e-4,-0.01023 -3.53e-4,-0.01623 -0.0014,-0.0053 -0.0014,-0.01023 -0.0021,-0.01588 -7.05e-4,-0.0099 -7.05e-4,-0.01976 -7.05e-4,-0.03034 0,-3.53e-4 0,-7.06e-4 0,-0.0025 0,-3.52e-4 0,-7.05e-4 0,-0.0011" />
    <path
       id="path102"
       style="fill:#5c93a4;fill-opacity:1;fill-rule:nonzero;stroke:none;stroke-width:0.0352778"
       d="m 24.078617,32.988675 h -1.869722 l 1.322211,-1.321859 c 0.116417,-0.116769 0.116417,-0.305858 0,-0.422627 -0.117122,-0.117123 -0.306564,-0.117123 -0.422981,0 l -1.322211,1.321505 v -1.869017 c 0,-0.165452 -0.133703,-0.299155 -0.298803,-0.299155 -0.1651,0 -0.299155,0.133703 -0.299155,0.299155 v 1.869017 l -1.321859,-1.321505 c -0.116769,-0.117123 -0.305858,-0.117123 -0.42298,0 -0.116417,0.116769 -0.116417,0.305858 0,0.422627 l 1.322211,1.321859 h -1.869369 c -0.165453,0 -0.299156,0.133703 -0.299156,0.299508 0,0.164747 0.133703,0.298803 0.299156,0.298803 h 1.869369 l -1.322211,1.321858 c -0.116417,0.11677 -0.116417,0.306212 0,0.422628 0.05821,0.05856 0.134761,0.08784 0.211314,0.08784 0.07691,0 0.153105,-0.02928 0.211666,-0.08784 l 1.321859,-1.321505 v 1.869369 c 0,0.1651 0.134055,0.298803 0.299155,0.298803 0.1651,0 0.298803,-0.133703 0.298803,-0.298803 v -1.869369 l 1.322211,1.321505 c 0.05821,0.05856 0.134762,0.08784 0.211314,0.08784 0.07655,0 0.153106,-0.02928 0.211667,-0.08784 0.116417,-0.116416 0.116417,-0.305858 0,-0.422628 l -1.322211,-1.321858 h 1.869722 c 0.164747,0 0.298803,-0.134056 0.298803,-0.298803 0,-0.165805 -0.134056,-0.299508 -0.298803,-0.299508" />
    <path
       id="path104"
       style="fill:#5c93a4;fill-opacity:1;fill-rule:nonzero;stroke:none;stroke-width:0.0352778"
       d="m 36.346465,32.988675 h -1.869017 l 1.321859,-1.321859 c 0.116769,-0.116769 0.116769,-0.305858 0,-0.422627 -0.11677,-0.117123 -0.305859,-0.117123 -0.422981,0 l -1.321858,1.321505 v -1.869017 c 0,-0.165452 -0.134056,-0.299155 -0.299156,-0.299155 -0.164747,0 -0.298803,0.133703 -0.298803,0.299155 v 1.869017 l -1.321858,-1.321505 c -0.116769,-0.117123 -0.306211,-0.117123 -0.422981,0 -0.116769,0.116769 -0.116769,0.305858 0,0.422627 l 1.321859,1.321859 h -1.86937 c -0.165452,0 -0.299155,0.133703 -0.299155,0.299508 0,0.164747 0.133703,0.298803 0.299155,0.298803 h 1.86937 l -1.321859,1.321858 c -0.116769,0.11677 -0.116769,0.306212 0,0.422628 0.05821,0.05856 0.134762,0.08784 0.211314,0.08784 0.07655,0 0.153459,-0.02928 0.211667,-0.08784 l 1.321858,-1.321505 v 1.869369 c 0,0.1651 0.134056,0.298803 0.298803,0.298803 0.1651,0 0.299156,-0.133703 0.299156,-0.298803 v -1.869369 l 1.321858,1.321505 c 0.05856,0.05856 0.134761,0.08784 0.211667,0.08784 0.07655,0 0.153105,-0.02928 0.211314,-0.08784 0.116769,-0.116416 0.116769,-0.305858 0,-0.422628 l -1.321859,-1.321858 h 1.869017 c 0.165453,0 0.299509,-0.134056 0.299509,-0.298803 0,-0.165805 -0.134056,-0.299508 -0.299509,-0.299508" />
  </g>
</svg>
