<?xml version="1.0" encoding="UTF-8" standalone="no"?>
<!-- Created with Inkscape (http://www.inkscape.org/) -->

<svg
   width="57mm"
   height="40mm"
   viewBox="0 0 57 40"
   version="1.1"
   id="svg559"
   inkscape:version="1.1 (c68e22c387, 2021-05-23)"
   sodipodi:docname="wind-left.svg"
   xmlns:inkscape="http://www.inkscape.org/namespaces/inkscape"
   xmlns:sodipodi="http://sodipodi.sourceforge.net/DTD/sodipodi-0.dtd"
   xmlns="http://www.w3.org/2000/svg"
   xmlns:svg="http://www.w3.org/2000/svg">
  <sodipodi:namedview
     id="namedview561"
     pagecolor="#505050"
     bordercolor="#ffffff"
     borderopacity="1"
     inkscape:pageshadow="0"
     inkscape:pageopacity="0"
     inkscape:pagecheckerboard="1"
     inkscape:document-units="mm"
     showgrid="false"
     inkscape:zoom="0.77771465"
     inkscape:cx="23.787645"
     inkscape:cy="560.61693"
     inkscape:window-width="1718"
     inkscape:window-height="1368"
     inkscape:window-x="-7"
     inkscape:window-y="0"
     inkscape:window-maximized="0"
     inkscape:current-layer="layer1"
     units="mm" />
  <defs
     id="defs556" />
  <g
     inkscape:label="Layer 1"
     inkscape:groupmode="layer"
     id="layer1">
    <path
       id="path116"
       style="fill:#5c93a4;fill-opacity:1;fill-rule:nonzero;stroke:none;stroke-width:0.0352778"
       d="M 0.37512266,27.703678 8.3606009,23.553953 c 0.1467556,-7.06e-4 0.2656417,0.117122 0.2663473,0.263877 l 0.010936,2.583745 3.528e-4,0.171097 c 1.735666,0.193322 3.437114,0.674864 5.061303,1.442509 3.560586,1.682397 7.444671,1.569508 10.077451,1.179336 1.467556,-0.217664 2.723798,-0.545042 3.616326,-0.817739 0.89288,-0.27305 1.421341,-0.493184 1.431572,-0.497064 0.808567,-0.341842 1.740958,0.03669 2.083858,0.844903 0.3429,0.808566 -0.03528,1.742369 -0.844197,2.085975 -0.09701,0.04128 -2.416528,1.013883 -5.725936,1.517297 -1.295048,0.196497 -2.568576,0.295628 -3.805415,0.295628 -0.627944,0 -1.247069,-0.02575 -1.8542,-0.0762 C 16.389823,32.3547 14.256929,31.799075 12.339934,30.892436 11.138373,30.324817 9.906826,29.951931 8.6519954,29.773425 l 0.0127,3.001081 c 0.00106,0.146403 -0.117475,0.265642 -0.263525,0.265994 L 2.7944728,30.186175 -0.84090241,28.335856 0.37512266,27.703678" />
    <path
       id="path118"
       style="fill:#ffffff;fill-opacity:1;fill-rule:nonzero;stroke:none;stroke-width:0.0352778"
       d="M 53.925735,21.274285 C 52.557662,19.86529 50.807532,18.948421 48.903943,18.624218 48.534584,15.315515 45.720476,12.73424 42.314759,12.73424 c -0.772584,0 -1.527881,0.131939 -2.240492,0.387702 C 39.330611,11.147798 38.065903,9.3821446 36.413845,8.038414 34.290122,6.3108611 31.609716,5.3594194 28.866869,5.3594194 c -3.197578,0 -6.203245,1.2453056 -8.464198,3.5062585 -2.261305,2.2609531 -3.506611,5.2669731 -3.506611,8.4645511 0,0.62865 -0.489656,1.138061 -1.115836,1.162755 -0.0053,0 -0.01094,3.53e-4 -0.01658,3.53e-4 -0.02469,7.06e-4 -0.06174,7.06e-4 -0.06914,7.06e-4 -0.0067,0 -0.01305,0 -0.01976,0 -2.39395,0.03598 -4.645378,0.988836 -6.3401226,2.682875 -0.6455833,0.645936 -1.1832167,1.371247 -1.6030223,2.154414 l 2.5378839,0.907697 c 0.263525,-0.42545 0.57785,-0.824089 0.940153,-1.186391 1.201914,-1.201914 2.798586,-1.878895 4.495447,-1.907117 0.08537,0 0.130528,-0.0011 0.16122,-0.0021 0.990247,-0.03422 1.915583,-0.445558 2.606322,-1.158522 0.693208,-0.715434 1.07562,-1.658056 1.07562,-2.654653 0,-5.138209 4.180064,-9.3186261 9.318625,-9.3186261 2.135364,0 4.221339,0.739775 5.87375,2.0838591 1.630187,1.326091 2.775656,3.17888 3.225448,5.217583 0.0956,0.433564 0.401461,0.790223 0.815622,0.950737 0.414161,0.160161 0.880886,0.103011 1.243542,-0.152753 0.672042,-0.474134 1.463675,-0.724959 2.289528,-0.724959 2.193925,0 3.977922,1.784351 3.977922,3.97757 0,0.112536 -0.0046,0.2286 -0.01517,0.346075 -0.03105,0.362656 0.08855,0.722489 0.330553,0.994481 0.242005,0.271991 0.585258,0.432505 0.949325,0.443794 1.695803,0.05292 3.281539,0.754239 4.465814,1.973792 1.187097,1.222022 1.840442,2.833511 1.840442,4.537428 0,3.592689 -2.922764,6.5151 -6.514748,6.5151 h -31.53128 c -1.881364,0 -3.578578,-0.801863 -4.76885,-2.081036 L 8.4011704,33.0405 c 1.6679336,2.29235 4.3705646,3.785658 7.4164476,3.785658 h 31.53128 c 5.054953,0 9.166931,-4.112331 9.166931,-9.166931 0,-2.397831 -0.920044,-4.665134 -2.590094,-6.384925" />
  </g>
</svg>
