<?xml version="1.0" encoding="UTF-8" standalone="no"?>
<!-- Created with Inkscape (http://www.inkscape.org/) -->

<svg
   width="57mm"
   height="40mm"
   viewBox="0 0 57 40"
   version="1.1"
   id="svg559"
   inkscape:version="1.1 (c68e22c387, 2021-05-23)"
   sodipodi:docname="cloud.svg"
   xmlns:inkscape="http://www.inkscape.org/namespaces/inkscape"
   xmlns:sodipodi="http://sodipodi.sourceforge.net/DTD/sodipodi-0.dtd"
   xmlns="http://www.w3.org/2000/svg"
   xmlns:svg="http://www.w3.org/2000/svg">
  <sodipodi:namedview
     id="namedview561"
     pagecolor="#505050"
     bordercolor="#ffffff"
     borderopacity="1"
     inkscape:pageshadow="0"
     inkscape:pageopacity="0"
     inkscape:pagecheckerboard="1"
     inkscape:document-units="mm"
     showgrid="false"
     inkscape:zoom="0.77771465"
     inkscape:cx="23.787645"
     inkscape:cy="561.25984"
     inkscape:window-width="3440"
     inkscape:window-height="1377"
     inkscape:window-x="-8"
     inkscape:window-y="-8"
     inkscape:window-maximized="1"
     inkscape:current-layer="layer1"
     units="mm" />
  <defs
     id="defs556" />
  <g
     inkscape:label="Layer 1"
     inkscape:groupmode="layer"
     id="layer1">
    <path
       id="path96"
       style="fill:#ffffff;fill-opacity:1;fill-rule:nonzero;stroke:none;stroke-width:0.0353484"
       d="m 11.715263,19.444313 c -1.703832,0.02822 -3.306685,0.705203 -4.5138367,1.907117 -1.2347086,1.229783 -1.9144346,2.866318 -1.9144346,4.606924 0,3.592336 2.933972,6.514746 6.5407643,6.514746 h 31.657643 c 3.607077,0 6.540838,-2.92241 6.540838,-6.514746 0,-1.703917 -0.655956,-3.315405 -1.847459,-4.53778 -1.189012,-1.219553 -2.781453,-1.920522 -4.484045,-1.973439 -0.365175,-0.01164 -0.709799,-0.172156 -0.953131,-0.444147 -0.242977,-0.271992 -0.363046,-0.631473 -0.331525,-0.994481 0.01027,-0.117122 0.01523,-0.233186 0.01523,-0.345722 0,-2.192867 -1.791495,-3.977569 -3.993852,-3.977569 -0.829514,0 -1.624317,0.250825 -2.298695,0.724959 -0.364461,0.255411 -0.833055,0.312561 -1.248522,0.152752 -0.415465,-0.160866 -0.723255,-0.517172 -0.819242,-0.951089 -0.451238,-2.038349 -1.601294,-3.8914913 -3.23801,-5.2172293 -1.659381,-1.344083 -3.753709,-2.084211 -5.89727,-2.084211 -5.159102,0 -9.3564,4.1804163 -9.3564,9.3186233 0,0.996597 -0.383375,1.939572 -1.079572,2.655006 -0.693327,0.712964 -1.623077,1.12395 -2.616864,1.158169 -0.03085,0.0011 -0.07611,0.0021 -0.161619,0.0021 z M 43.485399,35.124931 H 11.827756 c -5.0748767,0 -9.2037094,-4.11233 -9.2037094,-9.166577 0,-2.448631 0.9571637,-4.751563 2.6950341,-6.482291 1.7014963,-1.694392 3.9622572,-2.647245 6.3654763,-2.682875 0.0067,-3.53e-4 0.01343,-3.53e-4 0.02005,-3.53e-4 0.0071,0 0.04417,0 0.06921,-3.53e-4 0.0054,-3.53e-4 0.01119,-3.53e-4 0.01657,-3.53e-4 0.62844,-0.02505 1.120269,-0.534458 1.120269,-1.163108 0,-3.197224 1.250184,-6.2032433 3.520475,-8.4645483 2.270397,-2.260953 5.288204,-3.505905 8.498585,-3.505905 2.753478,0 5.444263,0.951441 7.576843,2.678641 1.659027,1.34373 2.928446,3.110088 3.675079,5.0835273 0.715464,-0.255763 1.473786,-0.387702 2.249817,-0.387702 3.419354,0 6.24438,2.581274 6.615219,5.889976 1.911213,0.324203 3.668351,1.241072 5.042251,2.650067 1.676738,1.720144 2.600121,3.987446 2.600121,6.385277 0,5.054247 -4.128808,9.166577 -9.203649,9.166577" />
  </g>
</svg>
