<?xml version="1.0" encoding="UTF-8" standalone="no"?>
<!-- Generator: Adobe Illustrator 19.0.0, SVG Export Plug-In . SVG Version: 6.00 Build 0)  -->

<svg
   version="1.1"
   id="Layer_1"
   x="0px"
   y="0px"
   viewBox="0 0 193.167 193.167"
   style="enable-background:new 0 0 193.167 193.167;"
   xml:space="preserve"
   sodipodi:docname="dayNight.svg"
   inkscape:version="1.1 (c68e22c387, 2021-05-23)"
   xmlns:inkscape="http://www.inkscape.org/namespaces/inkscape"
   xmlns:sodipodi="http://sodipodi.sourceforge.net/DTD/sodipodi-0.dtd"
   xmlns="http://www.w3.org/2000/svg"
   xmlns:svg="http://www.w3.org/2000/svg"><defs
   id="defs59" /><sodipodi:namedview
   id="namedview57"
   pagecolor="#505050"
   bordercolor="#ffffff"
   borderopacity="1"
   inkscape:pageshadow="0"
   inkscape:pageopacity="0"
   inkscape:pagecheckerboard="1"
   showgrid="false"
   inkscape:zoom="4.5194053"
   inkscape:cx="96.583504"
   inkscape:cy="96.583504"
   inkscape:window-width="3440"
   inkscape:window-height="1377"
   inkscape:window-x="-8"
   inkscape:window-y="-8"
   inkscape:window-maximized="1"
   inkscape:current-layer="Layer_1" />
<g
   id="g24"
   transform="rotate(180,96.5835,96.5835)">
	<g
   id="g22">
		<g
   id="g20">
			<path
   d="m 136.114,103.715 c -17.697,0 -32.092,14.397 -32.092,32.092 0,17.695 14.396,32.092 32.092,32.092 17.696,0 32.092,-14.397 32.092,-32.092 0,-17.695 -14.396,-32.092 -32.092,-32.092 z m 0,57.053 c -13.762,0 -24.961,-11.197 -24.961,-24.961 0,-13.764 11.199,-24.961 24.961,-24.961 13.762,0 24.961,11.197 24.961,24.961 0,13.764 -11.2,24.961 -24.961,24.961 z"
   id="path2" />
			<path
   d="m 189.601,132.241 h -14.263 c -1.971,0 -3.566,1.597 -3.566,3.566 0,1.969 1.595,3.566 3.566,3.566 h 14.263 c 1.971,0 3.566,-1.597 3.566,-3.566 0,-1.969 -1.595,-3.566 -3.566,-3.566 z"
   id="path4" />
			<path
   d="m 135.501,171.465 c -1.971,0 -3.566,1.597 -3.566,3.566 v 14.263 c 0,1.969 1.595,3.566 3.566,3.566 1.971,0 3.566,-1.597 3.566,-3.566 v -14.263 c 0,-1.969 -1.595,-3.566 -3.566,-3.566 z"
   id="path6" />
			<path
   d="m 167.161,161.813 c -1.393,-1.393 -3.649,-1.393 -5.042,0 -1.393,1.391 -1.393,3.649 0,5.042 l 10.084,10.086 c 0.696,0.696 1.609,1.045 2.521,1.045 0.912,0 1.825,-0.348 2.521,-1.045 1.393,-1.391 1.393,-3.649 0,-5.042 z"
   id="path8" />
			<path
   d="m 172.204,97.628 -10.084,10.086 c -1.393,1.393 -1.393,3.651 0,5.042 0.696,0.696 1.609,1.045 2.521,1.045 0.912,0 1.825,-0.348 2.521,-1.045 l 10.084,-10.086 c 1.393,-1.393 1.393,-3.651 0,-5.042 -1.393,-1.393 -3.65,-1.393 -5.042,0 z"
   id="path10" />
			<path
   d="m 32.092,64.491 c 5.641,0 11.188,-1.485 16.05,-4.295 1.1,-0.637 1.779,-1.814 1.779,-3.087 0,-1.273 -0.679,-2.45 -1.779,-3.087 -7.699,-4.454 -12.484,-12.738 -12.484,-21.623 0,-8.885 4.785,-17.169 12.484,-21.623 1.1,-0.637 1.779,-1.814 1.779,-3.087 0,-1.273 -0.679,-2.45 -1.779,-3.087 C 43.281,1.792 37.733,0.307 32.092,0.307 14.396,0.306 0,14.704 0,32.399 0,50.094 14.396,64.491 32.092,64.491 Z m 0,-57.053 c 2.427,0 4.833,0.353 7.139,1.039 -6.717,6.028 -10.705,14.725 -10.705,23.921 0,9.196 3.987,17.894 10.705,23.921 -2.305,0.686 -4.712,1.039 -7.139,1.039 C 18.33,57.358 7.131,46.161 7.131,32.397 7.131,18.633 18.33,7.438 32.092,7.438 Z"
   id="path12" />
			<path
   d="m 39.656,89.018 c -1.393,-1.393 -3.649,-1.393 -5.042,0 l -2.522,2.522 -2.52,-2.52 c -1.393,-1.393 -3.649,-1.393 -5.042,0 -1.393,1.393 -1.393,3.649 0,5.042 l 2.521,2.521 -2.521,2.521 c -1.393,1.393 -1.393,3.651 0,5.042 0.696,0.696 1.609,1.045 2.521,1.045 0.912,0 1.825,-0.348 2.521,-1.045 l 2.521,-2.521 2.521,2.521 c 0.696,0.696 1.609,1.045 2.521,1.045 0.912,0 1.825,-0.348 2.521,-1.045 1.393,-1.393 1.393,-3.649 0,-5.042 l -2.522,-2.522 2.522,-2.522 c 1.393,-1.392 1.393,-3.651 0,-5.042 z"
   id="path14" />
			<path
   d="m 69.84,28.833 -2.521,2.521 c -1.393,1.393 -1.393,3.651 0,5.042 0.696,0.696 1.609,1.045 2.521,1.045 0.912,0 1.825,-0.348 2.521,-1.045 l 2.521,-2.521 2.521,2.521 c 0.696,0.696 1.609,1.045 2.521,1.045 0.912,0 1.825,-0.348 2.521,-1.045 1.393,-1.393 1.393,-3.649 0,-5.042 l -2.522,-2.522 2.522,-2.522 c 1.393,-1.393 1.393,-3.651 0,-5.042 -1.393,-1.393 -3.649,-1.393 -5.042,0 l -2.522,2.522 -2.52,-2.52 c -1.393,-1.393 -3.649,-1.393 -5.042,0 -1.393,1.393 -1.393,3.649 0,5.042 z"
   id="path16" />
			<path
   d="m 176.786,5.559 c -1.393,-1.393 -3.649,-1.393 -5.042,0 L 4.858,172.447 c -1.393,1.393 -1.393,3.649 0,5.042 0.696,0.696 1.609,1.045 2.521,1.045 0.912,0 1.825,-0.348 2.521,-1.045 L 176.786,10.602 c 1.393,-1.393 1.393,-3.65 0,-5.043 z"
   id="path18" />
		</g>
	</g>
</g>
<g
   id="g26">
</g>
<g
   id="g28">
</g>
<g
   id="g30">
</g>
<g
   id="g32">
</g>
<g
   id="g34">
</g>
<g
   id="g36">
</g>
<g
   id="g38">
</g>
<g
   id="g40">
</g>
<g
   id="g42">
</g>
<g
   id="g44">
</g>
<g
   id="g46">
</g>
<g
   id="g48">
</g>
<g
   id="g50">
</g>
<g
   id="g52">
</g>
<g
   id="g54">
</g>
</svg>
