<?xml version="1.0" encoding="iso-8859-1"?>
<!-- Generator: Adobe Illustrator 19.0.0, SVG Export Plug-In . SVG Version: 6.00 Build 0)  -->
<svg version="1.1" id="Capa_1" xmlns="http://www.w3.org/2000/svg" xmlns:xlink="http://www.w3.org/1999/xlink" x="0px" y="0px"
	 viewBox="0 0 512 512" style="enable-background:new 0 0 512 512;" xml:space="preserve">
<g>
	<g>
		<path d="M437.017,74.979C392.055,30.019,333.311,3.854,270.313,0.405c-2.028-0.413-4.124-0.499-6.215-0.265
			C261.404,0.057,258.706,0,255.999,0C187.62,0,123.334,26.629,74.981,74.979C26.63,123.332,0.002,187.619,0.002,255.998
			S26.63,388.664,74.981,437.017c48.352,48.352,112.639,74.979,181.019,74.979c2.678,0,5.353-0.047,8.023-0.13
			c0.764,0.089,1.529,0.134,2.292,0.134c1.359,0,2.709-0.14,4.03-0.411c41.786-2.333,82.351-14.822,118.115-36.486
			c9.448-5.723,12.467-18.021,6.745-27.468c-5.723-9.449-18.022-12.468-27.468-6.745c-29.359,17.784-62.57,28.24-96.845,30.594
			c-21.972-13.72-112.89-78.789-112.89-215.486c0-56.357,15.026-106.415,44.714-149.13c0.319-0.42,0.63-0.844,0.912-1.282
			c3.987-5.66,8.222-11.197,12.727-16.595c22.312-26.738,44.945-42.452,54.549-48.469
			c112.174,7.682,201.095,101.383,201.095,215.475c0,42.589-12.665,84.043-36.626,119.884c-6.139,9.183-3.672,21.603,5.511,27.742
			c9.183,6.14,21.604,3.671,27.742-5.511c28.375-42.442,43.374-91.584,43.374-142.115
			C511.997,187.619,485.369,123.332,437.017,74.979z M40.402,268.988c0.96-0.668,1.883-1.414,2.74-2.27l82.898-82.891
			c-4.566,19.753-7.457,41.406-7.95,64.987l-69.047,69.047C44.363,302.234,41.409,285.87,40.402,268.988z M65.589,357.884
			l55.649-55.648c2.415,16.991,6.07,32.781,10.616,47.375l-43.019,43.018C80.018,381.862,72.222,370.231,65.589,357.884z
			 M186.897,450.127c4.394,5.196,8.793,10.022,13.127,14.499c-30.993-8.323-59.251-23.383-83.107-43.511l30.975-30.975
			C159.876,414.818,173.9,434.762,186.897,450.127z M186.896,61.869c-5.035,5.952-10.224,12.598-15.389,19.93L45.409,207.885
			c17.79-77.902,77.819-139.891,154.615-160.516C195.69,51.847,191.292,56.672,186.896,61.869z"/>
	</g>
</g>
<g>
</g>
<g>
</g>
<g>
</g>
<g>
</g>
<g>
</g>
<g>
</g>
<g>
</g>
<g>
</g>
<g>
</g>
<g>
</g>
<g>
</g>
<g>
</g>
<g>
</g>
<g>
</g>
<g>
</g>
</svg>
