<?xml version="1.0" encoding="UTF-8" standalone="no"?>
<!-- Created with Inkscape (http://www.inkscape.org/) -->

<svg
   width="57mm"
   height="40mm"
   viewBox="0 0 57 40"
   version="1.1"
   id="svg559"
   inkscape:version="1.1 (c68e22c387, 2021-05-23)"
   sodipodi:docname="night-drizzle.svg"
   xmlns:inkscape="http://www.inkscape.org/namespaces/inkscape"
   xmlns:sodipodi="http://sodipodi.sourceforge.net/DTD/sodipodi-0.dtd"
   xmlns="http://www.w3.org/2000/svg"
   xmlns:svg="http://www.w3.org/2000/svg">
  <sodipodi:namedview
     id="namedview561"
     pagecolor="#505050"
     bordercolor="#ffffff"
     borderopacity="1"
     inkscape:pageshadow="0"
     inkscape:pageopacity="0"
     inkscape:pagecheckerboard="1"
     inkscape:document-units="mm"
     showgrid="false"
     inkscape:zoom="0.77771465"
     inkscape:cx="251.37755"
     inkscape:cy="560.61693"
     inkscape:window-width="1718"
     inkscape:window-height="1368"
     inkscape:window-x="-7"
     inkscape:window-y="0"
     inkscape:window-maximized="0"
     inkscape:current-layer="layer1"
     units="mm" />
  <defs
     id="defs556" />
  <g
     inkscape:label="Layer 1"
     inkscape:groupmode="layer"
     id="layer1">
    <path
       id="path182"
       style="fill:#b89157;fill-opacity:1;fill-rule:nonzero;stroke:none;stroke-width:0.0352778"
       d="m 0.95852232,14.035122 c 0.08255,0.09172 0.16545298,0.184855 0.25188398,0.274108 0.159808,0.166511 0.326319,0.327025 0.49918,0.476956 1.285523,1.129947 2.941815,1.846439 4.765323,1.955094 0.156986,0.01305 0.316794,0.01658 0.476956,0.01658 4.3938467,0 7.9565497,-3.564114 7.9565497,-7.959373 0,-3.56482 -2.344561,-6.581422 -5.5781227,-7.595306 0.172862,0.198614 0.336198,0.402872 0.486481,0.61842 l 0.0035,0.0032 c 0.08608,0.117122 0.169333,0.243064 0.2462387,0.367241 0.779991,1.22802 1.231547,2.683228 1.231547,4.247092 0,4.394553 -3.5662307,7.957256 -7.9607837,7.957256 -0.160161,0 -0.322791,-0.0071 -0.480483,-0.01588 -0.657931,-0.03881 -1.294695,-0.156986 -1.89829798,-0.345369" />
    <path
       id="path184"
       style="fill:#5c93a4;fill-opacity:1;fill-rule:nonzero;stroke:none;stroke-width:0.0352778"
       d="m 26.024091,38.260726 c -0.376767,0 -0.752828,-0.144639 -1.038931,-0.436386 l -3.418064,-3.471334 c -0.56515,-0.5715 -0.558094,-1.49613 0.01658,-2.062339 0.573616,-0.564444 1.496836,-0.558094 2.06128,0.01552 l 3.420181,3.472744 c 0.564092,0.573617 0.557389,1.496484 -0.01552,2.062692 -0.28575,0.278695 -0.65652,0.4191 -1.025525,0.4191" />
    <path
       id="path186"
       style="fill:#5c93a4;fill-opacity:1;fill-rule:nonzero;stroke:none;stroke-width:0.0352778"
       d="m 29.191683,31.620742 c -0.37465,0 -0.753534,-0.144991 -1.038578,-0.436386 l -3.418064,-3.472744 c -0.565503,-0.572559 -0.557389,-1.497189 0.01517,-2.063751 0.574675,-0.564797 1.499306,-0.558447 2.064456,0.01552 l 3.418417,3.474861 c 0.564797,0.573617 0.55633,1.496836 -0.01693,2.062692 -0.284339,0.2794 -0.653697,0.419805 -1.024466,0.419805" />
    <path
       id="path188"
       style="fill:#5c93a4;fill-opacity:1;fill-rule:nonzero;stroke:none;stroke-width:0.0352778"
       d="m 38.844036,38.260726 c -0.377119,0 -0.753533,-0.144639 -1.039636,-0.436386 l -3.417006,-3.471334 c -0.565503,-0.5715 -0.559858,-1.49613 0.01482,-2.062339 0.573264,-0.564444 1.498247,-0.558094 2.063044,0.01552 l 3.418417,3.472744 c 0.565856,0.573617 0.559153,1.496484 -0.01588,2.062692 -0.28328,0.278695 -0.65405,0.4191 -1.023761,0.4191" />
    <path
       id="path190"
       style="fill:#ffffff;fill-opacity:1;fill-rule:nonzero;stroke:none;stroke-width:0.0352778"
       d="m 53.606376,20.505067 c -1.368425,-1.4097 -3.118203,-2.326923 -5.021792,-2.651478 -0.369359,-3.310467 -3.183467,-5.891037 -6.589184,-5.891037 -0.773289,0 -1.528233,0.131586 -2.240845,0.38735 C 39.011253,10.37611 37.746544,8.609752 36.094486,7.266374 33.970058,5.538821 31.290005,4.587732 28.54751,4.587732 c -3.197578,0 -6.203597,1.244953 -8.464197,3.505906 -2.261659,2.260953 -3.506965,5.266973 -3.506965,8.465609 0,0.629003 -0.489655,1.138061 -1.115836,1.163461 -0.0056,0 -0.01094,3.53e-4 -0.01658,3.53e-4 -0.0247,7.05e-4 -0.06174,3.53e-4 -0.06915,3.53e-4 -0.0063,0 -0.01305,0 -0.01975,3.52e-4 -2.393598,0.03598 -4.645026,0.988837 -6.3397697,2.683934 -1.731434,1.731786 -2.684286,4.035778 -2.684286,6.48582 0,5.056717 4.1119777,9.169048 9.1669307,9.169048 h 3.780719 v -2.652184 h -3.780719 c -3.592689,0 -6.5151007,-2.922764 -6.5151007,-6.516864 0,-1.741311 0.677686,-3.378553 1.9074697,-4.609395 1.201914,-1.202267 2.798233,-1.8796 4.495447,-1.907469 0.08502,0 0.130175,-0.0011 0.160867,-0.0021 0.990247,-0.03457 1.915936,-0.445911 2.606675,-1.159581 0.693209,-0.715433 1.074914,-1.658761 1.074914,-2.655711 0,-5.13962 4.180417,-9.319684 9.319331,-9.319684 2.134659,0 4.220987,0.740128 5.873751,2.084211 1.630186,1.326092 2.775655,3.178528 3.225447,5.217584 0.0956,0.433564 0.401461,0.790222 0.815622,0.950736 0.413809,0.160514 0.880887,0.103011 1.243542,-0.152753 0.672042,-0.474133 1.463675,-0.724958 2.289528,-0.724958 2.19322,0 3.97757,1.785408 3.97757,3.979686 0,0.112536 -0.0049,0.2286 -0.01517,0.345723 -0.03104,0.363008 0.0889,0.722841 0.330553,0.99448 0.242006,0.272697 0.585611,0.433564 0.949678,0.4445 1.695803,0.05327 3.281539,0.754592 4.465461,1.97485 1.18745,1.222375 1.840795,2.834923 1.840795,4.539898 0,3.5941 -2.922764,6.516864 -6.5151,6.516864 h -3.781073 v 2.652184 h 3.781073 c 5.0546,0 9.166931,-4.112331 9.166931,-9.169048 0,-2.398889 -0.920398,-4.667956 -2.589742,-6.388453" />
  </g>
</svg>
