<?xml version="1.0" encoding="UTF-8" standalone="no"?>
<!-- Created with Inkscape (http://www.inkscape.org/) -->

<svg
   width="57mm"
   height="40mm"
   viewBox="0 0 57 40"
   version="1.1"
   id="svg559"
   inkscape:version="1.1 (c68e22c387, 2021-05-23)"
   sodipodi:docname="snow.svg"
   xmlns:inkscape="http://www.inkscape.org/namespaces/inkscape"
   xmlns:sodipodi="http://sodipodi.sourceforge.net/DTD/sodipodi-0.dtd"
   xmlns="http://www.w3.org/2000/svg"
   xmlns:svg="http://www.w3.org/2000/svg">
  <sodipodi:namedview
     id="namedview561"
     pagecolor="#505050"
     bordercolor="#ffffff"
     borderopacity="1"
     inkscape:pageshadow="0"
     inkscape:pageopacity="0"
     inkscape:pagecheckerboard="1"
     inkscape:document-units="mm"
     showgrid="false"
     inkscape:zoom="0.77771465"
     inkscape:cx="251.37755"
     inkscape:cy="560.61693"
     inkscape:window-width="1718"
     inkscape:window-height="1368"
     inkscape:window-x="-7"
     inkscape:window-y="0"
     inkscape:window-maximized="0"
     inkscape:current-layer="layer1"
     units="mm" />
  <defs
     id="defs556" />
  <g
     inkscape:label="Layer 1"
     inkscape:groupmode="layer"
     id="layer1">
    <path
       id="path124"
       style="fill:#ffffff;fill-opacity:1;fill-rule:nonzero;stroke:none;stroke-width:0.0352778"
       d="m 50.579767,19.185374 c -1.368426,-1.408994 -3.118203,-2.325864 -5.021792,-2.650419 -0.369006,-3.308703 -3.183467,-5.889626 -6.588831,-5.889626 -0.772937,0 -1.528234,0.131939 -2.240492,0.387703 C 35.984643,9.0592401 34.720288,7.2928818 33.068229,5.9491512 30.944154,4.2223039 28.263748,3.2705093 25.521254,3.2705093 c -3.197578,0 -6.203598,1.2453057 -8.464551,3.5062586 -2.261306,2.2613062 -3.506611,5.2669721 -3.506611,8.4645501 0,0.62865 -0.489303,1.138062 -1.115836,1.162403 -0.0053,7.06e-4 -0.01094,7.06e-4 -0.01623,7.06e-4 -0.02505,7.05e-4 -0.06209,7.05e-4 -0.06914,7.05e-4 -0.0067,0 -0.01376,0 -0.02011,0 -2.3935978,0.03598 -4.6450257,0.988837 -6.340123,2.682876 -1.7307272,1.731433 -2.6839332,4.033661 -2.6839332,6.482997 0,5.053895 4.1119777,9.166579 9.1665782,9.166579 h 3.781424 V 32.0854 h -3.781425 c -3.5923361,0 -6.5143946,-2.922764 -6.5143946,-6.514395 0,-1.740958 0.6769806,-3.377847 1.906764,-4.607631 1.2026195,-1.201561 2.7982336,-1.878189 4.4954476,-1.906411 0.08502,0 0.130528,-0.0011 0.160867,-0.0025 0.9906,-0.03422 1.916289,-0.445559 2.606675,-1.15817 0.693208,-0.716139 1.075266,-1.658761 1.075266,-2.655006 0,-5.138208 4.180417,-9.3186252 9.319332,-9.3186252 2.134658,0 4.220633,0.7401279 5.87375,2.0842113 1.630186,1.325739 2.775656,3.1785279 3.225448,5.2175839 0.0956,0.432858 0.401461,0.789869 0.815975,0.950383 0.413455,0.160161 0.880533,0.103011 1.243189,-0.152753 0.671689,-0.474486 1.463322,-0.724958 2.289528,-0.724958 2.193572,0 3.977922,1.784703 3.977922,3.977922 0,0.111831 -0.0056,0.2286 -0.01552,0.34537 -0.03104,0.363361 0.0889,0.722489 0.330905,0.994833 0.241653,0.271992 0.584906,0.432506 0.948973,0.444148 1.695803,0.05256 3.281539,0.75318 4.465814,1.973086 1.187097,1.222375 1.840442,2.833864 1.840442,4.538486 0,3.591631 -2.922412,6.514395 -6.515101,6.514395 H 40.22186 v 2.652184 h 3.780719 c 5.054953,0 9.166931,-4.112684 9.166931,-9.166579 0,-2.398183 -0.919691,-4.665839 -2.589741,-6.385631" />
    <path
       id="path126"
       style="fill:#5c93a4;fill-opacity:1;fill-rule:nonzero;stroke:none;stroke-width:0.0352778"
       d="m 24.418823,32.323525 h -1.869722 l 1.322211,-1.321858 c 0.116416,-0.11677 0.116416,-0.305859 0,-0.422981 -0.117122,-0.116769 -0.306564,-0.116769 -0.422981,0 l -1.322211,1.321858 v -1.869016 c 0,-0.165806 -0.133703,-0.299509 -0.298803,-0.299509 -0.1651,0 -0.299155,0.133703 -0.299155,0.299509 v 1.869016 l -1.321859,-1.321858 c -0.116769,-0.116769 -0.305858,-0.116769 -0.42298,0 -0.116417,0.117122 -0.116417,0.306211 0,0.422981 l 1.322211,1.321858 h -1.86937 c -0.165452,0 -0.299155,0.133703 -0.299155,0.299156 0,0.1651 0.133703,0.298802 0.299155,0.298802 h 1.86937 l -1.322211,1.322212 c -0.116417,0.116416 -0.116417,0.306211 0,0.422627 0.05821,0.05856 0.134761,0.08749 0.211314,0.08749 0.07691,0 0.153105,-0.02893 0.211666,-0.08749 l 1.321859,-1.321505 v 1.869369 c 0,0.164395 0.134055,0.298803 0.299155,0.298803 0.1651,0 0.298803,-0.134408 0.298803,-0.298803 v -1.869369 l 1.322211,1.321505 c 0.05821,0.05856 0.134761,0.08749 0.211314,0.08749 0.07655,0 0.153106,-0.02893 0.211667,-0.08749 0.116416,-0.116416 0.116416,-0.306211 0,-0.422627 l -1.322211,-1.322212 h 1.869722 c 0.164747,0 0.298803,-0.133702 0.298803,-0.298802 0,-0.165453 -0.134056,-0.299156 -0.298803,-0.299156" />
    <path
       id="path128"
       style="fill:#5c93a4;fill-opacity:1;fill-rule:nonzero;stroke:none;stroke-width:0.0352778"
       d="m 36.686671,32.323525 h -1.869017 l 1.321859,-1.321858 c 0.116769,-0.11677 0.116769,-0.305859 0,-0.422981 -0.11677,-0.116769 -0.305859,-0.116769 -0.422981,0 l -1.321858,1.321858 v -1.869016 c 0,-0.165806 -0.134056,-0.299509 -0.299156,-0.299509 -0.164747,0 -0.298803,0.133703 -0.298803,0.299509 v 1.869016 l -1.321858,-1.321858 c -0.116769,-0.116769 -0.306211,-0.116769 -0.422981,0 -0.116769,0.117122 -0.116769,0.306211 0,0.422981 l 1.321859,1.321858 h -1.86937 c -0.165452,0 -0.299155,0.133703 -0.299155,0.299156 0,0.1651 0.133703,0.298802 0.299155,0.298802 h 1.86937 l -1.321859,1.322212 c -0.116769,0.116416 -0.116769,0.306211 0,0.422627 0.05821,0.05856 0.134762,0.08749 0.211314,0.08749 0.07655,0 0.153459,-0.02893 0.211667,-0.08749 l 1.321858,-1.321505 v 1.869369 c 0,0.164395 0.134056,0.298803 0.298803,0.298803 0.1651,0 0.299156,-0.134408 0.299156,-0.298803 v -1.869369 l 1.321858,1.321505 c 0.05856,0.05856 0.134761,0.08749 0.211667,0.08749 0.07655,0 0.153105,-0.02893 0.211314,-0.08749 0.116769,-0.116416 0.116769,-0.306211 0,-0.422627 l -1.321859,-1.322212 h 1.869017 c 0.165453,0 0.299509,-0.133702 0.299509,-0.298802 0,-0.165453 -0.134056,-0.299156 -0.299509,-0.299156" />
    <path
       id="path130"
       style="fill:#5c93a4;fill-opacity:1;fill-rule:nonzero;stroke:none;stroke-width:0.0352778"
       d="m 30.828796,25.420369 h -1.869723 l 1.321859,-1.321858 c 0.116769,-0.11677 0.116769,-0.306211 0,-0.422981 -0.11677,-0.117122 -0.306211,-0.117122 -0.422628,0 l -1.321858,1.321858 v -1.869369 c 0,-0.165453 -0.134409,-0.299156 -0.299156,-0.299156 -0.1651,0 -0.298803,0.133703 -0.298803,0.299156 v 1.869369 L 26.616276,23.67553 c -0.116417,-0.117122 -0.306211,-0.117122 -0.42298,0 -0.116417,0.11677 -0.116417,0.306211 0,0.422981 l 1.321858,1.321858 h -1.869017 c -0.165453,0 -0.299508,0.133703 -0.299508,0.29845 0,0.165453 0.134055,0.299508 0.299508,0.299508 h 1.869017 l -1.321858,1.321506 c -0.116417,0.117122 -0.116417,0.306211 0,0.422981 0.05821,0.05821 0.135113,0.08749 0.211666,0.08749 0.07655,0 0.153106,-0.02928 0.211314,-0.08749 l 1.322211,-1.321506 v 1.869017 c 0,0.165453 0.133703,0.299508 0.298803,0.299508 0.164747,0 0.299156,-0.134055 0.299156,-0.299508 v -1.869017 l 1.321858,1.321506 c 0.05821,0.05821 0.134761,0.08749 0.211314,0.08749 0.0762,0 0.153106,-0.02928 0.211314,-0.08749 0.116769,-0.11677 0.116769,-0.305859 0,-0.422981 l -1.321859,-1.321506 h 1.869723 c 0.164394,0 0.299155,-0.134055 0.299155,-0.299508 0,-0.164747 -0.134761,-0.29845 -0.299155,-0.29845" />
  </g>
</svg>
