<?xml version="1.0" encoding="UTF-8" standalone="no"?>
<!-- Created with Inkscape (http://www.inkscape.org/) -->

<svg
   width="57mm"
   height="40mm"
   viewBox="0 0 57 40"
   version="1.1"
   id="svg559"
   inkscape:version="1.1 (c68e22c387, 2021-05-23)"
   sodipodi:docname="storm.svg"
   xmlns:inkscape="http://www.inkscape.org/namespaces/inkscape"
   xmlns:sodipodi="http://sodipodi.sourceforge.net/DTD/sodipodi-0.dtd"
   xmlns="http://www.w3.org/2000/svg"
   xmlns:svg="http://www.w3.org/2000/svg">
  <sodipodi:namedview
     id="namedview561"
     pagecolor="#505050"
     bordercolor="#ffffff"
     borderopacity="1"
     inkscape:pageshadow="0"
     inkscape:pageopacity="0"
     inkscape:pagecheckerboard="1"
     inkscape:document-units="mm"
     showgrid="false"
     inkscape:zoom="0.77771465"
     inkscape:cx="251.37755"
     inkscape:cy="560.61693"
     inkscape:window-width="1718"
     inkscape:window-height="1368"
     inkscape:window-x="-7"
     inkscape:window-y="0"
     inkscape:window-maximized="0"
     inkscape:current-layer="layer1"
     units="mm" />
  <defs
     id="defs556" />
  <g
     inkscape:label="Layer 1"
     inkscape:groupmode="layer"
     id="layer1">
    <path
       id="path88"
       style="fill:#ffffff;fill-opacity:1;fill-rule:nonzero;stroke:none;stroke-width:0.0352778"
       d="m 50.919971,17.031475 c -1.36842,-1.408994 -3.1182,-2.325864 -5.02179,-2.650419 -0.36901,-3.308703 -3.18347,-5.8899778 -6.58883,-5.8899778 -0.77294,0 -1.52824,0.131939 -2.24049,0.388055 -0.74401,-1.973792 -2.00837,-3.740503 -3.66043,-5.083528 -2.124072,-1.727553 -4.804478,-2.678642 -7.546972,-2.678642 -3.197578,0 -6.203598,1.2446 -8.464551,3.505906 -2.261305,2.261306 -3.506611,5.266973 -3.506611,8.4649028 0,0.628298 -0.489303,1.137356 -1.115836,1.162403 -0.0053,3.53e-4 -0.01094,3.53e-4 -0.01623,3.53e-4 -0.02505,7.06e-4 -0.06209,7.06e-4 -0.06914,3.53e-4 -0.0067,0 -0.01376,3.53e-4 -0.02011,3.53e-4 -2.393597,0.03598 -4.6450246,0.988836 -6.3401216,2.682875 -1.730728,1.731433 -2.683934,4.033661 -2.683934,6.482645 0,5.0546 4.111978,9.166931 9.1665776,9.166931 h 3.781426 v -2.652184 h -3.781426 c -3.5923356,0 -6.5143936,-2.922764 -6.5143936,-6.514747 0,-1.740959 0.67698,-3.377142 1.906764,-4.607278 1.202619,-1.201914 2.7982326,-1.878542 4.4954466,-1.906412 0.08502,0 0.130528,-0.0011 0.160867,-0.0025 0.9906,-0.03422 1.916289,-0.445206 2.606675,-1.158522 0.693208,-0.715081 1.075267,-1.658056 1.075267,-2.654301 0,-5.1385608 4.180417,-9.3189778 9.319331,-9.3189778 2.134658,0 4.220633,0.740128 5.87375,2.084211 1.630181,1.326092 2.775651,3.178881 3.225451,5.2175838 0.0956,0.433211 0.40146,0.789869 0.81597,0.950383 0.41346,0.160161 0.88053,0.102659 1.24319,-0.152752 0.67169,-0.474134 1.46332,-0.724959 2.28953,-0.724959 2.19357,0 3.97792,1.78435 3.97792,3.978275 0,0.111831 -0.006,0.228248 -0.0155,0.34537 -0.0311,0.362655 0.0889,0.722136 0.3309,0.994128 0.24166,0.272344 0.58491,0.433211 0.94898,0.4445 1.6958,0.05292 3.28153,0.753886 4.46581,1.973439 1.1871,1.222022 1.84044,2.833864 1.84044,4.537781 0,3.591983 -2.92241,6.514747 -6.5151,6.514747 h -3.78072 v 2.652184 h 3.78072 c 5.05495,0 9.16693,-4.112331 9.16693,-9.166931 0,-2.398184 -0.91969,-4.665487 -2.58974,-6.385279" />
    <path
       id="path90"
       style="fill:#b89157;fill-opacity:1;fill-rule:nonzero;stroke:none;stroke-width:0.0352778"
       d="m 21.916345,24.746373 c 0,-0.0194 0,-0.03951 7.05e-4,-0.05997 0.0018,-0.01129 0.0018,-0.02081 0.0042,-0.03069 0,-0.01094 0,-0.02152 3.52e-4,-0.03175 0.0021,-0.0134 0.0039,-0.02575 0.0056,-0.03916 7.05e-4,-0.0074 7.05e-4,-0.01552 0.0035,-0.02293 0.0011,-0.01376 0.0049,-0.02716 0.0053,-0.04057 0.0021,-0.0074 0.0039,-0.01376 0.0046,-0.02081 0.0018,-0.01341 0.0056,-0.02716 0.0095,-0.04127 7.06e-4,-0.0071 0.0014,-0.0127 0.0028,-0.01976 0.0039,-0.0134 0.0085,-0.02611 0.0127,-0.0388 7.05e-4,-0.0074 0.0021,-0.01482 0.0056,-0.02222 0.0042,-0.0127 0.0063,-0.02399 0.01094,-0.03563 0.0035,-0.0085 0.0049,-0.01693 0.0081,-0.02434 0.0042,-0.01164 0.0071,-0.02152 0.01341,-0.0321 0.0021,-0.0099 0.006,-0.0187 0.01058,-0.02681 0.0021,-0.0095 0.0078,-0.01905 0.01023,-0.02857 0.0053,-0.0099 0.0099,-0.02046 0.01411,-0.03034 0.0046,-0.0088 0.0078,-0.01623 0.01164,-0.02434 0.0063,-0.01058 0.01235,-0.02187 0.01729,-0.03281 0.0049,-0.0067 0.0074,-0.01376 0.01199,-0.01976 0.0053,-0.01235 0.01376,-0.02399 0.02011,-0.03528 0.0039,-0.0053 0.0078,-0.01094 0.01058,-0.0187 0.0085,-0.01094 0.01446,-0.02223 0.02223,-0.03422 0.0046,-0.0064 0.0074,-0.01129 0.01199,-0.01764 0.0074,-0.01094 0.01517,-0.02222 0.02293,-0.03316 0.006,-0.0056 0.01199,-0.0127 0.01729,-0.0194 0.0074,-0.0095 0.01341,-0.01905 0.02223,-0.02963 0.0067,-0.0088 0.01446,-0.01588 0.02117,-0.02505 0.0078,-0.0078 0.01305,-0.01482 0.01905,-0.02187 0.01446,-0.01552 0.02963,-0.03104 0.04551,-0.04621 v 0 c 0.0127,-0.01482 0.02822,-0.02963 0.04586,-0.04374 0.0071,-0.0064 0.01552,-0.01341 0.02222,-0.02011 0.0085,-0.0067 0.01693,-0.01341 0.02434,-0.02046 0.0095,-0.0092 0.02081,-0.01658 0.03034,-0.02399 0.0067,-0.0042 0.0127,-0.01023 0.01799,-0.01446 0.01164,-0.0092 0.02293,-0.01764 0.03457,-0.02434 0.0056,-0.0042 0.01094,-0.0088 0.01623,-0.01094 0.0127,-0.0092 0.02434,-0.01764 0.03739,-0.02399 0.0039,-0.0042 0.01094,-0.0064 0.01623,-0.01058 0.01199,-0.0074 0.02469,-0.01376 0.03528,-0.02046 0.0067,-0.0039 0.0127,-0.0071 0.01976,-0.01023 0.01164,-0.0067 0.02328,-0.01199 0.03351,-0.01764 0.0088,-0.0042 0.01552,-0.0085 0.02328,-0.01129 0.01058,-0.006 0.02046,-0.0095 0.03104,-0.01341 0.0099,-0.0049 0.01693,-0.0085 0.02716,-0.0127 0.0092,-0.0032 0.01905,-0.0081 0.02928,-0.01129 0.01058,-0.0039 0.02011,-0.0071 0.02999,-0.01199 0.0099,-0.0028 0.01658,-0.0053 0.02575,-0.0081 0.01094,-0.0049 0.02117,-0.0085 0.03528,-0.01058 0.0078,-0.0021 0.01517,-0.0056 0.02293,-0.0085 0.0127,-0.0025 0.02469,-0.0063 0.03598,-0.0099 0.0092,-7.06e-4 0.01764,-0.0025 0.02399,-0.0042 0.01341,-0.0032 0.02611,-0.006 0.0381,-0.0081 0.0078,-0.0025 0.01623,-0.0025 0.02399,-0.0046 0.0127,-0.0025 0.02505,-0.0039 0.03881,-0.0071 0.0078,-0.0014 0.01623,-0.0021 0.02611,-0.0028 0.01094,-0.0018 0.02328,-0.0028 0.03528,-0.0039 0.01199,-7.05e-4 0.0254,-0.0035 0.03775,-0.0035 0.0074,-7.05e-4 0.01517,-7.05e-4 0.02258,-0.0014 0.02258,-0.0014 0.04621,-0.0014 0.06703,-0.0014 h 7.011811 c 0.707672,0 1.283406,0.57397 1.283406,1.281642 0,0.709436 -0.575734,1.284111 -1.283406,1.284111 h -3.916892 l 6.96207,6.961717 v 0 c 0.0155,0.01475 0.0303,0.02925 0.0434,0.04551 0.008,0.0081 0.0131,0.01514 0.0191,0.023 0.006,0.008 0.0148,0.01654 0.0222,0.02424 0.008,0.0099 0.0162,0.02014 0.0233,0.03006 0.005,0.007 0.01,0.01266 0.0145,0.01944 0.009,0.01199 0.0176,0.02286 0.0243,0.03348 0.003,0.0059 0.008,0.01129 0.0116,0.01792 0.008,0.01129 0.0162,0.02258 0.0226,0.03499 0.004,0.0052 0.008,0.01157 0.0127,0.01764 0.006,0.01129 0.0113,0.02328 0.0176,0.03348 0.005,0.0081 0.009,0.01446 0.0113,0.02152 0.007,0.01087 0.0127,0.0212 0.0176,0.0332 0.004,0.0081 0.008,0.01584 0.0123,0.02399 0.004,0.0095 0.009,0.01969 0.0138,0.02988 0.004,0.0085 0.008,0.01916 0.0117,0.02797 0.004,0.0091 0.008,0.0193 0.0109,0.02745 0.004,0.0099 0.008,0.02163 0.0127,0.0321 10e-4,0.0077 0.006,0.01584 0.007,0.02371 0.005,0.01295 0.008,0.02533 0.013,0.03552 7.1e-4,0.0086 0.002,0.01517 0.006,0.02261 0.004,0.01242 0.006,0.02579 0.01,0.04025 7e-4,0.0059 0.004,0.01266 0.005,0.01873 0.004,0.01404 0.006,0.02713 0.009,0.0412 7.1e-4,0.0074 0.002,0.01379 0.004,0.01983 0.002,0.01436 0.006,0.02812 0.007,0.04163 10e-4,0.0073 0.002,0.01655 0.004,0.02357 0.001,0.01267 0.003,0.02579 0.005,0.03845 0,0.01062 0.002,0.02233 0.002,0.03182 7e-4,0.0098 7e-4,0.01972 0.001,0.03059 10e-4,0.01986 10e-4,0.04025 10e-4,0.05927 0,0.0015 0,0.004 0,0.0047 v 0.0021 c 0,0.02191 0,0.04159 -10e-4,0.06131 -7.1e-4,0.0099 -7.1e-4,0.02011 -0.001,0.03073 0,0.0099 -0.002,0.02081 -0.002,0.0303 -0.002,0.01309 -0.004,0.02716 -0.005,0.03845 -0.002,0.0088 -0.002,0.01626 -0.004,0.02413 -7.1e-4,0.01432 -0.005,0.02674 -0.007,0.04008 -0.002,0.0081 -0.003,0.01489 -0.004,0.02124 -0.003,0.01379 -0.005,0.02755 -0.009,0.0412 -3.5e-4,0.0061 -0.004,0.01309 -0.005,0.01983 -0.004,0.01228 -0.006,0.02646 -0.01,0.03983 -0.004,0.0071 -0.005,0.0145 -0.006,0.02039 -0.005,0.01351 -0.008,0.02551 -0.013,0.03641 -10e-4,0.0077 -0.006,0.01693 -0.007,0.02466 -0.005,0.01062 -0.009,0.02233 -0.0127,0.03295 -0.003,0.0087 -0.007,0.01831 -0.0109,0.02603 -0.003,0.0102 -0.008,0.01902 -0.0117,0.02826 -0.005,0.0102 -0.01,0.02078 -0.0138,0.03059 -0.005,0.0078 -0.008,0.01626 -0.0123,0.023 -0.005,0.01199 -0.0106,0.0229 -0.0176,0.0339 -0.002,0.0064 -0.007,0.01337 -0.0113,0.01972 -0.006,0.01157 -0.012,0.02395 -0.0176,0.03566 -0.005,0.0048 -0.008,0.012 -0.0127,0.01792 -0.006,0.01171 -0.0148,0.02219 -0.0226,0.03461 -0.003,0.0056 -0.008,0.01157 -0.0116,0.01693 -0.007,0.01199 -0.0152,0.0229 -0.0243,0.0339 -0.005,0.0056 -0.01,0.01337 -0.0145,0.0193 -0.007,0.0096 -0.0155,0.01983 -0.0233,0.02935 -0.007,0.0088 -0.0159,0.01626 -0.0222,0.02466 -0.006,0.0085 -0.0109,0.01559 -0.0191,0.02304 -0.013,0.01542 -0.0279,0.03059 -0.0434,0.04572 v 0 c -0.0155,0.0145 -0.0303,0.03006 -0.0455,0.04452 -0.008,0.0059 -0.0152,0.01337 -0.024,0.01901 -0.007,0.0077 -0.0159,0.01489 -0.0226,0.02081 -0.0123,0.0088 -0.0215,0.01697 -0.03,0.02466 -0.007,0.0047 -0.0138,0.0092 -0.0191,0.01379 -0.0123,0.0092 -0.0247,0.01556 -0.0353,0.02438 -0.006,0.0043 -0.0113,0.0084 -0.0169,0.01132 -0.0116,0.0084 -0.0236,0.01651 -0.0353,0.02395 -0.006,0.0032 -0.0106,0.0071 -0.0176,0.0102 -0.0116,0.0074 -0.0229,0.01337 -0.03528,0.02081 -0.0071,0.0036 -0.0127,0.0068 -0.02011,0.01062 -0.01058,0.0059 -0.02223,0.01157 -0.03351,0.01722 -0.0067,0.0039 -0.01517,0.0079 -0.02223,0.01104 -0.0099,0.0046 -0.02046,0.0088 -0.03281,0.01446 -0.0071,0.0035 -0.01693,0.0084 -0.02505,0.01228 -0.0095,0.004 -0.0187,0.007 -0.02893,0.01058 -0.01058,0.0043 -0.02046,0.0086 -0.0314,0.01157 -0.0081,0.0033 -0.01552,0.0061 -0.02505,0.0081 -0.0099,0.0043 -0.02399,0.0079 -0.03457,0.01199 -0.0085,0.0022 -0.01623,0.0047 -0.02258,0.0067 -0.01376,0.0039 -0.02646,0.0061 -0.03951,0.0099 -0.0063,0.0018 -0.01376,0.0039 -0.02011,0.0053 -0.01446,0.002 -0.02716,0.0056 -0.04057,0.0088 -0.0067,0.0011 -0.01411,0.0022 -0.02152,0.0038 -0.0127,0.0022 -0.02611,0.0036 -0.04022,0.0068 -0.0088,6.7e-4 -0.01623,0.0014 -0.02469,0.002 -0.01376,0.0025 -0.02434,0.0043 -0.03598,0.005 -0.01235,0.0022 -0.02364,0.0022 -0.03387,0.0029 -0.0099,2.82e-4 -0.01905,0.0014 -0.02928,0.0014 -0.02117,7.06e-4 -0.04374,0.0021 -0.0635,0.0021 H 29.80279 l 1.95192,2.918954 c 0.465666,0.737659 0.871714,1.402574 0.733072,1.580727 -0.106892,0.136843 -0.939094,-0.350273 -1.239308,-0.615985 l -5.451123,-4.259792 v 0 c -0.01341,-0.01513 -0.02822,-0.0303 -0.04269,-0.04572 -0.0063,-0.0074 -0.01094,-0.0145 -0.01976,-0.02304 -0.0063,-0.0084 -0.01446,-0.01584 -0.02081,-0.02466 -0.0078,-0.0095 -0.01588,-0.01972 -0.02505,-0.02935 -0.0042,-0.0059 -0.0081,-0.01365 -0.01235,-0.0193 -0.0092,-0.01101 -0.01729,-0.02191 -0.02469,-0.0339 -0.0046,-0.0054 -0.0088,-0.01129 -0.01164,-0.01693 -0.0085,-0.01242 -0.01517,-0.0229 -0.02364,-0.03461 -0.0046,-0.0059 -0.0085,-0.01309 -0.0099,-0.01792 -0.0071,-0.01171 -0.01446,-0.02409 -0.02081,-0.03566 -0.0035,-0.0063 -0.0085,-0.01337 -0.01058,-0.01972 -0.0071,-0.01101 -0.01341,-0.02191 -0.01658,-0.0339 -0.0049,-0.0067 -0.0099,-0.01517 -0.0127,-0.023 -0.0046,-0.0098 -0.0099,-0.02039 -0.01446,-0.03059 -0.0032,-0.0092 -0.0081,-0.01806 -0.01094,-0.02826 -0.0042,-0.0077 -0.0074,-0.01736 -0.01199,-0.02716 -0.0042,-0.01058 -0.0081,-0.0212 -0.01094,-0.03182 -0.0039,-0.0077 -0.0074,-0.01697 -0.0092,-0.02466 -0.0039,-0.0109 -0.0081,-0.0229 -0.01164,-0.03641 -0.0021,-0.0059 -0.0039,-0.01333 -0.0071,-0.02039 -0.0021,-0.01337 -0.0056,-0.02755 -0.0081,-0.03983 -0.0028,-0.0067 -0.0039,-0.01376 -0.0046,-0.01983 -0.0042,-0.01365 -0.0074,-0.02741 -0.0099,-0.0412 -0.0021,-0.0063 -0.0032,-0.01309 -0.0039,-0.02124 -0.0039,-0.01333 -0.0049,-0.02575 -0.006,-0.04008 -0.0014,-0.0079 -0.0039,-0.01531 -0.0039,-0.02413 -0.0014,-0.01129 -0.0042,-0.02536 -0.0042,-0.03845 -0.0011,-0.0095 -0.0018,-0.02039 -0.0032,-0.0303 0,-0.01062 -0.0021,-0.02081 -0.0021,-0.03073 -7.05e-4,-0.01972 -7.05e-4,-0.0394 -7.05e-4,-0.06131 v -0.0021 c 0,-7.06e-4 0,-0.0032 0,-0.0047 0,-0.01901 0,-0.03941 7.05e-4,-0.05927 0,-0.01087 0.0021,-0.02078 0.0021,-0.03059 0.0014,-0.0095 0.0021,-0.0212 0.0032,-0.03182 0,-0.01266 0.0028,-0.02579 0.0042,-0.03845 0,-0.007 0.0025,-0.01626 0.0039,-0.02357 0.0011,-0.01351 0.0021,-0.02727 0.006,-0.04163 7.05e-4,-0.006 0.0018,-0.01238 0.0039,-0.01983 0.0025,-0.01407 0.0056,-0.02716 0.0099,-0.0412 7.06e-4,-0.0061 0.0018,-0.01281 0.0046,-0.01873 0.0025,-0.01446 0.006,-0.02783 0.0081,-0.04025 0.0032,-0.0074 0.0049,-0.01404 0.0071,-0.02261 0.0035,-0.01019 0.0078,-0.02258 0.01164,-0.03552 0.0018,-0.0079 0.0053,-0.01602 0.0092,-0.02371 0.0028,-0.01048 0.0067,-0.02219 0.01094,-0.0321 0.0046,-0.0081 0.0078,-0.01834 0.01199,-0.02745 0.0028,-0.0088 0.0078,-0.01944 0.01094,-0.02797 0.0046,-0.01019 0.0099,-0.02039 0.01446,-0.02988 0.0028,-0.0082 0.0078,-0.01587 0.0127,-0.02399 0.0032,-0.01199 0.0095,-0.02233 0.01658,-0.0332 0.0021,-0.0071 0.0071,-0.01337 0.01058,-0.02152 0.0063,-0.01019 0.01376,-0.02219 0.02081,-0.03348 0.0014,-0.0061 0.0053,-0.01242 0.0099,-0.01764 0.0085,-0.01242 0.01517,-0.02371 0.02364,-0.03499 0.0028,-0.0066 0.0071,-0.01199 0.01164,-0.01792 0.0074,-0.01062 0.01552,-0.02148 0.02469,-0.03348 0.0042,-0.0068 0.0081,-0.01242 0.01235,-0.01944 0.0092,-0.0099 0.01729,-0.02011 0.02505,-0.03006 0.0063,-0.0077 0.01446,-0.01626 0.02081,-0.02424 0.0088,-0.0079 0.01341,-0.01489 0.01976,-0.023 0.01446,-0.01626 0.02928,-0.03076 0.04269,-0.04551 v 0 c 0.01623,-0.01623 0.03316,-0.03002 0.04692,-0.04448 0.0067,-0.0056 0.01376,-0.0127 0.02293,-0.01972 0.0088,-0.0056 0.01552,-0.01404 0.02469,-0.02053 0.0099,-0.0084 0.02011,-0.01584 0.03069,-0.02357 0.0067,-0.0056 0.01376,-0.0102 0.01905,-0.01489 0.01058,-0.0077 0.02222,-0.01651 0.03281,-0.02466 0.0063,-0.0028 0.01129,-0.0074 0.01834,-0.01157 0.01094,-0.0063 0.02328,-0.01489 0.03457,-0.02261 0.006,-0.0029 0.01164,-0.0063 0.01729,-0.01058 0.01094,-0.0071 0.02293,-0.0145 0.03598,-0.01972 0.0063,-0.0047 0.01164,-0.0074 0.0187,-0.01129 0.01129,-0.0061 0.02293,-0.01171 0.03457,-0.01806 0.0071,-0.0025 0.01411,-0.0074 0.02223,-0.01019 0.01058,-0.0056 0.02152,-0.0109 0.0314,-0.01559 0.01023,-0.0025 0.01799,-0.0066 0.02646,-0.01058 0.01023,-0.0048 0.02046,-0.0073 0.02999,-0.01228 0.0092,-0.0032 0.02011,-0.0067 0.03034,-0.01062 0.0071,-0.0038 0.01658,-0.0059 0.02575,-0.0092 0.01094,-0.0028 0.02223,-0.0066 0.03316,-0.01044 0.0078,-0.0029 0.01517,-0.005 0.02364,-0.0068 0.01235,-0.0034 0.02575,-0.0074 0.03739,-0.01062 0.0078,-0.002 0.01446,-0.0031 0.02328,-0.0048 0.01129,-0.0033 0.0254,-0.0068 0.0381,-0.0082 0.0078,-0.0022 0.01729,-0.0036 0.02328,-0.0054 0.01376,-9.52e-4 0.02611,-0.0038 0.03916,-0.005 0.0085,-0.0025 0.01729,-0.0032 0.02752,-0.0049 0.01058,0 0.02152,-0.0032 0.03457,-0.0039 0.01094,-6.71e-4 0.0254,-0.0014 0.03669,-0.0034 0.0092,0 0.01658,-7.06e-4 0.02434,-7.06e-4 0.02223,-6.7e-4 0.04304,-0.0015 0.06526,-0.0015 h 2.545292 l -6.959247,-6.961646 v 0 c -0.01587,-0.01517 -0.03105,-0.03034 -0.04551,-0.04657 -0.006,-0.0067 -0.01129,-0.01446 -0.01905,-0.02152 -0.0067,-0.0092 -0.01446,-0.01764 -0.02117,-0.0254 -0.0088,-0.01023 -0.01482,-0.01976 -0.02223,-0.02963 -0.0053,-0.0074 -0.01129,-0.01305 -0.01729,-0.0194 -0.0078,-0.01058 -0.01552,-0.02293 -0.02293,-0.03387 -0.0046,-0.0053 -0.0074,-0.01164 -0.01199,-0.01799 -0.0078,-0.01094 -0.01376,-0.02258 -0.02223,-0.03457 -0.0028,-0.0056 -0.0067,-0.01129 -0.01058,-0.01764 -0.0063,-0.01164 -0.01482,-0.02293 -0.02011,-0.03422 -0.0046,-0.0071 -0.0071,-0.01341 -0.01199,-0.02046 -0.0049,-0.01129 -0.01094,-0.02222 -0.01729,-0.03351 -0.0039,-0.0078 -0.0071,-0.01482 -0.01164,-0.02364 -0.0042,-0.0095 -0.0088,-0.02011 -0.01411,-0.02999 -0.0025,-0.0099 -0.0081,-0.0194 -0.01023,-0.02752 -0.0046,-0.01023 -0.0085,-0.01905 -0.01058,-0.02752 -0.0063,-0.01199 -0.0092,-0.02258 -0.01341,-0.0321 -0.0032,-0.0071 -0.0046,-0.01658 -0.0081,-0.02505 -0.0046,-0.01129 -0.0067,-0.02434 -0.01094,-0.03563 -0.0035,-0.0081 -0.0049,-0.01482 -0.0056,-0.02187 -0.0042,-0.0127 -0.0088,-0.02575 -0.0127,-0.03951 -0.0014,-0.006 -0.0021,-0.01235 -0.0028,-0.02011 -0.0039,-0.0127 -0.0078,-0.02681 -0.0095,-0.04022 -7.05e-4,-0.0074 -0.0025,-0.01411 -0.0046,-0.02046 -3.53e-4,-0.01341 -0.0042,-0.02822 -0.0053,-0.04198 -0.0028,-0.0071 -0.0028,-0.01482 -0.0035,-0.02222 -0.0018,-0.01376 -0.0035,-0.02646 -0.0056,-0.03881 -3.52e-4,-0.01023 -3.52e-4,-0.02046 -3.52e-4,-0.03246 -0.0025,-0.01023 -0.0025,-0.02011 -0.0042,-0.03034 -7.05e-4,-0.02011 -7.05e-4,-0.03881 -7.05e-4,-0.05997 0,-7.05e-4 0,-0.0011 0,-0.0042 0,-3.53e-4 0,-0.0011 0,-0.0021" />
  </g>
</svg>
