<?xml version="1.0" encoding="UTF-8" standalone="no"?>
<!-- Created with Inkscape (http://www.inkscape.org/) -->

<svg
   width="57mm"
   height="40mm"
   viewBox="0 0 57 40"
   version="1.1"
   id="svg559"
   inkscape:version="1.1 (c68e22c387, 2021-05-23)"
   sodipodi:docname="sun-snow.svg"
   xmlns:inkscape="http://www.inkscape.org/namespaces/inkscape"
   xmlns:sodipodi="http://sodipodi.sourceforge.net/DTD/sodipodi-0.dtd"
   xmlns="http://www.w3.org/2000/svg"
   xmlns:svg="http://www.w3.org/2000/svg">
  <sodipodi:namedview
     id="namedview561"
     pagecolor="#505050"
     bordercolor="#ffffff"
     borderopacity="1"
     inkscape:pageshadow="0"
     inkscape:pageopacity="0"
     inkscape:pagecheckerboard="1"
     inkscape:document-units="mm"
     showgrid="false"
     inkscape:zoom="0.77771465"
     inkscape:cx="23.787645"
     inkscape:cy="560.61693"
     inkscape:window-width="1718"
     inkscape:window-height="1368"
     inkscape:window-x="-7"
     inkscape:window-y="0"
     inkscape:window-maximized="0"
     inkscape:current-layer="layer1"
     units="mm" />
  <defs
     id="defs556" />
  <g
     inkscape:label="Layer 1"
     inkscape:groupmode="layer"
     id="layer1">
    <path
       id="path106"
       style="fill:#e1b373;fill-opacity:1;fill-rule:nonzero;stroke:none;stroke-width:0.0352778"
       d="m 19.01347,7.8407828 c -2.078214,2.2239112 -3.218039,5.1075172 -3.218039,8.1668062 0,0.628297 -0.489656,1.137356 -1.116189,1.16205 -0.0056,0 -0.01094,0 -0.01623,3.53e-4 -0.02469,7.05e-4 -0.06209,7.05e-4 -0.06879,0 -0.0071,0 -0.01341,7.05e-4 -0.02046,7.05e-4 -2.393245,0.03634 -4.6453788,0.988836 -6.3397705,2.683228 -0.6392334,0.638881 -1.1726334,1.356431 -1.5903223,2.130425 -2.5459974,-1.69933 -4.2234559,-4.597753 -4.2234559,-7.887758 0,-5.2331064 4.2421531,-9.4756122 9.4749067,-9.4756122 2.83598,0 5.380919,1.2456584 7.11835,3.219803" />
    <path
       id="path108"
       style="fill:#ffffff;fill-opacity:1;fill-rule:nonzero;stroke:none;stroke-width:0.0352778"
       d="m 52.825105,19.5904 c -1.368425,-1.408994 -3.118203,-2.326217 -5.022145,-2.650419 -0.369005,-3.308703 -3.183114,-5.889626 -6.588831,-5.889626 -0.772583,0 -1.52788,0.131939 -2.240139,0.387703 C 38.229629,9.464619 36.965626,7.6979078 35.312862,6.3545299 33.189493,4.626977 30.509087,3.6755356 27.766593,3.6755356 c -3.197931,0 -6.203598,1.2456581 -8.464904,3.5059055 -2.261306,2.2609529 -3.506258,5.2676779 -3.506258,8.4649029 0,0.62865 -0.489656,1.138414 -1.116189,1.162756 -0.0056,0 -0.01094,0 -0.01623,3.53e-4 -0.02469,3.53e-4 -0.06209,3.53e-4 -0.06879,3.53e-4 -0.0071,0 -0.01341,0 -0.02046,0 -2.393245,0.03634 -4.645026,0.989189 -6.3397705,2.683228 -1.7310807,1.731786 -2.6839335,4.033661 -2.6839335,6.482292 0,5.0546 4.111978,9.166931 9.166225,9.166931 h 3.781426 v -2.652183 h -3.781426 c -3.59163,0 -6.5140415,-2.922059 -6.5140415,-6.514748 0,-1.740606 0.6769806,-3.376789 1.9067645,-4.606926 1.202266,-1.201561 2.798586,-1.878541 4.495447,-1.906764 0.08502,0 0.130175,-7.05e-4 0.160866,-0.0021 0.990953,-0.03387 1.915937,-0.445558 2.606323,-1.158522 0.693914,-0.715433 1.075619,-1.658408 1.075619,-2.654653 0,-5.138209 4.180065,-9.3189783 9.319332,-9.3189783 2.134658,0 4.220986,0.7404806 5.873044,2.0842113 1.630892,1.3260917 2.776362,3.178881 3.226153,5.217231 0.09525,0.433917 0.401109,0.790928 0.815623,0.951442 0.413808,0.160161 0.88018,0.103011 1.243894,-0.153106 0.671336,-0.474133 1.46297,-0.724958 2.288822,-0.724958 2.193573,0 3.977923,1.784703 3.977923,3.977922 0,0.112183 -0.0049,0.228247 -0.01517,0.345722 -0.03069,0.362656 0.08819,0.722137 0.330906,0.994481 0.2413,0.271639 0.584906,0.432153 0.94862,0.443794 1.695802,0.05327 3.281891,0.753887 4.466167,1.973792 1.187097,1.222023 1.840441,2.833159 1.840441,4.537429 0,3.592689 -2.922764,6.514748 -6.5151,6.514748 h -3.780367 v 2.652183 h 3.780367 c 5.0546,0 9.166931,-4.112331 9.166931,-9.166931 0,-2.397831 -0.919692,-4.665134 -2.589742,-6.384926" />
    <path
       id="path110"
       style="fill:#5c93a4;fill-opacity:1;fill-rule:nonzero;stroke:none;stroke-width:0.0352778"
       d="m 27.130181,33.960099 h -1.869722 l 1.321858,-1.321859 c 0.11677,-0.116769 0.11677,-0.305858 0,-0.42298 -0.116769,-0.11677 -0.305858,-0.11677 -0.42298,0 l -1.321506,1.321858 v -1.869369 c 0,-0.165453 -0.133703,-0.299156 -0.299155,-0.299156 -0.1651,0 -0.298803,0.133703 -0.298803,0.299156 v 1.869369 L 22.918014,32.21526 c -0.117122,-0.11677 -0.306211,-0.11677 -0.423333,0 -0.116769,0.117122 -0.116769,0.306211 0,0.42298 l 1.321858,1.321859 h -1.868664 c -0.165805,0 -0.299508,0.133703 -0.299508,0.299155 0,0.165453 0.133703,0.298803 0.299508,0.298803 h 1.868664 l -1.321858,1.322211 c -0.116769,0.11677 -0.116769,0.306211 0,0.422628 0.05891,0.05856 0.135114,0.08784 0.21202,0.08784 0.0762,0 0.152752,-0.02928 0.211313,-0.08784 l 1.321859,-1.321858 v 1.869722 c 0,0.164747 0.133703,0.29845 0.298803,0.29845 0.165452,0 0.299155,-0.133703 0.299155,-0.29845 v -1.869722 l 1.321506,1.321858 c 0.05891,0.05856 0.135467,0.08784 0.212019,0.08784 0.0762,0 0.152753,-0.02928 0.210961,-0.08784 0.11677,-0.116417 0.11677,-0.305858 0,-0.422628 l -1.321858,-1.322211 h 1.869722 c 0.1651,0 0.298803,-0.13335 0.298803,-0.298803 0,-0.165452 -0.133703,-0.299155 -0.298803,-0.299155" />
    <path
       id="path112"
       style="fill:#5c93a4;fill-opacity:1;fill-rule:nonzero;stroke:none;stroke-width:0.0352778"
       d="m 39.398382,33.960099 h -1.869369 l 1.322564,-1.321859 c 0.116063,-0.116769 0.116063,-0.305858 0,-0.42298 -0.117475,-0.11677 -0.30727,-0.11677 -0.423687,0 l -1.321505,1.321858 v -1.869369 c 0,-0.165453 -0.134409,-0.299156 -0.299156,-0.299156 -0.1651,0 -0.299508,0.133703 -0.299508,0.299156 v 1.869369 L 35.186215,32.21526 c -0.116416,-0.11677 -0.306211,-0.11677 -0.42298,0 -0.116417,0.117122 -0.116417,0.306211 0,0.42298 l 1.322564,1.321859 h -1.870076 c -0.164747,0 -0.299155,0.133703 -0.299155,0.299155 0,0.165453 0.134408,0.298803 0.299155,0.298803 h 1.870076 l -1.322564,1.322211 c -0.116417,0.11677 -0.116417,0.306211 0,0.422628 0.05856,0.05856 0.135114,0.08784 0.211314,0.08784 0.07726,0 0.153458,-0.02928 0.211666,-0.08784 l 1.321506,-1.321858 v 1.869722 c 0,0.164747 0.134408,0.29845 0.299508,0.29845 0.164747,0 0.299156,-0.133703 0.299156,-0.29845 v -1.869722 l 1.321505,1.321858 c 0.05821,0.05856 0.134762,0.08784 0.211667,0.08784 0.07655,0 0.153458,-0.02928 0.21202,-0.08784 0.116063,-0.116417 0.116063,-0.305858 0,-0.422628 l -1.322564,-1.322211 h 1.869369 c 0.1651,0 0.299508,-0.13335 0.299508,-0.298803 0,-0.165452 -0.134408,-0.299155 -0.299508,-0.299155" />
    <path
       id="path114"
       style="fill:#5c93a4;fill-opacity:1;fill-rule:nonzero;stroke:none;stroke-width:0.0352778"
       d="m 33.540154,27.05659 h -1.869722 l 1.321858,-1.321506 c 0.11677,-0.116416 0.11677,-0.305858 0,-0.42298 -0.116417,-0.117123 -0.305858,-0.117123 -0.422981,0 l -1.321505,1.321858 v -1.869369 c 0,-0.1651 -0.133703,-0.299156 -0.299156,-0.299156 -0.165453,0 -0.298803,0.134056 -0.298803,0.299156 v 1.869369 l -1.322211,-1.321858 c -0.116769,-0.117123 -0.305858,-0.117123 -0.42298,0 -0.116417,0.117122 -0.116417,0.306564 0,0.42298 l 1.321858,1.321506 h -1.869017 c -0.165452,0 -0.299155,0.134408 -0.299155,0.298803 0,0.165805 0.133703,0.299508 0.299155,0.299508 h 1.869017 l -1.321858,1.321506 c -0.116417,0.117122 -0.116417,0.306211 0,0.423333 0.05821,0.05821 0.135114,0.08714 0.211666,0.08714 0.07691,0 0.152753,-0.02893 0.211314,-0.08714 l 1.322211,-1.322211 v 1.869369 c 0,0.165453 0.13335,0.299156 0.298803,0.299156 0.165453,0 0.299156,-0.133703 0.299156,-0.299156 v -1.869369 l 1.321505,1.322211 c 0.05856,0.05821 0.135467,0.08714 0.211667,0.08714 0.07655,0 0.152753,-0.02893 0.211314,-0.08714 0.11677,-0.117122 0.11677,-0.306211 0,-0.423333 l -1.321858,-1.321506 h 1.869722 c 0.1651,0 0.298803,-0.133703 0.298803,-0.299508 0,-0.164395 -0.133703,-0.298803 -0.298803,-0.298803" />
  </g>
</svg>
