<?xml version="1.0" encoding="UTF-8" standalone="no"?>
<!-- Created with Inkscape (http://www.inkscape.org/) -->

<svg
   width="57mm"
   height="40mm"
   viewBox="0 0 57 40"
   version="1.1"
   id="svg559"
   inkscape:version="1.1 (c68e22c387, 2021-05-23)"
   sodipodi:docname="sun-drizzle.svg"
   xmlns:inkscape="http://www.inkscape.org/namespaces/inkscape"
   xmlns:sodipodi="http://sodipodi.sourceforge.net/DTD/sodipodi-0.dtd"
   xmlns="http://www.w3.org/2000/svg"
   xmlns:svg="http://www.w3.org/2000/svg">
  <sodipodi:namedview
     id="namedview561"
     pagecolor="#505050"
     bordercolor="#ffffff"
     borderopacity="1"
     inkscape:pageshadow="0"
     inkscape:pageopacity="0"
     inkscape:pagecheckerboard="1"
     inkscape:document-units="mm"
     showgrid="false"
     inkscape:zoom="0.77771465"
     inkscape:cx="251.37755"
     inkscape:cy="560.61693"
     inkscape:window-width="1718"
     inkscape:window-height="1368"
     inkscape:window-x="-7"
     inkscape:window-y="0"
     inkscape:window-maximized="0"
     inkscape:current-layer="layer1"
     units="mm" />
  <defs
     id="defs556" />
  <g
     inkscape:label="Layer 1"
     inkscape:groupmode="layer"
     id="layer1">
    <path
       id="path78"
       style="fill:#e1b373;fill-opacity:1;fill-rule:nonzero;stroke:none;stroke-width:0.0352778"
       d="m 19.012654,7.4048145 c -2.077967,2.223558 -3.217722,5.1075175 -3.217722,8.1661005 0,0.62865 -0.489338,1.137709 -1.115801,1.162403 -0.0054,0 -0.01104,0 -0.0164,7.06e-4 -0.02494,7.05e-4 -0.06216,7.05e-4 -0.06904,0 -0.007,0 -0.01365,7.05e-4 -0.02039,7.05e-4 -2.393668,0.03634 -4.6450958,0.988483 -6.3398048,2.682522 -0.639269,0.639587 -1.172422,1.356431 -1.590252,2.130426 -2.545927,-1.698625 -4.222997,-4.597048 -4.222997,-7.887406 0,-5.2331065 4.242012,-9.4752595 9.4745528,-9.4752595 2.836157,0 5.380955,1.245305 7.117857,3.219803" />
    <path
       id="path80"
       style="fill:#5c93a4;fill-opacity:1;fill-rule:nonzero;stroke:none;stroke-width:0.0352778"
       d="m 25.24278,36.904765 c -0.377119,0 -0.752827,-0.144569 -1.038578,-0.436704 l -3.418699,-3.471298 c -0.564726,-0.571606 -0.557706,-1.496131 0.01651,-2.062092 0.574252,-0.564727 1.49726,-0.558377 2.061634,0.01489 l 3.419828,3.473485 c 0.564092,0.573546 0.557389,1.496131 -0.01588,2.062233 -0.284692,0.278765 -0.655461,0.419489 -1.02482,0.419489" />
    <path
       id="path82"
       style="fill:#5c93a4;fill-opacity:1;fill-rule:nonzero;stroke:none;stroke-width:0.0352778"
       d="m 28.410372,30.264816 c -0.37465,0 -0.75318,-0.144709 -1.03893,-0.436704 L 23.95373,26.356744 c -0.565503,-0.5715 -0.557389,-1.496484 0.01482,-2.062339 0.575028,-0.564798 1.499658,-0.558448 2.064456,0.01517 l 3.418416,3.47345 c 0.564798,0.573264 0.557037,1.496096 -0.01693,2.061634 -0.284339,0.279047 -0.653697,0.420158 -1.024114,0.420158" />
    <path
       id="path84"
       style="fill:#5c93a4;fill-opacity:1;fill-rule:nonzero;stroke:none;stroke-width:0.0352778"
       d="m 38.06202,36.904765 c -0.376414,0 -0.753181,-0.144569 -1.039283,-0.436704 l -3.416653,-3.471298 c -0.565503,-0.571606 -0.560212,-1.496131 0.01517,-2.062092 0.572558,-0.564727 1.497542,-0.558377 2.062339,0.01489 l 3.41877,3.473485 c 0.565503,0.573546 0.559153,1.496131 -0.01658,2.062233 -0.282575,0.278765 -0.653344,0.419489 -1.023761,0.419489" />
    <path
       id="path86"
       style="fill:#ffffff;fill-opacity:1;fill-rule:nonzero;stroke:none;stroke-width:0.0352778"
       d="m 52.825065,19.154079 c -1.368425,-1.408642 -3.118555,-2.325864 -5.022497,-2.650067 -0.369006,-3.309055 -3.183114,-5.889625 -6.588831,-5.889625 -0.772936,0 -1.528586,0.131586 -2.240492,0.38735 -0.743656,-1.9734395 -2.007658,-3.7401505 -3.660422,-5.0835285 -2.124428,-1.727553 -4.804481,-2.678642 -7.546976,-2.678642 -3.197578,0 -6.203421,1.244953 -8.464656,3.505906 -2.261341,2.260953 -3.506259,5.2673255 -3.506259,8.4649035 0,0.628297 -0.48962,1.137709 -1.115801,1.162756 -0.0056,0 -0.01104,0 -0.0164,3.53e-4 -0.02494,3.52e-4 -0.06216,3.52e-4 -0.06904,3.52e-4 -0.0067,0 -0.01365,0 -0.02039,0 -2.393668,0.03634 -4.6450958,0.988837 -6.3398048,2.682876 -1.730834,1.731786 -2.683863,4.033661 -2.683863,6.482644 0,5.05453 4.11219,9.166861 9.1662958,9.166861 H 18.49739 V 32.05407 h -3.781461 c -3.592019,0 -6.5142538,-2.922376 -6.5142538,-6.514713 0,-1.740605 0.677157,-3.377141 1.9069048,-4.607278 1.202338,-1.201914 2.798375,-1.878189 4.496012,-1.906411 0.08502,-3.53e-4 0.129646,-0.0011 0.160797,-0.0021 0.99,-0.03422 1.915477,-0.445558 2.606146,-1.158875 0.693702,-0.71508 1.075443,-1.658408 1.075443,-2.6543 0,-5.138561 4.180417,-9.3189785 9.318872,-9.3189785 2.135011,0 4.220987,0.74048 5.873751,2.084211 1.630539,1.326092 2.775302,3.1788815 3.225447,5.2172315 0.0956,0.433917 0.401814,0.790222 0.815622,0.950736 0.414161,0.160514 0.880886,0.103011 1.243542,-0.153105 0.672042,-0.473781 1.463675,-0.724253 2.289528,-0.724253 2.193219,0 3.97757,1.78435 3.97757,3.978275 0,0.111831 -0.0046,0.227894 -0.01446,0.345017 -0.0314,0.362655 0.08819,0.722136 0.3302,0.994128 0.242005,0.272344 0.584905,0.432858 0.949325,0.4445 1.69545,0.05327 3.281892,0.753886 4.466167,1.973791 1.186039,1.222023 1.840089,2.833159 1.840089,4.537428 0,3.592337 -2.922764,6.514713 -6.514748,6.514713 h -3.781432 v 2.652148 h 3.781425 c 5.054248,0 9.166931,-4.112331 9.166931,-9.166861 0,-2.39783 -0.920044,-4.665486 -2.589742,-6.385278" />
  </g>
</svg>
