<?xml version="1.0" encoding="UTF-8" standalone="no"?>
<!-- Created with Inkscape (http://www.inkscape.org/) -->

<svg
   width="57mm"
   height="40mm"
   viewBox="0 0 57 40"
   version="1.1"
   id="svg559"
   inkscape:version="1.1 (c68e22c387, 2021-05-23)"
   sodipodi:docname="sun.svg"
   xmlns:inkscape="http://www.inkscape.org/namespaces/inkscape"
   xmlns:sodipodi="http://sodipodi.sourceforge.net/DTD/sodipodi-0.dtd"
   xmlns="http://www.w3.org/2000/svg"
   xmlns:svg="http://www.w3.org/2000/svg">
  <sodipodi:namedview
     id="namedview561"
     pagecolor="#505050"
     bordercolor="#ffffff"
     borderopacity="1"
     inkscape:pageshadow="0"
     inkscape:pageopacity="0"
     inkscape:pagecheckerboard="1"
     inkscape:document-units="mm"
     showgrid="false"
     inkscape:zoom="3.1108586"
     inkscape:cx="42.592743"
     inkscape:cy="125.36732"
     inkscape:window-width="1718"
     inkscape:window-height="1368"
     inkscape:window-x="0"
     inkscape:window-y="0"
     inkscape:window-maximized="0"
     inkscape:current-layer="layer1"
     units="mm" />
  <defs
     id="defs556" />
  <g
     inkscape:label="Layer 1"
     inkscape:groupmode="layer"
     id="layer1">
    <path
       id="path166"
       style="fill:#e1b373;fill-opacity:1;fill-rule:nonzero;stroke:none;stroke-width:0.0352774"
       d="m 33.982108,12.072846 c -2.07816,2.224264 -3.217955,5.107869 -3.217955,8.166453 0,0.62865 -0.489643,1.137356 -1.11616,1.162403 -0.0056,0 -0.01094,0 -0.01623,3.53e-4 -0.02469,7.05e-4 -0.06209,7.05e-4 -0.06879,0 -0.0071,0 -0.01341,7.05e-4 -0.02046,7.05e-4 -2.393184,0.03634 -4.645258,0.988836 -6.339604,2.683934 -0.639218,0.639939 -1.172604,1.357489 -1.590282,2.132189 -2.545931,-1.700037 -4.223347,-4.600223 -4.223347,-7.890229 0,-5.233105 4.242043,-9.4749052 9.474661,-9.4749052 2.835907,0 5.38078,1.2446002 7.118166,3.2190972" />
    <path
       id="path574"
       style="fill:#e1b373;fill-opacity:1;fill-rule:nonzero;stroke:none;stroke-width:0.0352774"
       d="m 19.571446,24.432801 c 2.07816,-2.224264 3.217955,-5.107869 3.217955,-8.166453 0,-0.62865 0.489643,-1.137356 1.11616,-1.162403 0.0056,0 0.01094,0 0.01623,-3.53e-4 0.02469,-7.05e-4 0.06209,-7.05e-4 0.06878,0 0.0071,0 0.01341,-7.05e-4 0.02046,-7.05e-4 2.393184,-0.03634 4.645258,-0.988836 6.339604,-2.683934 0.639218,-0.639939 1.172604,-1.357489 1.590282,-2.132189 2.545931,1.700037 4.223347,4.600223 4.223347,7.890229 0,5.233105 -4.242043,9.474906 -9.474661,9.474906 -2.835907,0 -5.38078,-1.2446 -7.118166,-3.219098" />
  </g>
</svg>
