<?xml version="1.0" encoding="UTF-8" standalone="no"?>
<!-- Created with Inkscape (http://www.inkscape.org/) -->

<svg
   width="57mm"
   height="40mm"
   viewBox="0 0 57 40"
   version="1.1"
   id="svg559"
   inkscape:version="1.1 (c68e22c387, 2021-05-23)"
   sodipodi:docname="sun.svg"
   xmlns:inkscape="http://www.inkscape.org/namespaces/inkscape"
   xmlns:sodipodi="http://sodipodi.sourceforge.net/DTD/sodipodi-0.dtd"
   xmlns="http://www.w3.org/2000/svg"
   xmlns:svg="http://www.w3.org/2000/svg">
  <sodipodi:namedview
     id="namedview561"
     pagecolor="#505050"
     bordercolor="#ffffff"
     borderopacity="1"
     inkscape:pageshadow="0"
     inkscape:pageopacity="0"
     inkscape:pagecheckerboard="1"
     inkscape:document-units="mm"
     showgrid="false"
     inkscape:zoom="3.1108586"
     inkscape:cx="42.592743"
     inkscape:cy="125.36732"
     inkscape:window-width="1718"
     inkscape:window-height="1368"
     inkscape:window-x="0"
     inkscape:window-y="0"
     inkscape:window-maximized="0"
     inkscape:current-layer="layer1"
     units="mm" />
  <defs
     id="defs556" />
  <g
     inkscape:label="Layer 1"
     inkscape:groupmode="layer"
     id="layer1">
    <path
       id="path166"
       style="fill:#e1b373;fill-opacity:1;fill-rule:nonzero;stroke:none;stroke-width:0.0352774"
       d="m 34.152211,13.348619 c -2.07816,2.224264 -3.217955,5.107869 -3.217955,8.166453 0,0.62865 -0.489643,1.137356 -1.11616,1.162403 -0.0056,0 -0.01094,0 -0.01623,3.53e-4 -0.02469,7.05e-4 -0.06209,7.05e-4 -0.06879,0 -0.0071,0 -0.01341,7.05e-4 -0.02046,7.05e-4 -2.393184,0.03634 -4.645258,0.988836 -6.339604,2.683934 -0.639218,0.639939 -1.172604,1.357489 -1.590282,2.132189 -2.545931,-1.700037 -4.223347,-4.600223 -4.223347,-7.890229 0,-5.233105 4.242043,-9.474905 9.474661,-9.474905 2.835907,0 5.38078,1.2446 7.118166,3.219097" />
    <path
       id="path574"
       style="fill:#e1b373;fill-opacity:1;fill-rule:nonzero;stroke:none;stroke-width:0.0352774"
       d="m 19.741549,25.708574 c 2.07816,-2.224264 3.217955,-5.107869 3.217955,-8.166453 0,-0.62865 0.489643,-1.137356 1.11616,-1.162403 0.0056,0 0.01094,0 0.01623,-3.53e-4 0.02469,-7.05e-4 0.06209,-7.05e-4 0.06878,0 0.0071,0 0.01341,-7.05e-4 0.02046,-7.05e-4 2.393184,-0.03634 4.645258,-0.988836 6.339604,-2.683934 0.639218,-0.639939 1.172604,-1.357489 1.590282,-2.132189 2.545931,1.700037 4.223347,4.600223 4.223347,7.890229 0,5.233105 -4.242043,9.474906 -9.474661,9.474906 -2.835907,0 -5.38078,-1.2446 -7.118166,-3.219098" />
    <path
       id="path152"
       style="fill:#e1b373;fill-opacity:1;fill-rule:nonzero;stroke:none;stroke-width:0.0352778"
       d="M 25.690416,8.1566493 C 25.42272,7.8945403 25.253688,7.5261172 25.253874,7.1179901 l -0.01225,-4.872705 c -0.004,-0.804708 0.648852,-1.46005476 1.454184,-1.46395905 0.806004,-0.001765 1.462238,0.65015185 1.463994,1.45515695 l 0.01174,4.8741819 c 0.0025,0.8052475 -0.649432,1.4594867 -1.455667,1.4630009 -0.398397,-3.96e-5 -0.760536,-0.1576242 -1.02546,-0.4170187" />
    <path
       id="path152-1"
       style="fill:#e1b373;fill-opacity:1;fill-rule:nonzero;stroke:none;stroke-width:0.0352778"
       d="m 26.03023,38.010083 c -0.267696,-0.262109 -0.436728,-0.630532 -0.436542,-1.038659 l -0.01225,-4.872705 c -0.004,-0.804708 0.648852,-1.460055 1.454184,-1.463959 0.806004,-0.0018 1.462238,0.650151 1.463994,1.455157 l 0.01174,4.874181 c 0.0025,0.805248 -0.649432,1.459487 -1.455667,1.463001 -0.398397,-3.9e-5 -0.760536,-0.157624 -1.02546,-0.417018" />
    <path
       id="path152-8"
       style="fill:#e1b373;fill-opacity:1;fill-rule:nonzero;stroke:none;stroke-width:0.0352778"
       d="m 38.791464,17.950333 c 0.262109,-0.267696 0.630532,-0.436728 1.038659,-0.436542 l 4.872705,-0.01225 c 0.804708,-0.004 1.460055,0.648852 1.463959,1.454184 0.0018,0.806004 -0.650152,1.462238 -1.455157,1.463994 l -4.874182,0.01174 c -0.805247,0.0025 -1.459487,-0.649432 -1.463001,-1.455667 4e-5,-0.398397 0.157624,-0.760536 0.417019,-1.02546" />
    <path
       id="path152-2"
       style="fill:#e1b373;fill-opacity:1;fill-rule:nonzero;stroke:none;stroke-width:0.0352778"
       d="m 14.705958,19.897605 c -0.262109,0.267695 -0.630532,0.436727 -1.038659,0.436541 l -4.8727049,0.01225 c -0.804708,0.004 -1.460055,-0.648852 -1.463959,-1.454184 -0.0018,-0.806004 0.650152,-1.462238 1.455157,-1.463994 l 4.8741819,-0.01174 c 0.805247,-0.0025 1.459487,0.649432 1.463001,1.455667 -4e-5,0.398397 -0.157624,0.760535 -0.417019,1.02546" />
    <path
       id="path152-6-5"
       style="fill:#e1b373;fill-opacity:1;fill-rule:nonzero;stroke:none;stroke-width:0.0352778"
       d="m 40.843384,32.721872 c -0.37328,0.03199 -0.762812,-0.08012 -1.072079,-0.346446 l -3.701867,-3.168531 c -0.612639,-0.521771 -0.683673,-1.444078 -0.161422,-2.057127 0.524285,-0.612185 1.446488,-0.684479 2.057887,-0.160813 l 3.702655,3.16988 c 0.612068,0.523261 0.682863,1.444148 0.159727,2.057627 -0.259852,0.301989 -0.615487,0.473746 -0.984903,0.50541" />
    <path
       id="path152-6-5-0"
       style="fill:#e1b373;fill-opacity:1;fill-rule:nonzero;stroke:none;stroke-width:0.0352778"
       d="m 16.093345,11.373862 c -0.37328,0.03199 -0.762812,-0.08012 -1.072079,-0.346446 L 11.319399,7.8588846 c -0.612639,-0.521771 -0.683673,-1.444078 -0.161422,-2.057127 0.524285,-0.612185 1.446488,-0.684479 2.057887,-0.160813 l 3.702655,3.16988 c 0.612068,0.523261 0.682863,1.4441484 0.159727,2.0576274 -0.259852,0.301989 -0.615487,0.473746 -0.984903,0.50541" />
    <path
       id="path152-6-5-0-0"
       style="fill:#e1b373;fill-opacity:1;fill-rule:nonzero;stroke:none;stroke-width:0.0352778"
       d="m 35.489541,9.5443757 c -0.03199,-0.37328 0.08012,-0.762812 0.346446,-1.072079 l 3.168532,-3.7018666 c 0.52177,-0.612639 1.444077,-0.683673 2.057126,-0.161422 0.612185,0.524285 0.684479,1.446488 0.160813,2.057887 L 38.052579,10.36955 c -0.523261,0.612068 -1.444149,0.682863 -2.057628,0.159727 -0.301989,-0.259852 -0.473746,-0.6154873 -0.50541,-0.9849033" />
    <path
       id="path152-6-5-0-0-2"
       style="fill:#e1b373;fill-opacity:1;fill-rule:nonzero;stroke:none;stroke-width:0.0352778"
       d="m 12.440572,32.678396 c -0.03199,-0.37328 0.08012,-0.762812 0.346446,-1.072079 L 15.95555,27.90445 c 0.52177,-0.612639 1.444077,-0.683673 2.057126,-0.161422 0.612185,0.524285 0.684479,1.446488 0.160813,2.057887 l -3.169879,3.702656 c -0.523261,0.612068 -1.444149,0.682863 -2.057628,0.159727 -0.301989,-0.259852 -0.473746,-0.615488 -0.50541,-0.984904" />
  </g>
</svg>
