<?xml version="1.0" encoding="UTF-8" standalone="no"?>
<!-- Generator: Adobe Illustrator 19.0.0, SVG Export Plug-In . SVG Version: 6.00 Build 0)  -->

<svg
   version="1.1"
   id="Capa_1"
   x="0px"
   y="0px"
   viewBox="0 0 400.006 512.006"
   style="enable-background:new 0 0 512.006 512.006;"
   xml:space="preserve"
   sodipodi:docname="thermometerHot.svg"
   inkscape:version="1.1 (c68e22c387, 2021-05-23)"
   xmlns:inkscape="http://www.inkscape.org/namespaces/inkscape"
   xmlns:sodipodi="http://sodipodi.sourceforge.net/DTD/sodipodi-0.dtd"
   xmlns:xlink="http://www.w3.org/1999/xlink"
   xmlns="http://www.w3.org/2000/svg"
   xmlns:svg="http://www.w3.org/2000/svg"><defs
   id="defs135"><linearGradient
     inkscape:collect="always"
     id="linearGradient3798"><stop
       style="stop-color:#ff2a2a;stop-opacity:1;"
       offset="0"
       id="stop3794" /><stop
       style="stop-color:#ff2a2a;stop-opacity:0;"
       offset="1"
       id="stop3796" /></linearGradient><linearGradient
     inkscape:collect="always"
     xlink:href="#linearGradient3798"
     id="linearGradient3800"
     x1="148.8819"
     y1="255.87407"
     x2="314.58395"
     y2="126.66811"
     gradientUnits="userSpaceOnUse" /></defs><sodipodi:namedview
   id="namedview133"
   pagecolor="#505050"
   bordercolor="#ffffff"
   borderopacity="1"
   inkscape:pageshadow="0"
   inkscape:pageopacity="0"
   inkscape:pagecheckerboard="1"
   showgrid="false"
   inkscape:zoom="2.2831764"
   inkscape:cx="243.73938"
   inkscape:cy="256.003"
   inkscape:window-width="3440"
   inkscape:window-height="1377"
   inkscape:window-x="-8"
   inkscape:window-y="-8"
   inkscape:window-maximized="1"
   inkscape:current-layer="Capa_1" />
<g
   id="g100">
	<g
   id="g77"
   style="fill:#ff2a2a">
		<rect
   x="64.003"
   y="64"
   style="fill:#ff2a2a"
   width="106.667"
   height="42.667"
   id="rect73" />
		<rect
   x="64.003"
   y="256"
   style="fill:#ff2a2a"
   width="106.667"
   height="42.667"
   id="rect75" />
	</g>
	<g
   id="g83"
   style="fill:#ffaaaa">
		<rect
   x="106.67"
   y="128"
   style="fill:#ffaaaa"
   width="64"
   height="42.667"
   id="rect79" />
		<rect
   x="106.67"
   y="192"
   style="fill:#ffaaaa"
   width="64"
   height="42.667"
   id="rect81" />
	</g>
	<path
   style="fill:#f4d7d7"
   d="M277.336,320V64c0-35.346-28.654-64-64-64s-64,28.654-64,64v256   c-47.128,35.346-56.68,102.205-21.333,149.333s102.205,56.68,149.333,21.333s56.68-102.205,21.333-149.333   C292.605,333.247,285.422,326.064,277.336,320z"
   id="path85" />
	
		<linearGradient
   id="SVGID_1_"
   gradientUnits="userSpaceOnUse"
   x1="-42.1027"
   y1="628.6471"
   x2="-31.2827"
   y2="639.4771"
   gradientTransform="matrix(21.3333,0,0,-21.3333,995.83151,13791.229)">
		<stop
   offset="0"
   style="stop-color:#34CDFA"
   id="stop87" />
		<stop
   offset="1"
   style="stop-color:#E8D9F1"
   id="stop89" />
	</linearGradient>
	<path
   d="M 234.23201,345.16201 V 63.562014 c 0,-11.782 -9.551,-21.333 -21.333,-21.333 -11.782,0 -21.333,9.551 -21.333,21.333 V 345.16201 c -33.325,11.782 -50.789,48.348 -39.006,81.673 11.783,33.325 48.348,50.789 81.673,39.006 33.325,-11.782 50.789,-48.348 39.006,-81.673 -6.445,-18.225 -20.781,-32.562 -39.007,-39.006 z"
   id="path92"
   style="fill:url(#linearGradient3800);fill-opacity:1" />
	
</g>
<g
   id="g102">
</g>
<g
   id="g104">
</g>
<g
   id="g106">
</g>
<g
   id="g108">
</g>
<g
   id="g110">
</g>
<g
   id="g112">
</g>
<g
   id="g114">
</g>
<g
   id="g116">
</g>
<g
   id="g118">
</g>
<g
   id="g120">
</g>
<g
   id="g122">
</g>
<g
   id="g124">
</g>
<g
   id="g126">
</g>
<g
   id="g128">
</g>
<g
   id="g130">
</g>
</svg>
