<?xml version="1.0" encoding="UTF-8" standalone="no"?>
<!-- Created with Inkscape (http://www.inkscape.org/) -->

<svg
   width="57mm"
   height="40mm"
   viewBox="0 0 57 40"
   version="1.1"
   id="svg559"
   inkscape:version="1.1 (c68e22c387, 2021-05-23)"
   sodipodi:docname="thunder-drizzle.svg"
   xmlns:inkscape="http://www.inkscape.org/namespaces/inkscape"
   xmlns:sodipodi="http://sodipodi.sourceforge.net/DTD/sodipodi-0.dtd"
   xmlns="http://www.w3.org/2000/svg"
   xmlns:svg="http://www.w3.org/2000/svg">
  <sodipodi:namedview
     id="namedview561"
     pagecolor="#505050"
     bordercolor="#ffffff"
     borderopacity="1"
     inkscape:pageshadow="0"
     inkscape:pageopacity="0"
     inkscape:pagecheckerboard="1"
     inkscape:document-units="mm"
     showgrid="false"
     inkscape:zoom="0.77771465"
     inkscape:cx="251.37755"
     inkscape:cy="560.61693"
     inkscape:window-width="1718"
     inkscape:window-height="1368"
     inkscape:window-x="-7"
     inkscape:window-y="0"
     inkscape:window-maximized="0"
     inkscape:current-layer="layer1"
     units="mm" />
  <defs
     id="defs556" />
  <g
     inkscape:label="Layer 1"
     inkscape:groupmode="layer"
     id="layer1">
    <path
       id="path158"
       style="fill:#ffffff;fill-opacity:1;fill-rule:nonzero;stroke:none;stroke-width:0.0352778"
       d="m 51.600386,19.435376 c -1.368426,-1.4097 -3.118203,-2.327275 -5.021792,-2.651478 -0.369006,-3.309408 -3.183467,-5.889978 -6.588831,-5.889978 -0.772937,0 -1.528234,0.131586 -2.240492,0.38735 C 37.005262,9.307479 35.740907,7.54112 34.088848,6.197742 31.964773,4.470542 29.284367,3.5191 26.541873,3.5191 c -3.197578,0 -6.203598,1.244953 -8.464551,3.505906 -2.261305,2.260953 -3.506611,5.267326 -3.506611,8.464551 0,0.629003 -0.489303,1.138766 -1.115836,1.163108 -0.0053,0 -0.01094,3.53e-4 -0.01623,7.06e-4 -0.02505,3.52e-4 -0.06209,0 -0.06914,0 -0.0067,0 -0.01376,0 -0.02011,3.52e-4 -2.393597,0.03634 -4.6450253,0.989542 -6.3401223,2.684287 -1.730728,1.732139 -2.683934,4.035425 -2.683934,6.48582 0,5.057069 4.111978,9.169753 9.1665783,9.169753 h 3.781426 v -2.651831 h -3.781426 c -3.5923363,0 -6.5143943,-2.923822 -6.5143943,-6.517922 0,-1.741312 0.67698,-3.378553 1.906764,-4.609395 1.2026193,-1.202267 2.7982333,-1.8796 4.4954473,-1.90747 0.08502,0 0.130528,-0.0011 0.160867,-0.0021 0.9906,-0.03457 1.916289,-0.446264 2.606675,-1.159228 0.693208,-0.716139 1.075267,-1.659114 1.075267,-2.656064 0,-5.137856 4.180417,-9.318626 9.319331,-9.318626 2.134658,0 4.220633,0.740128 5.87375,2.083859 1.630186,1.326091 2.775656,3.179233 3.225448,5.217583 0.0956,0.433564 0.401461,0.790575 0.815975,0.951089 0.413455,0.160161 0.880533,0.103011 1.243189,-0.153105 0.671689,-0.474134 1.463322,-0.724959 2.289528,-0.724959 2.193572,0 3.977922,1.78435 3.977922,3.978981 0,0.112183 -0.0056,0.228247 -0.01552,0.345722 -0.03104,0.363009 0.0889,0.722489 0.330905,0.995186 0.241653,0.272345 0.584906,0.432859 0.948973,0.444148 1.695803,0.05292 3.281539,0.753886 4.465814,1.974144 1.187097,1.222728 1.840442,2.835275 1.840442,4.540251 0,3.5941 -2.922412,6.517922 -6.515101,6.517922 H 41.24248 v 2.651831 h 3.780719 c 5.054953,0 9.166931,-4.112684 9.166931,-9.169753 0,-2.399242 -0.919691,-4.667603 -2.589741,-6.388454" />
    <path
       id="path160"
       style="fill:#b89157;fill-opacity:1;fill-rule:nonzero;stroke:none;stroke-width:0.0352778"
       d="m 26.257887,31.005783 c 0,-0.01023 0,-0.02046 7.05e-4,-0.03069 7.06e-4,-0.006 7.06e-4,-0.01094 0.0021,-0.01588 0,-0.0056 0,-0.01129 3.53e-4,-0.01658 0.0011,-0.0067 0.0021,-0.01235 0.0032,-0.01976 0,-0.0039 0,-0.0081 0.0014,-0.01164 3.53e-4,-0.0074 0.0025,-0.01376 0.0032,-0.02081 7.05e-4,-0.0039 0.0018,-0.0071 0.0021,-0.01058 3.53e-4,-0.0071 0.0028,-0.01411 0.0046,-0.02152 3.52e-4,-0.0035 0.0011,-0.0063 0.0018,-0.01058 0.0018,-0.006 0.0042,-0.01305 0.006,-0.0194 3.52e-4,-0.0035 0.0014,-0.0078 0.0032,-0.01129 0.0018,-0.0067 0.0032,-0.01235 0.0056,-0.01835 0.0018,-0.0039 0.0025,-0.0088 0.0042,-0.0127 0.0021,-0.0056 0.0035,-0.01094 0.0067,-0.01623 0.0011,-0.0049 0.0032,-0.0099 0.0053,-0.0134 0.0014,-0.0053 0.0039,-0.01023 0.0049,-0.01482 0.0028,-0.0049 0.0053,-0.01058 0.0078,-0.01587 0.0021,-0.0042 0.0039,-0.0081 0.006,-0.01235 0.0032,-0.0049 0.0064,-0.01129 0.0088,-0.01658 0.0025,-0.0035 0.0035,-0.0071 0.0056,-0.01058 0.0032,-0.0056 0.0078,-0.01164 0.01058,-0.01764 0.0021,-0.0028 0.0039,-0.0053 0.0056,-0.0095 0.0042,-0.0053 0.0074,-0.01129 0.01094,-0.01764 0.0025,-0.0032 0.0042,-0.0056 0.0063,-0.0088 0.0042,-0.006 0.0081,-0.01164 0.01199,-0.01693 0.0028,-0.0032 0.0056,-0.0067 0.0088,-0.01023 0.0035,-0.0049 0.0071,-0.0099 0.01129,-0.01482 0.0035,-0.0049 0.0074,-0.0088 0.01058,-0.01305 0.0039,-0.0042 0.0071,-0.0074 0.0099,-0.01129 0.0078,-0.0078 0.01517,-0.01552 0.02328,-0.02364 v 0 c 0.0067,-0.0074 0.01446,-0.01552 0.02364,-0.02222 0.0032,-0.0035 0.0081,-0.0074 0.01129,-0.01023 0.0046,-0.0039 0.0088,-0.0071 0.01235,-0.01058 0.0049,-0.0049 0.01094,-0.0088 0.01552,-0.01235 0.0039,-0.0025 0.0067,-0.0053 0.0095,-0.0081 0.006,-0.0042 0.01199,-0.0085 0.01764,-0.01235 0.0028,-0.0018 0.0056,-0.0039 0.0081,-0.0049 0.0067,-0.0049 0.0127,-0.0095 0.0194,-0.0127 0.0018,-0.0018 0.0053,-0.0032 0.0085,-0.0049 0.006,-0.0046 0.01199,-0.0074 0.01764,-0.01094 0.0035,-0.0021 0.0067,-0.0032 0.01023,-0.0049 0.0056,-0.0035 0.01199,-0.0067 0.01764,-0.0095 0.0039,-0.0018 0.0078,-0.0039 0.01129,-0.0056 0.0056,-0.0025 0.01094,-0.0049 0.01623,-0.0071 0.0046,-0.0021 0.0085,-0.0039 0.01376,-0.006 0.0046,-0.0018 0.0099,-0.0039 0.01482,-0.006 0.0056,-0.0021 0.01058,-0.0035 0.01552,-0.0056 0.0049,-0.0018 0.0088,-0.0025 0.01341,-0.0046 0.0049,-0.0025 0.01094,-0.0042 0.01764,-0.0056 0.0042,-0.0011 0.0081,-0.0028 0.01199,-0.0042 0.006,-0.0011 0.01235,-0.0028 0.01834,-0.0049 0.0046,-3.53e-4 0.0092,-0.0011 0.01199,-0.0018 0.0074,-0.0021 0.01376,-0.0035 0.01976,-0.0049 0.0039,-0.0011 0.0085,-0.0011 0.0127,-0.0021 0.0063,-7.05e-4 0.01235,-0.0014 0.0194,-0.0032 0.0039,-0.0011 0.0085,-0.0014 0.01341,-0.0018 0.0056,-7.05e-4 0.01199,-0.0018 0.01834,-0.0021 0.0063,-3.53e-4 0.0127,-0.0014 0.01905,-0.0014 0.0042,-3.53e-4 0.0081,-3.53e-4 0.01164,-7.06e-4 0.01164,-0.0011 0.02328,-0.0011 0.03422,-0.0011 h 3.59022 c 0.362303,0 0.657225,0.294216 0.657225,0.656519 0,0.363361 -0.294922,0.658284 -0.657225,0.658284 h -2.005542 l 3.564467,3.564467 v 0 c 0.0085,0.0078 0.01588,0.01517 0.02222,0.02364 0.0046,0.0035 0.0067,0.0074 0.01023,0.01164 0.0028,0.0042 0.0074,0.0085 0.01129,0.01235 0.0039,0.0053 0.0081,0.0099 0.01199,0.01552 0.0018,0.0032 0.0049,0.0063 0.0074,0.0095 0.0046,0.0063 0.0088,0.01164 0.01235,0.01729 0.0014,0.0032 0.0042,0.0056 0.0056,0.0092 0.0042,0.0056 0.0085,0.01199 0.01164,0.01764 0.0025,0.0028 0.0042,0.006 0.0067,0.0092 0.0028,0.006 0.0056,0.01235 0.0088,0.01729 0.0028,0.0042 0.0049,0.0074 0.006,0.01094 0.0035,0.0056 0.0067,0.01094 0.0092,0.01693 0.0018,0.0046 0.0039,0.0085 0.006,0.01235 0.0025,0.0049 0.0046,0.0099 0.0074,0.01588 0.0018,0.0035 0.0042,0.0092 0.0056,0.01411 0.0021,0.0042 0.0042,0.0099 0.0056,0.01376 0.0018,0.0053 0.0042,0.01094 0.0063,0.01658 7.05e-4,0.0035 0.0028,0.0081 0.0035,0.01235 0.0025,0.0064 0.0042,0.01235 0.0071,0.01799 3.53e-4,0.0046 0.0011,0.0078 0.0032,0.01164 0.0018,0.0063 0.0028,0.01305 0.0049,0.02011 3.53e-4,0.0035 0.0021,0.0067 0.0025,0.0099 0.0018,0.0071 0.0028,0.01411 0.0042,0.02081 7.05e-4,0.0039 0.0014,0.0071 0.0021,0.01058 0.0011,0.0074 0.0032,0.01446 0.0035,0.02152 3.53e-4,0.0032 7.06e-4,0.0081 0.0021,0.01129 7.05e-4,0.0071 0.0014,0.01376 0.0018,0.01976 0,0.0056 0.0011,0.01129 0.0011,0.01658 0.0011,0.0056 0.0011,0.01023 0.0011,0.01588 7.06e-4,0.01023 7.06e-4,0.02046 7.06e-4,0.03034 0,7.06e-4 0,0.0021 0,0.0021 v 0.0014 c 0,0.01094 0,0.02081 -7.06e-4,0.0314 0,0.0049 0,0.01023 -0.0011,0.01517 0,0.0056 -0.0011,0.01094 -0.0011,0.01588 -3.53e-4,0.0067 -0.0011,0.01376 -0.0018,0.01976 -0.0014,0.0042 -0.0018,0.0081 -0.0021,0.01199 -3.53e-4,0.0078 -0.0025,0.01376 -0.0035,0.02081 -7.05e-4,0.0042 -0.0014,0.0074 -0.0021,0.01094 -0.0014,0.0067 -0.0025,0.01376 -0.0042,0.02117 -3.52e-4,0.0032 -0.0021,0.006 -0.0025,0.01023 -0.0021,0.006 -0.0032,0.01305 -0.0049,0.02011 -0.0021,0.0035 -0.0028,0.0078 -0.0032,0.01058 -0.0028,0.0067 -0.0046,0.0127 -0.0071,0.01834 -7.06e-4,0.0039 -0.0028,0.0088 -0.0035,0.0127 -0.0021,0.0053 -0.0046,0.01164 -0.0063,0.01658 -0.0014,0.0049 -0.0035,0.0095 -0.0056,0.01376 -0.0014,0.0049 -0.0039,0.0099 -0.0056,0.01446 -0.0028,0.0053 -0.0049,0.01058 -0.0074,0.01588 -0.0021,0.0035 -0.0042,0.0085 -0.006,0.01164 -0.0025,0.006 -0.0056,0.01164 -0.0092,0.01729 -0.0011,0.0028 -0.0032,0.0071 -0.006,0.01023 -0.0032,0.0056 -0.006,0.01199 -0.0088,0.01799 -0.0025,0.0025 -0.0042,0.0063 -0.0067,0.0092 -0.0032,0.0063 -0.0074,0.01129 -0.01164,0.01799 -0.0014,0.0028 -0.0042,0.0053 -0.0056,0.0085 -0.0035,0.0064 -0.0078,0.01164 -0.01235,0.01693 -0.0025,0.0039 -0.0056,0.0074 -0.0074,0.01058 -0.0039,0.0046 -0.0081,0.01023 -0.01199,0.01446 -0.0039,0.0049 -0.0085,0.0088 -0.01129,0.0127 -0.0035,0.0046 -0.0056,0.0085 -0.01023,0.01235 -0.0063,0.0078 -0.01376,0.01552 -0.02222,0.02293 v 0 c -0.0078,0.0078 -0.01517,0.01588 -0.02328,0.02293 -0.0032,0.0032 -0.0078,0.0067 -0.01199,0.01023 -0.0039,0.0035 -0.0081,0.0071 -0.01164,0.01023 -0.0063,0.0046 -0.01094,0.0088 -0.01552,0.01235 -0.0032,0.0025 -0.0067,0.0053 -0.0095,0.0074 -0.0067,0.0042 -0.0127,0.0085 -0.01799,0.01235 -0.0035,0.0021 -0.006,0.0049 -0.0088,0.0064 -0.006,0.0039 -0.01235,0.0081 -0.01799,0.01199 -0.0028,0.0014 -0.0056,0.0032 -0.0095,0.0049 -0.0056,0.0039 -0.01129,0.0071 -0.01764,0.01129 -0.0035,0.0011 -0.0067,0.0028 -0.01058,0.0046 -0.0049,0.0035 -0.01094,0.0064 -0.01693,0.0092 -0.0032,0.0021 -0.0078,0.0039 -0.01094,0.0056 -0.0056,0.0021 -0.01094,0.0046 -0.01729,0.0074 -0.0032,0.0021 -0.0085,0.0039 -0.0127,0.006 -0.0049,0.0018 -0.0099,0.0042 -0.01482,0.006 -0.0053,0.0018 -0.01023,0.0039 -0.01588,0.0056 -0.0042,0.0014 -0.0081,0.0032 -0.01305,0.0042 -0.0049,0.0021 -0.01235,0.0039 -0.01764,0.006 -0.0042,0.0014 -0.0081,0.0025 -0.01129,0.0035 -0.0071,0.0018 -0.01376,0.0028 -0.02046,0.0046 -0.0032,0.0014 -0.0067,0.0025 -0.01023,0.0032 -0.0074,0.0011 -0.01411,0.0028 -0.02081,0.0042 -0.0035,7.06e-4 -0.0074,0.0014 -0.01094,0.0021 -0.0067,0.0018 -0.01305,0.0021 -0.02117,0.0032 -0.0039,7.05e-4 -0.0081,0.0011 -0.01235,0.0014 -0.0067,0.0011 -0.01235,0.0018 -0.01799,0.0025 -0.0064,0.0011 -0.01235,0.0011 -0.01764,0.0014 -0.0049,3.53e-4 -0.0099,7.06e-4 -0.01482,7.06e-4 -0.01094,7.06e-4 -0.02258,0.0014 -0.03281,0.0014 h -1.304219 l 0.999419,1.493661 c 0.238125,0.378178 0.445912,0.718609 0.375356,0.809978 -0.05539,0.06985 -0.481542,-0.179564 -0.634647,-0.315736 l -2.791178,-2.180872 v 0 c -0.0067,-0.0074 -0.01446,-0.01517 -0.02187,-0.02293 -0.0032,-0.0039 -0.0056,-0.0078 -0.01023,-0.01235 -0.0028,-0.0039 -0.0074,-0.0078 -0.01058,-0.0127 -0.0042,-0.0042 -0.0081,-0.0099 -0.01235,-0.01446 -0.0025,-0.0032 -0.0042,-0.0067 -0.0071,-0.01058 -0.0046,-0.0053 -0.0085,-0.01058 -0.01235,-0.01693 -0.0021,-0.0032 -0.0042,-0.0056 -0.006,-0.0085 -0.0042,-0.0067 -0.0078,-0.01164 -0.01199,-0.01799 -0.0025,-0.0028 -0.0046,-0.0067 -0.0053,-0.0092 -0.0032,-0.006 -0.0071,-0.01235 -0.01023,-0.01799 -0.0021,-0.0032 -0.0046,-0.0074 -0.0056,-0.01023 -0.0035,-0.0056 -0.0067,-0.01129 -0.0088,-0.01729 -0.0021,-0.0032 -0.0046,-0.0081 -0.006,-0.01164 -0.0025,-0.0053 -0.0053,-0.01058 -0.0074,-0.01588 -0.0018,-0.0046 -0.0039,-0.0095 -0.006,-0.01446 -0.0021,-0.0042 -0.0035,-0.0088 -0.006,-0.01376 -0.0021,-0.0053 -0.0039,-0.01129 -0.0053,-0.01658 -0.0021,-0.0039 -0.0039,-0.0088 -0.0049,-0.0127 -0.0018,-0.0056 -0.0039,-0.01164 -0.0056,-0.01834 -0.0011,-0.0028 -0.0025,-0.0071 -0.0035,-0.01058 -0.0011,-0.0071 -0.0035,-0.01411 -0.0046,-0.02011 -0.0014,-0.0042 -0.0014,-0.0071 -0.0021,-0.01023 -0.0021,-0.0074 -0.0042,-0.01446 -0.0053,-0.02117 -0.0011,-0.0035 -0.0018,-0.0067 -0.0018,-0.01094 -0.0021,-0.0071 -0.0025,-0.01305 -0.0032,-0.02081 -0.0011,-0.0039 -0.0021,-0.0078 -0.0021,-0.01199 -7.05e-4,-0.006 -0.0018,-0.01305 -0.0018,-0.01976 -0.0011,-0.0049 -0.0011,-0.01023 -0.0021,-0.01588 0,-0.0049 -7.06e-4,-0.01023 -7.06e-4,-0.01517 -3.53e-4,-0.01058 -3.53e-4,-0.02046 -3.53e-4,-0.0314 v -0.0014 c 0,0 0,-0.0014 0,-0.0021 0,-0.0099 0,-0.02011 3.53e-4,-0.03034 0,-0.0056 7.06e-4,-0.01023 7.06e-4,-0.01588 0.0011,-0.0053 0.0011,-0.01094 0.0021,-0.01658 0,-0.006 0.0011,-0.0127 0.0018,-0.01976 0,-0.0032 0.0011,-0.0081 0.0021,-0.01129 7.05e-4,-0.0071 0.0011,-0.01411 0.0032,-0.02152 0,-0.0035 7.05e-4,-0.0067 0.0018,-0.01058 0.0011,-0.0067 0.0032,-0.01376 0.0053,-0.02081 7.06e-4,-0.0032 7.06e-4,-0.0063 0.0021,-0.0099 0.0011,-0.0071 0.0035,-0.01376 0.0046,-0.02011 0.0011,-0.0039 0.0025,-0.0071 0.0035,-0.01164 0.0018,-0.0056 0.0039,-0.01164 0.0056,-0.01799 0.0011,-0.0042 0.0028,-0.0088 0.0049,-0.01235 0.0014,-0.0056 0.0032,-0.01129 0.0053,-0.01658 0.0025,-0.0039 0.0039,-0.0095 0.006,-0.01376 0.0021,-0.0049 0.0042,-0.01058 0.006,-0.01411 0.0021,-0.006 0.0049,-0.01094 0.0074,-0.01588 0.0014,-0.0039 0.0039,-0.0078 0.006,-0.01235 0.0021,-0.006 0.0053,-0.01129 0.0088,-0.01693 0.0011,-0.0035 0.0035,-0.0067 0.0056,-0.01094 0.0032,-0.0049 0.0071,-0.01129 0.01023,-0.01729 7.06e-4,-0.0032 0.0028,-0.0064 0.0053,-0.0092 0.0042,-0.0056 0.0078,-0.01199 0.01199,-0.01764 0.0018,-0.0035 0.0039,-0.006 0.006,-0.0092 0.0039,-0.0056 0.0078,-0.01094 0.01235,-0.01729 0.0028,-0.0032 0.0046,-0.0064 0.0071,-0.0095 0.0042,-0.0056 0.0081,-0.01023 0.01235,-0.01552 0.0032,-0.0039 0.0078,-0.0081 0.01058,-0.01235 0.0046,-0.0042 0.0071,-0.0081 0.01023,-0.01164 0.0074,-0.0085 0.01517,-0.01588 0.02187,-0.02364 v 0 c 0.0085,-0.0081 0.01729,-0.01482 0.02399,-0.02258 0.0039,-0.0032 0.0071,-0.0067 0.01164,-0.01023 0.0046,-0.0032 0.0081,-0.0074 0.01235,-0.01094 0.0056,-0.0042 0.01094,-0.0078 0.01587,-0.01199 0.0039,-0.0028 0.0074,-0.0049 0.01023,-0.0074 0.0053,-0.0039 0.01129,-0.0081 0.01693,-0.0127 0.0025,-0.0014 0.0056,-0.0035 0.0088,-0.0056 0.006,-0.0035 0.01235,-0.0078 0.01799,-0.01164 0.0028,-0.0014 0.0056,-0.0032 0.0088,-0.0053 0.006,-0.0039 0.01164,-0.0078 0.01834,-0.01023 0.0039,-0.0021 0.006,-0.0039 0.0099,-0.006 0.0056,-0.0028 0.01129,-0.006 0.01729,-0.0088 0.0039,-0.0014 0.0074,-0.0035 0.01164,-0.0056 0.0056,-0.0028 0.01058,-0.0053 0.01623,-0.0074 0.0053,-0.0014 0.0088,-0.0039 0.01376,-0.0056 0.0049,-0.0025 0.0099,-0.0039 0.01552,-0.0067 0.0042,-0.0014 0.0099,-0.0032 0.01482,-0.0049 0.0035,-0.0021 0.0088,-0.0035 0.01341,-0.0049 0.0056,-0.0014 0.01129,-0.0035 0.01693,-0.0053 0.0035,-0.0014 0.0078,-0.0021 0.01199,-0.0039 0.0063,-0.0014 0.01305,-0.0035 0.01905,-0.0049 0.0042,-0.0011 0.0074,-0.0014 0.01199,-0.0032 0.006,-0.0014 0.01305,-0.0028 0.01976,-0.0039 0.0039,-7.06e-4 0.0085,-0.0014 0.01199,-0.0025 0.0067,-3.52e-4 0.01305,-0.0018 0.01975,-0.0025 0.0042,-0.0014 0.0088,-0.0018 0.01411,-0.0025 0.0053,0 0.01094,-0.0018 0.01764,-0.0021 0.0056,-3.53e-4 0.01341,-7.06e-4 0.01905,-0.0018 0.0046,0 0.0085,-7.06e-4 0.01235,-7.06e-4 0.01129,-3.52e-4 0.02187,-3.52e-4 0.03351,-3.52e-4 h 1.303161 l -3.563409,-3.56482 v 0 c -0.0081,-0.0081 -0.01552,-0.01552 -0.02328,-0.02434 -0.0028,-0.0032 -0.006,-0.0074 -0.0099,-0.01058 -0.0032,-0.0046 -0.0071,-0.0088 -0.01058,-0.01341 -0.0042,-0.0049 -0.0078,-0.0099 -0.01129,-0.01482 -0.0032,-0.0039 -0.006,-0.0063 -0.0088,-0.0099 -0.0039,-0.0056 -0.0078,-0.01199 -0.01199,-0.01729 -0.0021,-0.0032 -0.0039,-0.006 -0.0063,-0.0092 -0.0035,-0.006 -0.0067,-0.01164 -0.01094,-0.01799 -0.0018,-0.0025 -0.0035,-0.006 -0.0056,-0.0092 -0.0028,-0.006 -0.0074,-0.01164 -0.01058,-0.01729 -0.0021,-0.0035 -0.0032,-0.0071 -0.0056,-0.01058 -0.0025,-0.0056 -0.0056,-0.01094 -0.0088,-0.01693 -0.0021,-0.0039 -0.0039,-0.0078 -0.006,-0.01235 -0.0025,-0.0046 -0.0049,-0.0099 -0.0078,-0.01552 -0.0011,-0.0049 -0.0035,-0.0095 -0.0049,-0.01376 -0.0021,-0.0053 -0.0042,-0.0095 -0.0053,-0.01446 -0.0032,-0.0056 -0.0046,-0.01129 -0.0067,-0.01623 -0.0018,-0.0039 -0.0025,-0.0085 -0.0042,-0.01305 -0.0025,-0.0053 -0.0039,-0.01199 -0.0056,-0.01799 -0.0018,-0.0039 -0.0028,-0.0078 -0.0032,-0.01129 -0.0018,-0.0067 -0.0042,-0.01305 -0.006,-0.02011 -7.05e-4,-0.0032 -0.0014,-0.0064 -0.0018,-0.01023 -0.0018,-0.0067 -0.0042,-0.01411 -0.0046,-0.02081 -3.52e-4,-0.0039 -0.0014,-0.0074 -0.0021,-0.01058 -7.06e-4,-0.0067 -0.0028,-0.01446 -0.0032,-0.02152 -0.0014,-0.0032 -0.0014,-0.0074 -0.0014,-0.01094 -0.0011,-0.0074 -0.0021,-0.01376 -0.0032,-0.02046 -3.53e-4,-0.0053 -3.53e-4,-0.01023 -3.53e-4,-0.01658 -0.0014,-0.0046 -0.0014,-0.0099 -0.0021,-0.01517 -7.05e-4,-0.01023 -7.05e-4,-0.02046 -7.05e-4,-0.03104 0,-3.53e-4 0,-7.06e-4 0,-0.0021 0,0 0,-3.53e-4 0,-7.05e-4" />
    <path
       id="path162"
       style="fill:#5c93a4;fill-opacity:1;fill-rule:nonzero;stroke:none;stroke-width:0.0352778"
       d="m 24.556439,37.078853 c -0.377472,0 -0.75318,-0.144992 -1.03893,-0.436387 l -3.418417,-3.471333 c -0.56515,-0.571853 -0.557742,-1.496836 0.01658,-2.062692 0.57397,-0.56515 1.496837,-0.5588 2.061634,0.01482 l 3.419475,3.473803 c 0.564445,0.573616 0.557742,1.49613 -0.01517,2.062339 -0.285398,0.2794 -0.656167,0.419453 -1.025173,0.419453" />
    <path
       id="path164"
       style="fill:#5c93a4;fill-opacity:1;fill-rule:nonzero;stroke:none;stroke-width:0.0352778"
       d="m 37.376032,36.607189 c -0.37712,0 -0.753181,-0.144992 -1.039636,-0.437092 l -3.416653,-3.470628 c -0.565856,-0.572558 -0.560564,-1.497189 0.01482,-2.063397 0.572911,-0.56515 1.497895,-0.5588 2.062339,0.01552 l 3.41877,3.47345 c 0.565503,0.573617 0.559153,1.496836 -0.01623,2.062339 -0.282575,0.279047 -0.653344,0.419806 -1.023408,0.419806" />
  </g>
</svg>
