<?xml version="1.0" encoding="UTF-8" standalone="no"?>
<!-- Created with Inkscape (http://www.inkscape.org/) -->

<svg
   width="57mm"
   height="40mm"
   viewBox="0 0 57 40"
   version="1.1"
   id="svg559"
   inkscape:version="1.1 (c68e22c387, 2021-05-23)"
   sodipodi:docname="wind-right.svg"
   xmlns:inkscape="http://www.inkscape.org/namespaces/inkscape"
   xmlns:sodipodi="http://sodipodi.sourceforge.net/DTD/sodipodi-0.dtd"
   xmlns="http://www.w3.org/2000/svg"
   xmlns:svg="http://www.w3.org/2000/svg">
  <sodipodi:namedview
     id="namedview561"
     pagecolor="#505050"
     bordercolor="#ffffff"
     borderopacity="1"
     inkscape:pageshadow="0"
     inkscape:pageopacity="0"
     inkscape:pagecheckerboard="1"
     inkscape:document-units="mm"
     showgrid="false"
     inkscape:zoom="0.77771465"
     inkscape:cx="251.37755"
     inkscape:cy="560.61693"
     inkscape:window-width="1718"
     inkscape:window-height="1368"
     inkscape:window-x="-7"
     inkscape:window-y="0"
     inkscape:window-maximized="0"
     inkscape:current-layer="layer1"
     units="mm" />
  <defs
     id="defs556" />
  <g
     inkscape:label="Layer 1"
     inkscape:groupmode="layer"
     id="layer1">
    <path
       id="path92"
       style="fill:#5c93a4;fill-opacity:1;fill-rule:nonzero;stroke:none;stroke-width:0.0352778"
       d="m 33.062234,24.56282 -7.985831,-4.150784 c -0.14605,-3.53e-4 -0.265641,0.117828 -0.266347,0.264231 l -0.01058,2.583391 -3.53e-4,0.171803 c -1.735667,0.193323 -3.437114,0.675217 -5.06095,1.442861 C 16.177586,26.555661 12.292797,26.443125 9.660369,26.0526 8.1928134,25.834936 6.9365716,25.508617 6.043691,25.235567 5.151516,24.962517 4.6227021,24.742736 4.6131771,24.73815 3.8042576,24.396661 2.8715131,24.77449 2.5289658,25.5827 c -0.3429,0.80892 0.034572,1.743428 0.8438445,2.086681 0.096661,0.04127 2.4165279,1.013883 5.7259365,1.516945 1.2954002,0.19685 2.5689282,0.295275 3.8054142,0.295275 0.628297,0 1.247422,-0.0247 1.8542,-0.0762 2.28988,-0.191912 4.42207,-0.748242 6.339064,-1.654176 1.201562,-0.567619 2.433462,-0.941211 3.68794,-1.119364 l -0.0127,3.001046 c -0.0011,0.146509 0.117475,0.265677 0.263525,0.266382 l 5.60705,-2.853972 3.635022,-1.850319 -1.216025,-0.632178" />
    <path
       id="path94"
       style="fill:#ffffff;fill-opacity:1;fill-rule:nonzero;stroke:none;stroke-width:0.0352778"
       d="m 53.863232,20.253511 c -1.368073,-1.408995 -3.118203,-2.326217 -5.021792,-2.65042 -0.369006,-3.309056 -3.183114,-5.889625 -6.588831,-5.889625 -0.772936,0 -1.527881,0.132291 -2.240492,0.387702 -0.743656,-1.973791 -2.008364,-3.7397969 -3.660423,-5.0838799 -2.124075,-1.727201 -4.80448,-2.678289 -7.546975,-2.678289 -3.197578,0 -6.203245,1.244952 -8.464551,3.505553 -2.261305,2.2609519 -3.506611,5.2673249 -3.506611,8.4649029 0,0.628297 -0.489303,1.138061 -1.115483,1.162403 -0.006,3.52e-4 -0.01129,7.05e-4 -0.01658,7.05e-4 -0.02505,3.53e-4 -0.06209,3.53e-4 -0.06879,3.53e-4 -0.0071,0 -0.01376,0 -0.02046,0 -2.393597,0.03669 -4.645025,0.988836 -6.3397699,2.683228 -0.6459362,0.645936 -1.1832167,1.370895 -1.6033751,2.154061 l 2.538236,0.90805 c 0.263172,-0.425803 0.57785,-0.824089 0.940153,-1.187097 1.202267,-1.201561 2.798234,-1.878189 4.495448,-1.906058 0.08537,0 0.130175,-0.0011 0.160867,-0.0025 0.9906,-0.03422 1.915936,-0.445911 2.606675,-1.158522 0.693208,-0.715786 1.075267,-1.658409 1.075267,-2.654653 0,-5.138562 4.180064,-9.3186259 9.318978,-9.3186259 2.134658,0 4.220986,0.740128 5.87375,2.083859 1.630187,1.3260909 2.775656,3.1788799 3.225801,5.2172309 0.09525,0.433564 0.401108,0.790575 0.815622,0.950736 0.413103,0.160514 0.88018,0.103364 1.243542,-0.152753 0.671688,-0.474133 1.463322,-0.724606 2.289175,-0.724606 2.193572,0 3.977922,1.784351 3.977922,3.978276 0,0.11183 -0.0046,0.228247 -0.01552,0.345016 -0.03069,0.363009 0.0889,0.722489 0.330906,0.994481 0.242005,0.271992 0.585258,0.432506 0.949325,0.443794 1.695802,0.05362 3.281539,0.754239 4.465461,1.973792 1.18745,1.222375 1.840795,2.833512 1.840795,4.537781 0,3.592301 -2.922765,6.515136 -6.515454,6.515136 H 15.754763 c -1.881012,0 -3.577873,-0.801899 -4.768146,-2.081389 l -2.6479497,0.947102 c 1.6679337,2.292386 4.3709167,3.786047 7.4160957,3.786047 h 31.531279 c 5.054953,0 9.167284,-4.111943 9.167284,-9.166896 0,-2.397478 -0.919691,-4.665486 -2.590094,-6.384925" />
  </g>
</svg>
